<svg width="294.000000" height="444.000000" viewBox="0 0 294 444" fill="none" xmlns="http://www.w3.org/2000/svg" xmlns:xlink="http://www.w3.org/1999/xlink">
	<desc>
			Created with Pixso.
	</desc>
	<defs>
		<clipPath id="clip369_2274">
			<rect id="Frame 94" rx="14.500000" width="273.000000" height="79.000000" transform="translate(10.500000 10.500000)" fill="white" fill-opacity="0"/>
		</clipPath>
		<clipPath id="clip369_2281">
			<rect id="Frame 95" rx="14.500000" width="273.000000" height="79.000000" transform="translate(10.500000 96.500000)" fill="white" fill-opacity="0"/>
		</clipPath>
		<clipPath id="clip369_2288">
			<rect id="Frame 96" rx="14.500000" width="273.000000" height="79.000000" transform="translate(10.500000 182.500000)" fill="white" fill-opacity="0"/>
		</clipPath>
		<clipPath id="clip369_2295">
			<rect id="Frame 97" rx="14.500000" width="273.000000" height="79.000000" transform="translate(10.500000 268.500000)" fill="white" fill-opacity="0"/>
		</clipPath>
		<clipPath id="clip369_2302">
			<rect id="Frame 98" rx="14.500000" width="273.000000" height="79.000000" transform="translate(10.500000 354.500000)" fill="white" fill-opacity="0"/>
		</clipPath>
		<clipPath id="clip369_2273">
			<rect id="Frame 93" rx="14.500000" width="293.000000" height="443.000000" transform="translate(0.500000 0.500000)" fill="white" fill-opacity="0"/>
		</clipPath>
	</defs>
	<rect id="Frame 93" rx="14.500000" width="293.000000" height="443.000000" transform="translate(0.500000 0.500000)" fill="#9EFF3C" fill-opacity="1.000000"/>
	<g clip-path="url(#clip369_2273)">
		<rect id="Frame 94" rx="14.500000" width="273.000000" height="79.000000" transform="translate(10.500000 10.500000)" fill="#1E1E1E" fill-opacity="1.000000"/>
		<g clip-path="url(#clip369_2274)">
			<path id="Scan-x bot: Pump: +6.38 HBARUSDT" d="M26.4 62.1L25.24 62.1C25.15 61.36 24.5 60.93 23.58 60.93C22.6 60.93 21.97 61.43 21.97 62.11C21.97 62.88 22.8 63.17 23.43 63.33L24.21 63.53C25.23 63.78 26.51 64.34 26.51 65.78C26.51 67.14 25.43 68.13 23.55 68.13C21.76 68.13 20.64 67.23 20.56 65.78L21.77 65.78C21.84 66.65 22.61 67.07 23.54 67.07C24.57 67.07 25.32 66.55 25.32 65.77C25.32 65.06 24.65 64.78 23.8 64.55L22.86 64.3C21.57 63.95 20.77 63.3 20.77 62.18C20.77 60.8 22 59.88 23.61 59.88C25.23 59.88 26.37 60.82 26.4 62.1ZM61.99 68L60.85 68L60.85 59.99L62.02 59.99L62.02 62.97L62.09 62.97C62.29 62.6 62.7 61.92 63.81 61.92C65.26 61.92 66.33 63.06 66.33 65.01C66.33 66.95 65.28 68.11 63.82 68.11C62.73 68.11 62.3 67.44 62.09 67.06L61.99 67.06L61.99 68ZM75.83 62L77.06 62L77.06 62.93L75.83 62.93L75.83 66.23C75.83 66.91 76.18 67.03 76.55 67.03C76.74 67.03 76.88 67 76.96 66.98L77.17 67.95C77.04 68 76.79 68.07 76.42 68.07C75.5 68.09 74.66 67.57 74.67 66.48L74.67 62.93L73.79 62.93L73.79 62L74.67 62L74.67 60.56L75.83 60.56L75.83 62ZM32.85 66.1C32.72 67.26 31.8 68.12 30.38 68.12C28.64 68.12 27.59 66.83 27.59 65.02C27.59 63.19 28.68 61.92 30.37 61.92C31.74 61.92 32.73 62.72 32.85 63.93L31.71 63.93C31.59 63.37 31.14 62.9 30.39 62.9C29.42 62.9 28.77 63.71 28.77 65C28.77 66.3 29.4 67.13 30.39 67.13C31.06 67.13 31.57 66.75 31.71 66.1L32.85 66.1ZM37.62 67.18C37.4 67.62 36.84 68.13 35.85 68.13C34.71 68.13 33.82 67.48 33.82 66.3C33.82 64.94 34.99 64.64 36.12 64.51C37.2 64.38 37.64 64.39 37.64 63.96L37.64 63.94C37.64 63.26 37.25 62.86 36.5 62.86C35.71 62.86 35.28 63.27 35.11 63.7L34.01 63.45C34.4 62.36 35.4 61.92 36.48 61.92C37.44 61.92 38.81 62.26 38.81 64.01L38.81 68L37.67 68L37.67 67.18L37.62 67.18ZM42.93 62.93C42.12 62.93 41.53 63.48 41.53 64.43L41.53 68L40.37 68L40.37 62L41.49 62L41.49 62.97L41.56 62.97C41.84 62.33 42.43 61.92 43.33 61.92C44.56 61.92 45.37 62.69 45.37 64.18L45.37 68L44.21 68L44.21 64.32C44.21 63.45 43.72 62.93 42.93 62.93ZM72.96 65.02C72.96 66.88 71.86 68.12 70.17 68.12C68.48 68.12 67.37 66.88 67.37 65.02C67.37 63.16 68.48 61.92 70.17 61.92C71.86 61.92 72.96 63.16 72.96 65.02ZM51.42 62L52.7 62L54.03 64.33L55.36 62L56.64 62L54.77 65L56.66 68L55.38 68L54.03 65.75L52.68 68L51.4 68L53.26 65L51.42 62ZM79.91 62.92C79.91 63.35 79.55 63.7 79.12 63.7C78.69 63.7 78.34 63.35 78.34 62.92C78.34 62.5 78.69 62.14 79.12 62.14C79.55 62.14 79.91 62.5 79.91 62.92ZM68.55 65.02C68.55 66.17 69.06 67.14 70.17 67.14C71.27 67.14 71.79 66.17 71.79 65.02C71.79 63.87 71.27 62.89 70.17 62.89C69.06 62.89 68.55 63.87 68.55 65.02ZM63.56 62.91C62.54 62.91 61.99 63.74 61.99 65C61.99 66.26 62.56 67.12 63.56 67.12C64.6 67.12 65.15 66.2 65.15 65C65.15 63.8 64.62 62.91 63.56 62.91ZM46.92 64.11L50.47 64.11L50.47 65.12L46.92 65.12L46.92 64.11ZM34.97 66.32C34.97 66.89 35.44 67.19 36.1 67.19C37.08 67.19 37.64 66.54 37.64 65.83L37.64 65.06C37.48 65.23 36.58 65.33 36.2 65.38C35.52 65.47 34.97 65.69 34.97 66.32ZM79.91 67.29C79.91 67.72 79.55 68.07 79.12 68.07C78.69 68.07 78.34 67.72 78.34 67.29C78.34 66.86 78.69 66.51 79.12 66.51C79.55 66.51 79.91 66.86 79.91 67.29Z" fill="#62ADFF" fill-opacity="1.000000" fill-rule="evenodd"/>
			<path id="Scan-x bot: Pump: +6.38 HBARUSDT" d="M133.37 65.38C133.37 66.92 132.26 68.12 130.59 68.11C129.17 68.09 127.67 67.21 127.67 64.26C127.67 61.48 128.83 59.88 130.69 59.88C132.12 59.88 133.12 60.81 133.3 62.07L132.11 62.07C131.94 61.41 131.46 60.94 130.69 60.94C129.52 60.94 128.83 62.02 128.83 63.84L128.89 63.84C129.3 63.16 130.03 62.75 130.87 62.75C132.26 62.75 133.37 63.85 133.37 65.38ZM142.88 65.8C142.88 67.13 141.68 68.11 140.05 68.11C138.43 68.11 137.27 67.21 137.22 65.91L138.45 65.91C138.5 66.62 139.17 67.07 140.04 67.07C140.98 67.07 141.66 66.54 141.66 65.76C141.66 64.96 141.01 64.39 139.9 64.39L139.23 64.39L139.23 63.41L139.9 63.41C140.79 63.41 141.41 62.9 141.41 62.13C141.41 61.39 140.88 60.89 140.06 60.89C139.28 60.89 138.59 61.34 138.56 62.07L137.39 62.07C137.43 60.77 138.61 59.88 140.08 59.88C141.62 59.88 142.58 60.89 142.58 62.07C142.58 62.97 142.04 63.62 141.2 63.84L141.2 63.9C142.27 64.06 142.88 64.79 142.88 65.8ZM149.9 65.86C149.89 67.16 148.71 68.11 147.05 68.11C145.37 68.11 144.2 67.16 144.2 65.86C144.2 64.86 144.9 64.01 145.81 63.85L145.81 63.8C145.02 63.61 144.49 62.88 144.5 62.02C144.49 60.8 145.57 59.88 147.05 59.88C148.52 59.88 149.59 60.8 149.6 62.02C149.59 62.88 149.07 63.61 148.29 63.8L148.29 63.85C149.18 64.01 149.89 64.86 149.9 65.86ZM198.11 62.1L196.94 62.1C196.86 61.36 196.21 60.93 195.29 60.93C194.3 60.93 193.68 61.43 193.68 62.11C193.68 62.88 194.51 63.17 195.14 63.33L195.92 63.53C196.93 63.78 198.22 64.34 198.22 65.78C198.22 67.14 197.14 68.13 195.26 68.13C193.46 68.13 192.34 67.23 192.26 65.78L193.47 65.78C193.55 66.65 194.32 67.07 195.25 67.07C196.28 67.07 197.02 66.55 197.02 65.77C197.02 65.06 196.36 64.78 195.51 64.55L194.56 64.3C193.28 63.95 192.48 63.3 192.48 62.18C192.48 60.8 193.71 59.88 195.31 59.88C196.94 59.88 198.07 60.82 198.11 62.1ZM85.68 68L84.47 68L84.47 59.99L87.33 59.99C89.19 59.99 90.1 61.11 90.1 62.58C90.1 64.06 89.18 65.18 87.32 65.18L85.68 65.18L85.68 68ZM155.52 68L154.32 68L154.32 59.99L155.52 59.99L155.52 63.47L159.51 63.47L159.51 59.99L160.72 59.99L160.72 68L159.51 68L159.51 64.51L155.52 64.51L155.52 68ZM165.55 68L162.48 68L162.48 59.99L165.41 59.99C167.11 59.99 167.93 60.91 167.93 62.1C167.93 63.1 167.32 63.6 166.59 63.78L166.59 63.86C167.38 63.9 168.25 64.6 168.25 65.84C168.25 67.07 167.4 68 165.55 68ZM171.08 65.88L170.35 68L169.07 68L171.95 59.99L173.34 59.99L176.22 68L174.94 68L174.21 65.88L171.08 65.88ZM178.58 68L177.37 68L177.37 59.99L180.23 59.99C182.08 59.99 182.99 61.03 182.99 62.5C182.99 63.58 182.51 64.39 181.53 64.76L183.3 68L181.93 68L180.3 64.97L178.58 64.97L178.58 68ZM189.61 65.16L189.61 59.99L190.82 59.99L190.82 65.26C190.82 66.94 189.56 68.13 187.64 68.13C185.73 68.13 184.47 66.94 184.47 65.26L184.47 59.99L185.68 59.99L185.68 65.16C185.68 66.24 186.43 67.03 187.64 67.03C188.86 67.03 189.61 66.24 189.61 65.16ZM206.1 63.98C206.1 66.48 204.69 68 202.25 68L199.66 68L199.66 59.99L202.33 59.99C204.69 59.99 206.1 61.5 206.1 63.98ZM209.36 61.03L206.87 61.03L206.87 59.99L213.06 59.99L213.06 61.03L210.56 61.03L210.56 68L209.36 68L209.36 61.03ZM145.67 62.12C145.67 62.88 146.24 63.39 147.05 63.39C147.85 63.39 148.42 62.88 148.42 62.12C148.42 61.37 147.86 60.87 147.05 60.87C146.22 60.87 145.67 61.37 145.67 62.12ZM163.69 61.02L163.69 63.46L165.3 63.46C166.12 63.46 166.75 62.97 166.75 62.19C166.75 61.53 166.29 61.02 165.34 61.02L163.69 61.02ZM85.68 61.03L85.68 64.16L87.21 64.16C88.39 64.16 88.88 63.49 88.88 62.58C88.88 61.68 88.39 61.03 87.2 61.03L85.68 61.03ZM178.58 61.03L178.58 63.93L180.11 63.93C181.29 63.93 181.78 63.41 181.78 62.5C181.78 61.6 181.29 61.03 180.1 61.03L178.58 61.03ZM200.87 61.05L200.87 66.94L202.18 66.94C204.01 66.94 204.91 65.88 204.91 63.98C204.91 62.1 204.01 61.05 202.26 61.05L200.87 61.05ZM123.89 66.65L122.84 66.65L122.84 64.53L120.73 64.53L120.73 63.48L122.84 63.48L122.84 61.37L123.89 61.37L123.89 63.48L126.01 63.48L126.01 64.53L123.89 64.53L123.89 66.65ZM172.62 61.45L171.44 64.86L173.86 64.86L172.68 61.45L172.62 61.45ZM99.12 68L97.95 68L97.95 62L99.07 62L99.07 62.97L99.15 62.97C99.4 62.31 99.99 61.92 100.78 61.92C101.58 61.92 102.13 62.32 102.39 62.97L102.46 62.97C102.75 62.33 103.4 61.92 104.26 61.92C105.34 61.92 106.11 62.6 106.11 63.97L106.11 68L104.94 68L104.94 64.08C104.94 63.27 104.43 62.92 103.82 62.92C103.05 62.92 102.61 63.45 102.61 64.17L102.61 68L101.45 68L101.45 64.01C101.45 63.35 101 62.92 100.35 62.92C99.69 62.92 99.12 63.49 99.12 64.3L99.12 68ZM108.84 70.25L107.67 70.25L107.67 62L108.81 62L108.81 62.97L108.91 62.97C109.12 62.6 109.52 61.92 110.63 61.92C112.08 61.92 113.15 63.06 113.15 65.01C113.15 66.95 112.1 68.11 110.64 68.11C109.55 68.11 109.12 67.44 108.91 67.06L108.84 67.06L108.84 70.25ZM93.8 67.01C94.46 67.01 95.22 66.53 95.21 65.51L95.21 62L96.39 62L96.39 68L95.24 68L95.24 66.96L95.17 66.96C94.9 67.6 94.28 68.07 93.38 68.07C92.23 68.07 91.41 67.3 91.41 65.81L91.41 62L92.58 62L92.58 65.67C92.58 66.49 93.08 67.01 93.8 67.01ZM116.01 62.92C116.01 63.35 115.65 63.7 115.23 63.7C114.8 63.7 114.45 63.35 114.45 62.92C114.45 62.5 114.8 62.14 115.23 62.14C115.65 62.14 116.01 62.5 116.01 62.92ZM110.38 62.91C109.36 62.91 108.82 63.74 108.82 65C108.82 66.26 109.38 67.12 110.38 67.12C111.42 67.12 111.97 66.2 111.97 65C111.97 63.8 111.44 62.91 110.38 62.91ZM128.98 65.41C128.98 66.31 129.66 67.09 130.59 67.09C131.5 67.09 132.2 66.34 132.19 65.4C132.2 64.47 131.53 63.73 130.61 63.73C129.69 63.73 128.98 64.51 128.98 65.41ZM145.42 65.78C145.42 66.59 146.05 67.12 147.05 67.12C148.04 67.12 148.67 66.59 148.67 65.78C148.67 64.95 147.98 64.36 147.05 64.36C146.1 64.36 145.42 64.95 145.42 65.78ZM163.69 64.4L163.69 66.96L165.43 66.96C166.59 66.96 167.05 66.46 167.05 65.78C167.05 65.02 166.44 64.4 165.47 64.4L163.69 64.4ZM116.01 67.29C116.01 67.72 115.65 68.07 115.23 68.07C114.8 68.07 114.45 67.72 114.45 67.29C114.45 66.86 114.8 66.51 115.23 66.51C115.65 66.51 116.01 66.86 116.01 67.29ZM136 67.29C136 67.72 135.64 68.07 135.21 68.07C134.78 68.07 134.43 67.72 134.43 67.29C134.43 66.86 134.78 66.51 135.21 66.51C135.64 66.51 136 66.86 136 67.29Z" fill="#FFFFFF" fill-opacity="1.000000" fill-rule="evenodd"/>
			<path id="Pump(Новый сигнал)" d="M69.71 43.66C68.72 42.27 68.2 40.64 68.2 38.68C68.2 36.72 68.72 35.09 69.71 33.69L70.78 33.69C70.01 34.73 69.41 36.82 69.41 38.68C69.41 40.53 70.01 42.63 70.78 43.66L69.71 43.66ZM148.97 33.69C149.96 35.09 150.48 36.72 150.48 38.68C150.48 40.64 149.96 42.27 148.97 43.66L147.9 43.66C148.67 42.63 149.27 40.53 149.27 38.68C149.27 36.82 148.67 34.73 147.9 33.69L148.97 33.69ZM104.05 34.71C104.6 34.71 104.82 34.36 104.82 33.96L105.78 33.96C105.78 34.84 105.11 35.45 104.05 35.45C103 35.45 102.34 34.84 102.34 33.96L103.29 33.96C103.29 34.35 103.5 34.71 104.05 34.71ZM39.08 42L37.87 42L37.87 33.99L40.73 33.99C42.58 33.99 43.49 35.11 43.49 36.58C43.49 38.06 42.58 39.18 40.72 39.18L39.08 39.18L39.08 42ZM73.32 42L72.11 42L72.11 33.99L73.32 33.99L73.32 37.47L77.3 37.47L77.3 33.99L78.52 33.99L78.52 42L77.3 42L77.3 38.51L73.32 38.51L73.32 42ZM39.08 35.03L39.08 38.16L40.61 38.16C41.79 38.16 42.28 37.49 42.28 36.58C42.28 35.68 41.79 35.03 40.6 35.03L39.08 35.03ZM52.52 42L51.35 42L51.35 36L52.47 36L52.47 36.97L52.54 36.97C52.8 36.31 53.39 35.92 54.18 35.92C54.98 35.92 55.53 36.32 55.79 36.97L55.85 36.97C56.14 36.33 56.79 35.92 57.66 35.92C58.74 35.92 59.51 36.6 59.51 37.97L59.51 42L58.34 42L58.34 38.08C58.34 37.27 57.83 36.92 57.21 36.92C56.45 36.92 56.01 37.45 56.01 38.17L56.01 42L54.85 42L54.85 38.01C54.85 37.35 54.4 36.92 53.75 36.92C53.08 36.92 52.52 37.49 52.52 38.3L52.52 42ZM62.24 44.25L61.07 44.25L61.07 36L62.21 36L62.21 36.97L62.31 36.97C62.52 36.6 62.92 35.92 64.03 35.92C65.48 35.92 66.55 37.06 66.55 39.01C66.55 40.95 65.49 42.11 64.04 42.11C62.95 42.11 62.52 41.44 62.31 41.06L62.24 41.06L62.24 44.25ZM85.5 39.02C85.5 40.88 84.4 42.12 82.7 42.12C81.02 42.12 79.91 40.88 79.91 39.02C79.91 37.16 81.02 35.92 82.7 35.92C84.4 35.92 85.5 37.16 85.5 39.02ZM116.05 40.1C115.92 41.26 115.01 42.12 113.59 42.12C111.85 42.12 110.79 40.83 110.79 39.02C110.79 37.19 111.89 35.92 113.58 35.92C114.94 35.92 115.93 36.72 116.05 37.93L114.92 37.93C114.79 37.37 114.34 36.9 113.6 36.9C112.62 36.9 111.97 37.71 111.97 39C111.97 40.3 112.61 41.13 113.6 41.13C114.26 41.13 114.77 40.75 114.92 40.1L116.05 40.1ZM138.96 41.18C138.73 41.62 138.17 42.13 137.18 42.13C136.04 42.13 135.16 41.48 135.16 40.3C135.16 38.94 136.32 38.64 137.46 38.51C138.53 38.38 138.97 38.39 138.97 37.96L138.97 37.94C138.97 37.26 138.59 36.86 137.83 36.86C137.05 36.86 136.61 37.27 136.44 37.7L135.34 37.45C135.73 36.36 136.73 35.92 137.82 35.92C138.77 35.92 140.14 36.26 140.14 38.01L140.14 42L139 42L139 41.18L138.96 41.18ZM47.2 41.01C47.86 41.01 48.62 40.53 48.61 39.51L48.61 36L49.78 36L49.78 42L48.63 42L48.63 40.96L48.57 40.96C48.3 41.6 47.68 42.07 46.78 42.07C45.63 42.07 44.81 41.3 44.81 39.81L44.81 36L45.98 36L45.98 39.67C45.98 40.49 46.48 41.01 47.2 41.01ZM89.67 42L86.8 42L86.8 36L89.29 36C90.64 36 91.49 36.61 91.49 37.6C91.49 38.3 91.01 38.71 90.27 38.85C91.07 38.94 91.75 39.49 91.75 40.38C91.75 41.33 90.98 42 89.67 42ZM94.18 36L94.18 38.06L95.65 38.06C97.12 38.06 97.94 38.86 97.94 40.02C97.94 41.14 97.12 42 95.65 42L93.03 42L93.03 36L94.18 36ZM99.96 42L98.79 42L98.79 36L99.96 36L99.96 42ZM102.68 36L102.68 40.36L105.32 36L106.58 36L106.58 42L105.43 42L105.43 37.63L102.8 42L101.53 42L101.53 36L102.68 36ZM118.45 36L118.45 40.36L121.1 36L122.36 36L122.36 42L121.21 42L121.21 37.63L118.58 42L117.31 42L117.31 36L118.45 36ZM123.92 36L127.76 36L127.76 37L125.08 37L125.08 42L123.92 42L123.92 36ZM128.99 36L130.14 36L130.14 38.49L132.74 38.49L132.74 36L133.88 36L133.88 42L132.74 42L132.74 39.5L130.14 39.5L130.14 42L128.99 42L128.99 36ZM141.6 42L141.22 42L141.22 40.98L141.44 40.98C142.11 40.98 142.32 40.5 142.39 38.65L142.5 36L146.68 36L146.68 42L145.54 42L145.54 37L143.58 37L143.48 39.04C143.39 41.03 142.91 42 141.6 42ZM81.09 39.02C81.09 40.17 81.6 41.14 82.71 41.14C83.81 41.14 84.32 40.17 84.32 39.02C84.32 37.87 83.81 36.89 82.71 36.89C81.6 36.89 81.09 37.87 81.09 39.02ZM63.78 36.91C62.76 36.91 62.22 37.74 62.22 39C62.22 40.26 62.78 41.12 63.78 41.12C64.82 41.12 65.37 40.2 65.37 39C65.37 37.8 64.84 36.91 63.78 36.91ZM87.9 36.98L87.9 38.5L89.3 38.5C89.96 38.5 90.36 38.2 90.36 37.72C90.36 37.26 89.96 36.98 89.29 36.98L87.9 36.98ZM136.3 40.32C136.3 40.89 136.78 41.19 137.44 41.19C138.41 41.19 138.98 40.54 138.98 39.83L138.98 39.06C138.81 39.23 137.91 39.33 137.53 39.38C136.85 39.47 136.3 39.69 136.3 40.32ZM95.65 39.07L94.18 39.07L94.18 40.99L95.65 40.99C96.32 40.99 96.8 40.6 96.8 40.05C96.8 39.47 96.32 39.07 95.65 39.07ZM87.9 39.35L87.9 41.02L89.67 41.02C90.25 41.02 90.6 40.72 90.6 40.25C90.6 39.69 90.25 39.35 89.67 39.35L87.9 39.35Z" fill="#FFFFFF" fill-opacity="1.000000" fill-rule="evenodd"/>
			<path id="21:10" d="M252.03 42L246.77 42L246.77 41.12L249.47 38.32C250.33 37.41 250.75 36.9 250.75 36.19C250.75 35.39 250.14 34.89 249.32 34.89C248.46 34.89 247.9 35.46 247.91 36.32L246.76 36.32C246.76 34.85 247.85 33.88 249.35 33.88C250.85 33.88 251.9 34.87 251.9 36.15C251.9 37.05 251.48 37.76 250.02 39.24L248.43 40.9L248.43 40.96L252.03 40.96L252.03 42ZM272.74 38C272.74 40.62 271.66 42.13 269.81 42.13C267.96 42.12 266.87 40.62 266.87 38C266.88 35.39 267.97 33.88 269.81 33.88C271.64 33.88 272.74 35.4 272.74 38ZM255.37 33.99L256.55 33.99L256.55 42L255.34 42L255.34 35.21L255.29 35.21L253.38 36.45L253.38 35.3L255.37 33.99ZM263.68 33.99L264.86 33.99L264.86 42L263.65 42L263.65 35.21L263.6 35.21L261.69 36.45L261.69 35.3L263.68 33.99ZM268.07 38C268.07 40 268.73 41.08 269.81 41.08C270.89 41.08 271.54 40 271.54 38C271.54 36.01 270.88 34.91 269.81 34.91C268.73 34.91 268.08 36.01 268.07 38ZM260.28 36.21C260.28 36.65 259.92 36.99 259.5 36.99C259.07 36.99 258.71 36.65 258.71 36.21C258.71 35.79 259.07 35.44 259.5 35.44C259.92 35.44 260.28 35.79 260.28 36.21ZM260.28 40.22C260.28 40.65 259.92 41 259.5 41C259.07 41 258.71 40.65 258.71 40.22C258.71 39.8 259.07 39.44 259.5 39.44C259.92 39.44 260.28 39.8 260.28 40.22Z" fill="#91A3B5" fill-opacity="1.000000" fill-rule="evenodd"/>
		</g>
		<rect id="Frame 95" rx="14.500000" width="273.000000" height="79.000000" transform="translate(10.500000 96.500000)" fill="#1E1E1E" fill-opacity="1.000000"/>
		<g clip-path="url(#clip369_2281)">
			<path id="Scan-x bot: Dump: -8.35 AGLDUSDT" d="M26.4 148.1L25.24 148.1C25.15 147.36 24.5 146.93 23.58 146.93C22.6 146.93 21.97 147.43 21.97 148.11C21.97 148.88 22.8 149.17 23.43 149.33L24.21 149.53C25.23 149.78 26.51 150.34 26.51 151.78C26.51 153.14 25.43 154.13 23.55 154.13C21.76 154.13 20.64 153.23 20.56 151.78L21.77 151.78C21.84 152.66 22.61 153.07 23.54 153.07C24.57 153.07 25.32 152.55 25.32 151.77C25.32 151.06 24.65 150.78 23.8 150.56L22.86 150.3C21.57 149.95 20.77 149.3 20.77 148.18C20.77 146.8 22 145.89 23.61 145.89C25.23 145.89 26.37 146.82 26.4 148.1ZM61.99 154L60.85 154L60.85 146L62.02 146L62.02 148.97L62.09 148.97C62.29 148.6 62.7 147.92 63.81 147.92C65.26 147.92 66.33 149.06 66.33 151.01C66.33 152.95 65.28 154.11 63.82 154.11C62.73 154.11 62.3 153.44 62.09 153.06L61.99 153.06L61.99 154ZM75.83 148L77.06 148L77.06 148.93L75.83 148.93L75.83 152.23C75.83 152.91 76.18 153.03 76.55 153.03C76.74 153.03 76.88 153 76.96 152.98L77.17 153.95C77.04 154 76.79 154.07 76.42 154.07C75.5 154.09 74.66 153.57 74.67 152.48L74.67 148.93L73.79 148.93L73.79 148L74.67 148L74.67 146.56L75.83 146.56L75.83 148ZM32.85 152.1C32.72 153.27 31.8 154.12 30.38 154.12C28.64 154.12 27.59 152.83 27.59 151.02C27.59 149.19 28.68 147.92 30.37 147.92C31.74 147.92 32.73 148.72 32.85 149.93L31.71 149.93C31.59 149.37 31.14 148.9 30.39 148.9C29.42 148.9 28.77 149.71 28.77 151C28.77 152.3 29.4 153.13 30.39 153.13C31.06 153.13 31.57 152.75 31.71 152.1L32.85 152.1ZM37.62 153.18C37.4 153.62 36.84 154.13 35.85 154.13C34.71 154.13 33.82 153.48 33.82 152.3C33.82 150.94 34.99 150.64 36.12 150.51C37.2 150.38 37.64 150.39 37.64 149.96L37.64 149.94C37.64 149.26 37.25 148.86 36.5 148.86C35.71 148.86 35.28 149.27 35.11 149.7L34.01 149.45C34.4 148.36 35.4 147.92 36.48 147.92C37.44 147.92 38.81 148.26 38.81 150.01L38.81 154L37.67 154L37.67 153.18L37.62 153.18ZM42.93 148.93C42.12 148.93 41.53 149.48 41.53 150.43L41.53 154L40.37 154L40.37 148L41.49 148L41.49 148.97L41.56 148.97C41.84 148.33 42.43 147.92 43.33 147.92C44.56 147.92 45.37 148.69 45.37 150.18L45.37 154L44.21 154L44.21 150.32C44.21 149.45 43.72 148.93 42.93 148.93ZM72.96 151.02C72.96 152.88 71.86 154.12 70.17 154.12C68.48 154.12 67.37 152.88 67.37 151.02C67.37 149.16 68.48 147.92 70.17 147.92C71.86 147.92 72.96 149.16 72.96 151.02ZM51.42 148L52.7 148L54.03 150.33L55.36 148L56.64 148L54.77 151L56.66 154L55.38 154L54.03 151.75L52.68 154L51.4 154L53.26 151L51.42 148ZM79.91 148.92C79.91 149.35 79.55 149.7 79.12 149.7C78.69 149.7 78.34 149.35 78.34 148.92C78.34 148.5 78.69 148.14 79.12 148.14C79.55 148.14 79.91 148.5 79.91 148.92ZM68.55 151.02C68.55 152.17 69.06 153.14 70.17 153.14C71.27 153.14 71.79 152.17 71.79 151.02C71.79 149.87 71.27 148.89 70.17 148.89C69.06 148.89 68.55 149.87 68.55 151.02ZM63.56 148.91C62.54 148.91 61.99 149.74 61.99 151C61.99 152.26 62.56 153.12 63.56 153.12C64.6 153.12 65.15 152.2 65.15 151C65.15 149.8 64.62 148.91 63.56 148.91ZM46.92 150.11L50.47 150.11L50.47 151.12L46.92 151.12L46.92 150.11ZM34.97 152.32C34.97 152.89 35.44 153.19 36.1 153.19C37.08 153.19 37.64 152.54 37.64 151.83L37.64 151.06C37.48 151.23 36.58 151.33 36.2 151.38C35.52 151.47 34.97 151.69 34.97 152.32ZM79.91 153.29C79.91 153.72 79.55 154.07 79.12 154.07C78.69 154.07 78.34 153.72 78.34 153.29C78.34 152.86 78.69 152.51 79.12 152.51C79.55 152.51 79.91 152.86 79.91 153.29Z" fill="#62ADFF" fill-opacity="1.000000" fill-rule="evenodd"/>
			<path id="Scan-x bot: Dump: -8.35 AGLDUSDT" d="M90.91 149.98C90.91 152.48 89.5 154 87.07 154L84.47 154L84.47 146L87.15 146C89.5 146 90.91 147.5 90.91 149.98ZM85.68 147.05L85.68 152.94L87 152.94C88.82 152.94 89.73 151.88 89.73 149.98C89.73 148.1 88.82 147.05 87.07 147.05L85.68 147.05ZM100.03 154L98.86 154L98.86 148L99.98 148L99.98 148.97L100.05 148.97C100.31 148.31 100.89 147.92 101.69 147.92C102.49 147.92 103.04 148.32 103.3 148.97L103.36 148.97C103.65 148.33 104.3 147.92 105.16 147.92C106.25 147.92 107.01 148.6 107.01 149.97L107.01 154L105.85 154L105.85 150.08C105.85 149.27 105.34 148.92 104.72 148.92C103.96 148.92 103.52 149.45 103.52 150.17L103.52 154L102.35 154L102.35 150.01C102.35 149.35 101.91 148.92 101.26 148.92C100.59 148.92 100.03 149.49 100.03 150.3L100.03 154ZM109.74 156.25L108.58 156.25L108.58 148L109.72 148L109.72 148.97L109.81 148.97C110.02 148.6 110.42 147.92 111.54 147.92C112.99 147.92 114.06 149.06 114.06 151.01C114.06 152.95 113 154.11 111.55 154.11C110.46 154.11 110.03 153.44 109.81 153.06L109.74 153.06L109.74 156.25ZM94.71 153.01C95.37 153.01 96.12 152.53 96.12 151.5L96.12 148L97.29 148L97.29 154L96.14 154L96.14 152.96L96.08 152.96C95.8 153.6 95.19 154.07 94.29 154.07C93.13 154.07 92.32 153.3 92.32 151.81L92.32 148L93.49 148L93.49 151.67C93.49 152.49 93.99 153.01 94.71 153.01ZM111.29 148.91C110.27 148.91 109.72 149.74 109.72 151C109.72 152.26 110.28 153.12 111.29 153.12C112.33 153.12 112.88 152.2 112.88 151C112.88 149.8 112.35 148.91 111.29 148.91Z" fill="#FFFFFF" fill-opacity="1.000000" fill-rule="evenodd"/>
			<path id="Scan-x bot: Dump: -8.35 AGLDUSDT" d="M132.02 151.86C132.02 153.16 130.84 154.11 129.17 154.11C127.5 154.11 126.32 153.16 126.33 151.86C126.32 150.86 127.03 150.01 127.94 149.85L127.94 149.8C127.14 149.61 126.62 148.88 126.62 148.02C126.62 146.8 127.7 145.89 129.17 145.89C130.64 145.89 131.72 146.8 131.73 148.02C131.72 148.88 131.19 149.61 130.41 149.8L130.41 149.85C131.31 150.01 132.02 150.86 132.02 151.86ZM141.62 151.8C141.62 153.13 140.43 154.11 138.79 154.11C137.17 154.11 136.02 153.21 135.97 151.91L137.2 151.91C137.24 152.62 137.92 153.07 138.78 153.07C139.73 153.07 140.4 152.54 140.4 151.76C140.4 150.96 139.76 150.39 138.65 150.39L137.98 150.39L137.98 149.41L138.65 149.41C139.54 149.41 140.16 148.9 140.15 148.13C140.16 147.39 139.62 146.89 138.81 146.89C138.02 146.89 137.33 147.34 137.3 148.07L136.14 148.07C136.17 146.77 137.35 145.89 138.82 145.89C140.36 145.89 141.33 146.89 141.32 148.07C141.33 148.97 140.78 149.62 139.95 149.84L139.95 149.9C141.01 150.06 141.62 150.79 141.62 151.8ZM166.91 148.52L165.67 148.52C165.37 147.57 164.66 146.99 163.59 146.99C162.24 146.99 161.2 148.06 161.2 149.99C161.2 151.94 162.23 153 163.64 153C164.92 153 165.77 152.19 165.8 150.9L163.82 150.9L163.82 149.9L166.97 149.9L166.97 150.81C166.97 152.83 165.58 154.11 163.64 154.11C161.47 154.11 160 152.53 160 150C160 147.45 161.51 145.89 163.59 145.89C165.31 145.89 166.64 146.96 166.91 148.52ZM196.28 148.1L195.12 148.1C195.03 147.36 194.38 146.93 193.46 146.93C192.48 146.93 191.86 147.43 191.86 148.11C191.85 148.88 192.69 149.17 193.31 149.33L194.09 149.53C195.11 149.78 196.39 150.34 196.39 151.78C196.39 153.14 195.31 154.13 193.43 154.13C191.64 154.13 190.52 153.23 190.44 151.78L191.65 151.78C191.72 152.66 192.5 153.07 193.43 153.07C194.45 153.07 195.2 152.55 195.2 151.77C195.2 151.06 194.54 150.78 193.68 150.56L192.74 150.3C191.45 149.95 190.65 149.3 190.65 148.18C190.65 146.8 191.89 145.89 193.49 145.89C195.12 145.89 196.25 146.82 196.28 148.1ZM148.49 151.41C148.49 152.97 147.34 154.11 145.73 154.11C144.27 154.11 143.16 153.18 143.11 151.91L144.28 151.91C144.35 152.6 144.96 153.09 145.73 153.09C146.65 153.09 147.32 152.39 147.32 151.43C147.32 150.46 146.63 149.74 145.68 149.74C145.2 149.74 144.66 149.92 144.36 150.19L143.25 150.03L143.7 146L148.1 146L148.1 147.03L144.71 147.03L144.45 149.27L144.5 149.27C144.81 148.97 145.36 148.74 145.96 148.74C147.41 148.74 148.49 149.86 148.49 151.41ZM154.35 151.88L153.61 154L152.33 154L155.21 146L156.6 146L159.48 154L158.2 154L157.47 151.88L154.35 151.88ZM173.33 154L168.5 154L168.5 146L169.71 146L169.71 152.96L173.33 152.96L173.33 154ZM181.14 149.98C181.14 152.48 179.73 154 177.3 154L174.71 154L174.71 146L177.38 146C179.73 146 181.14 147.5 181.14 149.98ZM187.79 151.16L187.79 146L189 146L189 151.26C189 152.94 187.74 154.13 185.82 154.13C183.9 154.13 182.64 152.94 182.64 151.26L182.64 146L183.85 146L183.85 151.16C183.85 152.24 184.6 153.03 185.82 153.03C187.04 153.03 187.79 152.24 187.79 151.16ZM204.27 149.98C204.27 152.48 202.86 154 200.43 154L197.83 154L197.83 146L200.51 146C202.86 146 204.27 147.5 204.27 149.98ZM207.53 147.03L205.04 147.03L205.04 146L211.23 146L211.23 147.03L208.74 147.03L208.74 154L207.53 154L207.53 147.03ZM127.8 148.12C127.79 148.88 128.37 149.39 129.17 149.39C129.97 149.39 130.54 148.88 130.55 148.12C130.54 147.37 129.99 146.87 129.17 146.87C128.35 146.87 127.79 147.37 127.8 148.12ZM175.91 147.05L175.91 152.94L177.23 152.94C179.05 152.94 179.96 151.88 179.96 149.98C179.96 148.1 179.05 147.05 177.31 147.05L175.91 147.05ZM199.04 147.05L199.04 152.94L200.36 152.94C202.18 152.94 203.08 151.88 203.08 149.98C203.08 148.1 202.18 147.05 200.43 147.05L199.04 147.05ZM155.88 147.45L154.7 150.86L157.12 150.86L155.94 147.45L155.88 147.45ZM116.92 148.92C116.92 149.35 116.56 149.7 116.14 149.7C115.71 149.7 115.35 149.35 115.35 148.92C115.35 148.5 115.71 148.14 116.14 148.14C116.56 148.14 116.92 148.5 116.92 148.92ZM121.38 149.49L124.93 149.49L124.93 150.5L121.38 150.5L121.38 149.49ZM127.55 151.78C127.54 152.59 128.17 153.12 129.17 153.12C130.16 153.12 130.79 152.59 130.8 151.78C130.79 150.95 130.1 150.36 129.17 150.36C128.23 150.36 127.54 150.95 127.55 151.78ZM116.92 153.29C116.92 153.72 116.56 154.07 116.14 154.07C115.71 154.07 115.35 153.72 115.35 153.29C115.35 152.86 115.71 152.51 116.14 152.51C116.56 152.51 116.92 152.86 116.92 153.29ZM134.74 153.29C134.74 153.72 134.38 154.07 133.96 154.07C133.53 154.07 133.18 153.72 133.18 153.29C133.18 152.86 133.53 152.51 133.96 152.51C134.38 152.51 134.74 152.86 134.74 153.29Z" fill="#FFFFFF" fill-opacity="1.000000" fill-rule="evenodd"/>
			<path id="Dump(Новый сигнал)" d="M70.62 129.66C69.63 128.27 69.1 126.64 69.1 124.68C69.1 122.72 69.63 121.09 70.62 119.69L71.69 119.69C70.92 120.73 70.32 122.82 70.32 124.68C70.32 126.53 70.92 128.63 71.69 129.66L70.62 129.66ZM149.87 119.69C150.87 121.09 151.39 122.72 151.39 124.68C151.39 126.64 150.87 128.27 149.87 129.66L148.8 129.66C149.57 128.63 150.18 126.53 150.18 124.68C150.18 122.82 149.57 120.73 148.8 119.69L149.87 119.69ZM104.96 120.71C105.51 120.71 105.73 120.36 105.73 119.96L106.69 119.96C106.69 120.84 106.02 121.45 104.96 121.45C103.91 121.45 103.24 120.84 103.24 119.96L104.2 119.96C104.2 120.36 104.4 120.71 104.96 120.71ZM44.31 123.98C44.31 126.48 42.9 128 40.46 128L37.87 128L37.87 120L40.55 120C42.9 120 44.31 121.5 44.31 123.98ZM74.22 128L73.01 128L73.01 120L74.22 120L74.22 123.47L78.21 123.47L78.21 120L79.42 120L79.42 128L78.21 128L78.21 124.51L74.22 124.51L74.22 128ZM39.08 121.05L39.08 126.94L40.4 126.94C42.22 126.94 43.12 125.88 43.12 123.98C43.12 122.1 42.22 121.05 40.47 121.05L39.08 121.05ZM53.42 128L52.26 128L52.26 122L53.38 122L53.38 122.97L53.45 122.97C53.7 122.31 54.29 121.92 55.08 121.92C55.89 121.92 56.44 122.32 56.7 122.97L56.76 122.97C57.05 122.33 57.7 121.92 58.56 121.92C59.65 121.92 60.41 122.6 60.41 123.97L60.41 128L59.25 128L59.25 124.08C59.25 123.27 58.74 122.93 58.12 122.93C57.36 122.93 56.92 123.45 56.92 124.17L56.92 128L55.75 128L55.75 124.01C55.75 123.35 55.3 122.93 54.65 122.93C53.99 122.93 53.42 123.49 53.42 124.3L53.42 128ZM63.14 130.25L61.97 130.25L61.97 122L63.12 122L63.12 122.97L63.21 122.97C63.42 122.6 63.82 121.92 64.94 121.92C66.39 121.92 67.46 123.06 67.46 125.01C67.46 126.95 66.4 128.11 64.95 128.11C63.85 128.11 63.42 127.44 63.21 127.06L63.14 127.06L63.14 130.25ZM86.41 125.02C86.41 126.88 85.3 128.12 83.61 128.12C81.92 128.12 80.82 126.88 80.82 125.02C80.82 123.16 81.92 121.92 83.61 121.92C85.3 121.92 86.41 123.16 86.41 125.02ZM116.96 126.1C116.83 127.27 115.91 128.12 114.49 128.12C112.75 128.12 111.7 126.83 111.7 125.02C111.7 123.19 112.79 121.92 114.48 121.92C115.85 121.92 116.84 122.72 116.96 123.93L115.82 123.93C115.7 123.37 115.25 122.9 114.5 122.9C113.53 122.9 112.88 123.71 112.88 125C112.88 126.3 113.51 127.13 114.5 127.13C115.17 127.13 115.68 126.75 115.82 126.1L116.96 126.1ZM139.86 127.18C139.64 127.62 139.08 128.13 138.09 128.13C136.95 128.13 136.06 127.48 136.06 126.3C136.06 124.94 137.23 124.64 138.36 124.51C139.44 124.38 139.88 124.39 139.88 123.96L139.88 123.94C139.88 123.26 139.49 122.86 138.74 122.86C137.95 122.86 137.52 123.27 137.34 123.7L136.25 123.45C136.63 122.36 137.64 121.92 138.72 121.92C139.67 121.92 141.05 122.26 141.05 124.01L141.05 128L139.91 128L139.91 127.18L139.86 127.18ZM48.11 127.01C48.76 127.01 49.52 126.53 49.52 125.51L49.52 122L50.69 122L50.69 128L49.54 128L49.54 126.96L49.48 126.96C49.2 127.6 48.59 128.07 47.69 128.07C46.53 128.07 45.72 127.3 45.72 125.81L45.72 122L46.88 122L46.88 125.67C46.88 126.49 47.38 127.01 48.11 127.01ZM90.58 128L87.71 128L87.71 122L90.2 122C91.55 122 92.4 122.61 92.4 123.6C92.4 124.3 91.91 124.71 91.18 124.85C91.98 124.94 92.66 125.49 92.66 126.38C92.66 127.33 91.89 128 90.58 128ZM95.08 122L95.08 124.06L96.56 124.06C98.03 124.06 98.85 124.86 98.85 126.02C98.85 127.14 98.03 128 96.56 128L93.94 128L93.94 122L95.08 122ZM100.87 128L99.7 128L99.7 122L100.87 122L100.87 128ZM103.58 122L103.58 126.36L106.23 122L107.48 122L107.48 128L106.34 128L106.34 123.63L103.71 128L102.44 128L102.44 122L103.58 122ZM119.36 122L119.36 126.36L122 122L123.26 122L123.26 128L122.12 128L122.12 123.63L119.48 128L118.21 128L118.21 122L119.36 122ZM124.83 122L128.67 122L128.67 123L125.98 123L125.98 128L124.83 128L124.83 122ZM129.9 122L131.05 122L131.05 124.49L133.64 124.49L133.64 122L134.78 122L134.78 128L133.64 128L133.64 125.5L131.05 125.5L131.05 128L129.9 128L129.9 122ZM142.51 128L142.13 128L142.13 126.98L142.34 126.98C143.01 126.98 143.22 126.5 143.3 124.65L143.4 122L147.59 122L147.59 128L146.44 128L146.44 123L144.48 123L144.39 125.04C144.3 127.03 143.82 128 142.51 128ZM81.99 125.02C81.99 126.17 82.51 127.14 83.62 127.14C84.71 127.14 85.23 126.17 85.23 125.02C85.23 123.87 84.71 122.89 83.62 122.89C82.51 122.89 81.99 123.87 81.99 125.02ZM64.69 122.91C63.67 122.91 63.12 123.74 63.12 125C63.12 126.26 63.68 127.12 64.69 127.12C65.73 127.12 66.28 126.2 66.28 125C66.28 123.8 65.75 122.91 64.69 122.91ZM88.81 122.98L88.81 124.5L90.21 124.5C90.87 124.5 91.26 124.2 91.26 123.72C91.26 123.26 90.86 122.98 90.2 122.98L88.81 122.98ZM137.21 126.32C137.21 126.89 137.68 127.19 138.34 127.19C139.32 127.19 139.88 126.54 139.88 125.83L139.88 125.06C139.72 125.23 138.82 125.33 138.44 125.38C137.76 125.47 137.21 125.69 137.21 126.32ZM96.56 125.07L95.08 125.07L95.08 126.99L96.56 126.99C97.23 126.99 97.71 126.6 97.71 126.05C97.71 125.47 97.23 125.07 96.56 125.07ZM88.81 125.35L88.81 127.02L90.58 127.02C91.15 127.02 91.5 126.73 91.5 126.25C91.5 125.69 91.15 125.35 90.58 125.35L88.81 125.35Z" fill="#FFFFFF" fill-opacity="1.000000" fill-rule="evenodd"/>
			<path id="21:10" d="M252.03 128L246.77 128L246.77 127.12L249.47 124.32C250.33 123.41 250.75 122.9 250.75 122.19C250.75 121.39 250.14 120.89 249.32 120.89C248.46 120.89 247.9 121.46 247.91 122.32L246.76 122.32C246.76 120.85 247.85 119.89 249.35 119.89C250.85 119.89 251.9 120.87 251.9 122.15C251.9 123.05 251.48 123.76 250.02 125.24L248.43 126.9L248.43 126.96L252.03 126.96L252.03 128ZM272.74 124C272.74 126.62 271.66 128.13 269.81 128.13C267.96 128.12 266.87 126.62 266.87 124C266.88 121.39 267.97 119.89 269.81 119.89C271.64 119.89 272.74 121.4 272.74 124ZM255.37 120L256.55 120L256.55 128L255.34 128L255.34 121.21L255.29 121.21L253.38 122.46L253.38 121.3L255.37 120ZM263.68 120L264.86 120L264.86 128L263.65 128L263.65 121.21L263.6 121.21L261.69 122.46L261.69 121.3L263.68 120ZM268.07 124C268.07 126 268.73 127.09 269.81 127.09C270.89 127.09 271.54 126 271.54 124C271.54 122.01 270.88 120.91 269.81 120.91C268.73 120.91 268.08 122.01 268.07 124ZM260.28 122.21C260.28 122.65 259.92 123 259.5 123C259.07 123 258.71 122.65 258.71 122.21C258.71 121.79 259.07 121.44 259.5 121.44C259.92 121.44 260.28 121.79 260.28 122.21ZM260.28 126.22C260.28 126.66 259.92 127 259.5 127C259.07 127 258.71 126.66 258.71 126.22C258.71 125.8 259.07 125.44 259.5 125.44C259.92 125.44 260.28 125.8 260.28 126.22Z" fill="#91A3B5" fill-opacity="1.000000" fill-rule="evenodd"/>
		</g>
		<rect id="Frame 96" rx="14.500000" width="273.000000" height="79.000000" transform="translate(10.500000 182.500000)" fill="#1E1E1E" fill-opacity="1.000000"/>
		<g clip-path="url(#clip369_2288)">
			<path id="Scan-x bot: Новый ATH: $0.1913 TRXUSDT" d="M26.4 234.1L25.24 234.1C25.15 233.36 24.5 232.93 23.58 232.93C22.6 232.93 21.97 233.43 21.97 234.11C21.97 234.88 22.8 235.17 23.43 235.33L24.21 235.53C25.23 235.78 26.51 236.34 26.51 237.79C26.51 239.14 25.43 240.13 23.55 240.13C21.76 240.13 20.64 239.23 20.56 237.79L21.77 237.79C21.84 238.66 22.61 239.07 23.54 239.07C24.57 239.07 25.32 238.55 25.32 237.77C25.32 237.06 24.65 236.78 23.8 236.56L22.86 236.3C21.57 235.95 20.77 235.3 20.77 234.18C20.77 232.8 22 231.89 23.61 231.89C25.23 231.89 26.37 232.82 26.4 234.1ZM61.99 240L60.85 240L60.85 232L62.02 232L62.02 234.97L62.09 234.97C62.29 234.6 62.7 233.92 63.81 233.92C65.26 233.92 66.33 235.06 66.33 237.01C66.33 238.95 65.28 240.11 63.82 240.11C62.73 240.11 62.3 239.44 62.09 239.06L61.99 239.06L61.99 240ZM75.83 234L77.06 234L77.06 234.93L75.83 234.93L75.83 238.23C75.83 238.91 76.18 239.03 76.55 239.03C76.74 239.03 76.88 239 76.96 238.98L77.17 239.95C77.04 240 76.79 240.07 76.42 240.07C75.5 240.09 74.66 239.57 74.67 238.48L74.67 234.93L73.79 234.93L73.79 234L74.67 234L74.67 232.56L75.83 232.56L75.83 234ZM32.85 238.1C32.72 239.27 31.8 240.12 30.38 240.12C28.64 240.12 27.59 238.83 27.59 237.02C27.59 235.19 28.68 233.92 30.37 233.92C31.74 233.92 32.73 234.72 32.85 235.93L31.71 235.93C31.59 235.37 31.14 234.9 30.39 234.9C29.42 234.9 28.77 235.71 28.77 237C28.77 238.3 29.4 239.13 30.39 239.13C31.06 239.13 31.57 238.75 31.71 238.1L32.85 238.1ZM37.62 239.18C37.4 239.62 36.84 240.13 35.85 240.13C34.71 240.13 33.82 239.48 33.82 238.3C33.82 236.94 34.99 236.64 36.12 236.51C37.2 236.38 37.64 236.39 37.64 235.96L37.64 235.94C37.64 235.26 37.25 234.86 36.5 234.86C35.71 234.86 35.28 235.27 35.11 235.7L34.01 235.45C34.4 234.36 35.4 233.92 36.48 233.92C37.44 233.92 38.81 234.26 38.81 236.01L38.81 240L37.67 240L37.67 239.18L37.62 239.18ZM42.93 234.93C42.12 234.93 41.53 235.48 41.53 236.43L41.53 240L40.37 240L40.37 234L41.49 234L41.49 234.97L41.56 234.97C41.84 234.33 42.43 233.92 43.33 233.92C44.56 233.92 45.37 234.69 45.37 236.18L45.37 240L44.21 240L44.21 236.32C44.21 235.45 43.72 234.93 42.93 234.93ZM72.96 237.02C72.96 238.88 71.86 240.12 70.17 240.12C68.48 240.12 67.37 238.88 67.37 237.02C67.37 235.16 68.48 233.92 70.17 233.92C71.86 233.92 72.96 235.16 72.96 237.02ZM51.42 234L52.7 234L54.03 236.33L55.36 234L56.64 234L54.77 237L56.66 240L55.38 240L54.03 237.75L52.68 240L51.4 240L53.26 237L51.42 234ZM79.91 234.92C79.91 235.35 79.55 235.7 79.12 235.7C78.69 235.7 78.34 235.35 78.34 234.92C78.34 234.5 78.69 234.14 79.12 234.14C79.55 234.14 79.91 234.5 79.91 234.92ZM68.55 237.02C68.55 238.17 69.06 239.14 70.17 239.14C71.27 239.14 71.79 238.17 71.79 237.02C71.79 235.87 71.27 234.89 70.17 234.89C69.06 234.89 68.55 235.87 68.55 237.02ZM63.56 234.91C62.54 234.91 61.99 235.74 61.99 237C61.99 238.26 62.56 239.12 63.56 239.12C64.6 239.12 65.15 238.2 65.15 237C65.15 235.8 64.62 234.91 63.56 234.91ZM46.92 236.11L50.47 236.11L50.47 237.12L46.92 237.12L46.92 236.11ZM34.97 238.32C34.97 238.89 35.44 239.19 36.1 239.19C37.08 239.19 37.64 238.54 37.64 237.83L37.64 237.06C37.48 237.23 36.58 237.33 36.2 237.38C35.52 237.47 34.97 237.69 34.97 238.32ZM79.91 239.29C79.91 239.72 79.55 240.07 79.12 240.07C78.69 240.07 78.34 239.72 78.34 239.29C78.34 238.86 78.69 238.51 79.12 238.51C79.55 238.51 79.91 238.86 79.91 239.29Z" fill="#62ADFF" fill-opacity="1.000000" fill-rule="evenodd"/>
			<path id="Scan-x bot: Новый ATH: $0.1913 TRXUSDT" d="M154.62 240.99L153.98 240.99L153.98 240.12C152.37 240.02 151.38 239.15 151.3 237.79L152.51 237.79C152.58 238.56 153.19 238.97 153.98 239.05L153.98 236.4L153.6 236.3C152.32 235.95 151.52 235.3 151.52 234.18C151.52 232.91 152.56 232.04 153.98 231.9L153.98 231L154.62 231L154.62 231.89C156.1 231.99 157.11 232.89 157.15 234.1L155.98 234.1C155.91 233.44 155.38 233.03 154.62 232.95L154.62 235.45L154.96 235.53C155.97 235.78 157.26 236.34 157.26 237.79C157.26 239.06 156.3 240.01 154.62 240.12L154.62 240.99ZM172.62 234.59C172.62 233.08 173.72 231.87 175.4 231.89C176.83 231.9 178.32 232.78 178.32 235.71C178.32 238.51 177.16 240.11 175.3 240.11C173.87 240.11 172.87 239.19 172.69 237.9L173.89 237.9C174.04 238.58 174.53 239.05 175.3 239.05C176.47 239.05 177.16 237.98 177.17 236.14L177.1 236.14C176.7 236.81 175.97 237.22 175.12 237.22C173.73 237.22 172.63 236.12 172.62 234.59ZM164.31 236C164.31 238.62 163.22 240.13 161.38 240.13C159.52 240.12 158.44 238.62 158.44 236C158.45 233.39 159.54 231.89 161.38 231.89C163.21 231.89 164.31 233.4 164.31 236ZM190.55 237.8C190.55 239.13 189.35 240.11 187.72 240.11C186.1 240.11 184.94 239.21 184.89 237.91L186.12 237.91C186.17 238.62 186.84 239.07 187.71 239.07C188.65 239.07 189.33 238.54 189.33 237.76C189.33 236.96 188.69 236.39 187.58 236.39L186.9 236.39L186.9 235.41L187.58 235.41C188.46 235.41 189.09 234.9 189.08 234.13C189.09 233.39 188.55 232.89 187.73 232.89C186.95 232.89 186.26 233.34 186.23 234.07L185.06 234.07C185.1 232.77 186.28 231.89 187.75 231.89C189.29 231.89 190.25 232.89 190.25 234.07C190.25 234.97 189.71 235.62 188.87 235.84L188.87 235.9C189.94 236.06 190.55 236.79 190.55 237.8ZM230.26 234.1L229.1 234.1C229.02 233.36 228.36 232.93 227.44 232.93C226.46 232.93 225.84 233.43 225.84 234.11C225.84 234.88 226.67 235.17 227.29 235.33L228.07 235.53C229.09 235.78 230.37 236.34 230.37 237.79C230.37 239.14 229.29 240.13 227.41 240.13C225.62 240.13 224.5 239.23 224.42 237.79L225.63 237.79C225.7 238.66 226.48 239.07 227.41 239.07C228.43 239.07 229.18 238.55 229.18 237.77C229.18 237.06 228.52 236.78 227.66 236.56L226.72 236.3C225.43 235.95 224.63 235.3 224.63 234.18C224.63 232.8 225.87 231.89 227.47 231.89C229.1 231.89 230.23 232.82 230.26 234.1ZM116.42 232.71C116.97 232.71 117.19 232.36 117.19 231.96L118.15 231.96C118.15 232.84 117.48 233.45 116.42 233.45C115.37 233.45 114.7 232.84 114.7 231.96L115.66 231.96C115.66 232.36 115.87 232.71 116.42 232.71ZM85.68 240L84.47 240L84.47 232L85.68 232L85.68 235.47L89.67 235.47L89.67 232L90.88 232L90.88 240L89.67 240L89.67 236.51L85.68 236.51L85.68 240ZM124.93 237.88L124.2 240L122.92 240L125.8 232L127.19 232L130.07 240L128.79 240L128.06 237.88L124.93 237.88ZM132.37 233.03L129.87 233.03L129.87 232L136.07 232L136.07 233.03L133.57 233.03L133.57 240L132.37 240L132.37 233.03ZM138.64 240L137.43 240L137.43 232L138.64 232L138.64 235.47L142.62 235.47L142.62 232L143.84 232L143.84 240L142.62 240L142.62 236.51L138.64 236.51L138.64 240ZM169.4 232L170.58 232L170.58 240L169.37 240L169.37 233.21L169.32 233.21L167.41 234.46L167.41 233.3L169.4 232ZM181.59 232L182.77 232L182.77 240L181.56 240L181.56 233.21L181.51 233.21L179.6 234.46L179.6 233.3L181.59 232ZM197.14 233.03L194.65 233.03L194.65 232L200.84 232L200.84 233.03L198.34 233.03L198.34 240L197.14 240L197.14 233.03ZM203.41 240L202.2 240L202.2 232L205.05 232C206.91 232 207.82 233.03 207.82 234.5C207.82 235.58 207.34 236.39 206.35 236.76L208.13 240L206.75 240L205.13 236.97L203.41 236.97L203.41 240ZM208.74 232L210.14 232L212.05 235.12L212.11 235.12L214.03 232L215.42 232L212.93 236L215.44 240L214.04 240L212.11 236.91L212.05 236.91L210.13 240L208.72 240L211.27 236L208.74 232ZM221.77 237.16L221.77 232L222.98 232L222.98 237.26C222.98 238.94 221.72 240.13 219.8 240.13C217.88 240.13 216.62 238.94 216.62 237.26L216.62 232L217.83 232L217.83 237.16C217.83 238.24 218.58 239.03 219.8 239.03C221.02 239.03 221.77 238.24 221.77 237.16ZM238.25 235.98C238.25 238.48 236.84 240 234.41 240L231.82 240L231.82 232L234.49 232C236.84 232 238.25 233.5 238.25 235.98ZM241.51 233.03L239.02 233.03L239.02 232L245.21 232L245.21 233.03L242.72 233.03L242.72 240L241.51 240L241.51 233.03ZM177.02 234.57C177.02 233.69 176.33 232.9 175.41 232.9C174.49 232.9 173.8 233.65 173.8 234.58C173.8 235.5 174.46 236.24 175.38 236.24C176.3 236.24 177.02 235.46 177.02 234.57ZM159.64 236C159.64 238 160.29 239.09 161.38 239.09C162.45 239.09 163.1 238 163.1 236C163.1 234.01 162.45 232.91 161.38 232.91C160.3 232.91 159.64 234.01 159.64 236ZM152.72 234.11C152.72 234.8 153.39 235.11 153.98 235.28L153.98 232.95C153.2 233.06 152.72 233.52 152.72 234.11ZM203.41 233.03L203.41 235.93L204.94 235.93C206.12 235.93 206.61 235.41 206.61 234.5C206.61 233.6 206.12 233.03 204.92 233.03L203.41 233.03ZM233.02 233.05L233.02 238.94L234.34 238.94C236.16 238.94 237.07 237.88 237.07 235.98C237.07 234.1 236.16 233.05 234.41 233.05L233.02 233.05ZM147.05 234.21C147.05 234.65 146.69 235 146.27 235C145.84 235 145.49 234.65 145.49 234.21C145.49 233.79 145.84 233.44 146.27 233.44C146.69 233.44 147.05 233.79 147.05 234.21ZM126.47 233.45L125.28 236.86L127.71 236.86L126.53 233.45L126.47 233.45ZM97.87 237.02C97.87 238.88 96.76 240.12 95.07 240.12C93.38 240.12 92.28 238.88 92.28 237.02C92.28 235.16 93.38 233.92 95.07 233.92C96.76 233.92 97.87 235.16 97.87 237.02ZM102.04 240L99.17 240L99.17 234L101.66 234C103.01 234 103.86 234.61 103.86 235.6C103.86 236.3 103.37 236.71 102.64 236.85C103.44 236.94 104.12 237.49 104.12 238.38C104.12 239.33 103.35 240 102.04 240ZM106.54 234L106.54 236.06L108.02 236.06C109.49 236.06 110.31 236.86 110.31 238.02C110.31 239.14 109.49 240 108.02 240L105.4 240L105.4 234L106.54 234ZM112.33 240L111.16 240L111.16 234L112.33 234L112.33 240ZM115.04 234L115.04 238.36L117.69 234L118.95 234L118.95 240L117.8 240L117.8 235.63L115.17 240L113.9 240L113.9 234L115.04 234ZM93.46 237.02C93.46 238.17 93.97 239.14 95.08 239.14C96.18 239.14 96.69 238.17 96.69 237.02C96.69 235.87 96.18 234.89 95.08 234.89C93.97 234.89 93.46 235.87 93.46 237.02ZM100.27 234.98L100.27 236.5L101.67 236.5C102.33 236.5 102.73 236.2 102.73 235.72C102.73 235.26 102.32 234.98 101.66 234.98L100.27 234.98ZM154.62 236.57L154.62 239.05C155.47 238.95 156.06 238.47 156.06 237.77C156.06 237.08 155.44 236.8 154.62 236.57ZM108.02 237.07L106.54 237.07L106.54 238.99L108.02 238.99C108.69 238.99 109.17 238.6 109.17 238.05C109.17 237.47 108.69 237.07 108.02 237.07ZM100.27 237.35L100.27 239.02L102.04 239.02C102.62 239.02 102.96 238.73 102.96 238.25C102.96 237.69 102.62 237.35 102.04 237.35L100.27 237.35ZM147.05 238.22C147.05 238.66 146.69 239 146.27 239C145.84 239 145.49 238.66 145.49 238.22C145.49 237.8 145.84 237.44 146.27 237.44C146.69 237.44 147.05 237.8 147.05 238.22ZM166.96 239.29C166.96 239.72 166.61 240.07 166.18 240.07C165.75 240.07 165.4 239.72 165.4 239.29C165.4 238.86 165.75 238.51 166.18 238.51C166.61 238.51 166.96 238.86 166.96 239.29Z" fill="#FFFFFF" fill-opacity="1.000000" fill-rule="evenodd"/>
			<path id="ATH Price(Новый сигнал)" d="M75.35 206.37C75.35 206.76 75.01 207.07 74.61 207.07C74.21 207.07 73.87 206.76 73.87 206.37C73.87 205.99 74.21 205.68 74.61 205.68C75.01 205.68 75.35 205.99 75.35 206.37ZM91.32 215.66C90.33 214.27 89.81 212.64 89.81 210.68C89.81 208.72 90.33 207.09 91.32 205.69L92.39 205.69C91.62 206.73 91.02 208.82 91.02 210.68C91.02 212.53 91.62 214.63 92.39 215.66L91.32 215.66ZM170.58 205.69C171.57 207.09 172.09 208.72 172.09 210.68C172.09 212.64 171.57 214.27 170.58 215.66L169.51 215.66C170.28 214.63 170.88 212.53 170.88 210.68C170.88 208.82 170.28 206.73 169.51 205.69L170.58 205.69ZM125.66 206.71C126.21 206.71 126.43 206.36 126.43 205.96L127.39 205.96C127.39 206.84 126.72 207.45 125.66 207.45C124.61 207.45 123.94 206.84 123.94 205.96L124.9 205.96C124.9 206.36 125.11 206.71 125.66 206.71ZM39.28 211.88L38.55 214L37.27 214L40.15 206L41.54 206L44.42 214L43.14 214L42.41 211.88L39.28 211.88ZM46.72 207.03L44.22 207.03L44.22 206L50.42 206L50.42 207.03L47.92 207.03L47.92 214L46.72 214L46.72 207.03ZM52.99 214L51.78 214L51.78 206L52.99 206L52.99 209.47L56.98 209.47L56.98 206L58.19 206L58.19 214L56.98 214L56.98 210.51L52.99 210.51L52.99 214ZM64.07 214L62.86 214L62.86 206L65.71 206C67.57 206 68.48 207.11 68.48 208.58C68.48 210.06 67.56 211.18 65.71 211.18L64.07 211.18L64.07 214ZM94.93 214L93.72 214L93.72 206L94.93 206L94.93 209.47L98.91 209.47L98.91 206L100.13 206L100.13 214L98.91 214L98.91 210.51L94.93 210.51L94.93 214ZM64.07 207.03L64.07 210.16L65.6 210.16C66.78 210.16 67.26 209.49 67.26 208.58C67.26 207.68 66.78 207.03 65.58 207.03L64.07 207.03ZM40.82 207.45L39.63 210.86L42.06 210.86L40.88 207.45L40.82 207.45ZM70.96 214L69.79 214L69.79 208L70.93 208L70.93 208.95L70.99 208.95C71.2 208.3 71.81 207.9 72.51 207.9C72.66 207.9 72.89 207.92 73.01 207.93L73.01 209.05C72.91 209.02 72.64 208.98 72.4 208.98C71.57 208.98 70.96 209.55 70.96 210.33L70.96 214ZM81.75 212.1C81.62 213.27 80.7 214.12 79.29 214.12C77.55 214.12 76.49 212.83 76.49 211.02C76.49 209.19 77.58 207.92 79.28 207.92C80.64 207.92 81.63 208.72 81.75 209.93L80.62 209.93C80.49 209.37 80.04 208.9 79.29 208.9C78.32 208.9 77.67 209.71 77.67 211C77.67 212.3 78.31 213.13 79.29 213.13C79.96 213.13 80.47 212.75 80.62 212.1L81.75 212.1ZM88.09 212.49C87.83 213.47 86.9 214.12 85.59 214.12C83.82 214.12 82.74 212.9 82.74 211.03C82.74 209.19 83.84 207.92 85.51 207.92C86.87 207.92 88.17 208.76 88.17 210.93L88.17 211.35L83.9 211.35C83.93 212.5 84.6 213.15 85.61 213.15C86.27 213.15 86.78 212.86 86.99 212.3L88.09 212.49ZM107.11 211.02C107.11 212.88 106.01 214.12 104.31 214.12C102.63 214.12 101.52 212.88 101.52 211.02C101.52 209.16 102.63 207.92 104.31 207.92C106.01 207.92 107.11 209.16 107.11 211.02ZM137.66 212.1C137.53 213.27 136.62 214.12 135.2 214.12C133.46 214.12 132.4 212.83 132.4 211.02C132.4 209.19 133.49 207.92 135.19 207.92C136.55 207.92 137.54 208.72 137.66 209.93L136.53 209.93C136.4 209.37 135.95 208.9 135.21 208.9C134.23 208.9 133.58 209.71 133.58 211C133.58 212.3 134.22 213.13 135.21 213.13C135.87 213.13 136.38 212.75 136.53 212.1L137.66 212.1ZM160.57 213.18C160.34 213.62 159.78 214.13 158.79 214.13C157.65 214.13 156.77 213.48 156.77 212.3C156.77 210.94 157.93 210.64 159.06 210.51C160.14 210.38 160.58 210.39 160.58 209.96L160.58 209.94C160.58 209.26 160.2 208.86 159.44 208.86C158.66 208.86 158.22 209.27 158.05 209.7L156.95 209.45C157.34 208.36 158.34 207.92 159.42 207.92C160.38 207.92 161.75 208.26 161.75 210.01L161.75 214L160.61 214L160.61 213.18L160.57 213.18ZM75.19 214L74.02 214L74.02 208L75.19 208L75.19 214ZM111.28 214L108.41 214L108.41 208L110.9 208C112.25 208 113.1 208.61 113.1 209.6C113.1 210.3 112.62 210.71 111.88 210.85C112.68 210.94 113.36 211.49 113.36 212.38C113.36 213.33 112.59 214 111.28 214ZM115.79 208L115.79 210.06L117.26 210.06C118.73 210.06 119.55 210.86 119.55 212.02C119.55 213.14 118.73 214 117.26 214L114.64 214L114.64 208L115.79 208ZM121.57 214L120.4 214L120.4 208L121.57 208L121.57 214ZM124.29 208L124.29 212.36L126.93 208L128.19 208L128.19 214L127.04 214L127.04 209.63L124.41 214L123.14 214L123.14 208L124.29 208ZM140.06 208L140.06 212.36L142.71 208L143.97 208L143.97 214L142.82 214L142.82 209.63L140.19 214L138.92 214L138.92 208L140.06 208ZM145.53 208L149.37 208L149.37 209L146.69 209L146.69 214L145.53 214L145.53 208ZM150.6 208L151.75 208L151.75 210.49L154.35 210.49L154.35 208L155.49 208L155.49 214L154.35 214L154.35 211.5L151.75 211.5L151.75 214L150.6 214L150.6 208ZM163.21 214L162.83 214L162.83 212.98L163.05 212.98C163.72 212.98 163.92 212.5 164 210.65L164.1 208L168.29 208L168.29 214L167.15 214L167.15 209L165.19 209L165.09 211.04C165 213.03 164.52 214 163.21 214ZM85.52 208.88C84.57 208.88 83.95 209.62 83.91 210.47L87.02 210.47C87.02 209.55 86.42 208.88 85.52 208.88ZM102.7 211.02C102.7 212.17 103.21 213.14 104.32 213.14C105.42 213.14 105.93 212.17 105.93 211.02C105.93 209.87 105.42 208.89 104.32 208.89C103.21 208.89 102.7 209.87 102.7 211.02ZM109.51 208.98L109.51 210.5L110.91 210.5C111.57 210.5 111.97 210.2 111.97 209.72C111.97 209.26 111.57 208.98 110.9 208.98L109.51 208.98ZM157.91 212.32C157.91 212.89 158.39 213.19 159.05 213.19C160.02 213.19 160.58 212.54 160.58 211.83L160.58 211.06C160.42 211.23 159.52 211.33 159.14 211.38C158.46 211.47 157.91 211.69 157.91 212.32ZM117.26 211.07L115.79 211.07L115.79 212.99L117.26 212.99C117.93 212.99 118.41 212.6 118.41 212.05C118.41 211.47 117.93 211.07 117.26 211.07ZM109.51 211.35L109.51 213.02L111.28 213.02C111.86 213.02 112.21 212.73 112.21 212.25C112.21 211.69 111.86 211.35 111.28 211.35L109.51 211.35Z" fill="#FFFFFF" fill-opacity="1.000000" fill-rule="evenodd"/>
			<path id="21:10" d="M252.03 214L246.77 214L246.77 213.12L249.47 210.32C250.33 209.41 250.75 208.9 250.75 208.19C250.75 207.39 250.14 206.89 249.32 206.89C248.46 206.89 247.9 207.46 247.91 208.32L246.76 208.32C246.76 206.85 247.85 205.89 249.35 205.89C250.85 205.89 251.9 206.87 251.9 208.15C251.9 209.05 251.48 209.76 250.02 211.24L248.43 212.9L248.43 212.96L252.03 212.96L252.03 214ZM272.74 210C272.74 212.62 271.66 214.13 269.81 214.13C267.96 214.12 266.87 212.62 266.87 210C266.88 207.39 267.97 205.89 269.81 205.89C271.64 205.89 272.74 207.4 272.74 210ZM255.37 206L256.55 206L256.55 214L255.34 214L255.34 207.21L255.29 207.21L253.38 208.46L253.38 207.3L255.37 206ZM263.68 206L264.86 206L264.86 214L263.65 214L263.65 207.21L263.6 207.21L261.69 208.46L261.69 207.3L263.68 206ZM268.07 210C268.07 212 268.73 213.09 269.81 213.09C270.89 213.09 271.54 212 271.54 210C271.54 208.01 270.88 206.91 269.81 206.91C268.73 206.91 268.08 208.01 268.07 210ZM260.28 208.21C260.28 208.65 259.92 209 259.5 209C259.07 209 258.71 208.65 258.71 208.21C258.71 207.79 259.07 207.44 259.5 207.44C259.92 207.44 260.28 207.79 260.28 208.21ZM260.28 212.22C260.28 212.66 259.92 213 259.5 213C259.07 213 258.71 212.66 258.71 212.22C258.71 211.8 259.07 211.44 259.5 211.44C259.92 211.44 260.28 211.8 260.28 212.22Z" fill="#91A3B5" fill-opacity="1.000000" fill-rule="evenodd"/>
		</g>
		<rect id="Frame 97" rx="14.500000" width="273.000000" height="79.000000" transform="translate(10.500000 268.500000)" fill="#1E1E1E" fill-opacity="1.000000"/>
		<g clip-path="url(#clip369_2295)">
			<path id="Scan-x bot: Новый ATL: $0.2457 ADAUSDT" d="M26.4 320.1L25.24 320.1C25.15 319.36 24.5 318.93 23.58 318.93C22.6 318.93 21.97 319.43 21.97 320.11C21.97 320.88 22.8 321.17 23.43 321.33L24.21 321.53C25.23 321.78 26.51 322.34 26.51 323.79C26.51 325.14 25.43 326.13 23.55 326.13C21.76 326.13 20.64 325.23 20.56 323.79L21.77 323.79C21.84 324.66 22.61 325.07 23.54 325.07C24.57 325.07 25.32 324.55 25.32 323.77C25.32 323.06 24.65 322.78 23.8 322.56L22.86 322.3C21.57 321.95 20.77 321.29 20.77 320.18C20.77 318.8 22 317.89 23.61 317.89C25.23 317.89 26.37 318.82 26.4 320.1ZM61.99 326L60.85 326L60.85 318L62.02 318L62.02 320.97L62.09 320.97C62.29 320.6 62.7 319.92 63.81 319.92C65.26 319.92 66.33 321.06 66.33 323.01C66.33 324.95 65.28 326.11 63.82 326.11C62.73 326.11 62.3 325.44 62.09 325.06L61.99 325.06L61.99 326ZM75.83 320L77.06 320L77.06 320.93L75.83 320.93L75.83 324.23C75.83 324.91 76.18 325.03 76.55 325.03C76.74 325.03 76.88 325 76.96 324.98L77.17 325.95C77.04 326 76.79 326.07 76.42 326.07C75.5 326.09 74.66 325.57 74.67 324.48L74.67 320.93L73.79 320.93L73.79 320L74.67 320L74.67 318.56L75.83 318.56L75.83 320ZM32.85 324.1C32.72 325.26 31.8 326.12 30.38 326.12C28.64 326.12 27.59 324.83 27.59 323.02C27.59 321.19 28.68 319.92 30.37 319.92C31.74 319.92 32.73 320.72 32.85 321.93L31.71 321.93C31.59 321.37 31.14 320.9 30.39 320.9C29.42 320.9 28.77 321.71 28.77 323C28.77 324.3 29.4 325.13 30.39 325.13C31.06 325.13 31.57 324.75 31.71 324.1L32.85 324.1ZM37.62 325.18C37.4 325.62 36.84 326.13 35.85 326.13C34.71 326.13 33.82 325.48 33.82 324.3C33.82 322.94 34.99 322.64 36.12 322.51C37.2 322.38 37.64 322.39 37.64 321.96L37.64 321.94C37.64 321.26 37.25 320.86 36.5 320.86C35.71 320.86 35.28 321.27 35.11 321.7L34.01 321.45C34.4 320.35 35.4 319.92 36.48 319.92C37.44 319.92 38.81 320.26 38.81 322.01L38.81 326L37.67 326L37.67 325.18L37.62 325.18ZM42.93 320.93C42.12 320.93 41.53 321.48 41.53 322.43L41.53 326L40.37 326L40.37 320L41.49 320L41.49 320.97L41.56 320.97C41.84 320.33 42.43 319.92 43.33 319.92C44.56 319.92 45.37 320.69 45.37 322.18L45.37 326L44.21 326L44.21 322.32C44.21 321.45 43.72 320.93 42.93 320.93ZM72.96 323.02C72.96 324.88 71.86 326.12 70.17 326.12C68.48 326.12 67.37 324.88 67.37 323.02C67.37 321.16 68.48 319.92 70.17 319.92C71.86 319.92 72.96 321.16 72.96 323.02ZM51.42 320L52.7 320L54.03 322.33L55.36 320L56.64 320L54.77 323L56.66 326L55.38 326L54.03 323.75L52.68 326L51.4 326L53.26 323L51.42 320ZM79.91 320.92C79.91 321.35 79.55 321.7 79.12 321.7C78.69 321.7 78.34 321.35 78.34 320.92C78.34 320.5 78.69 320.14 79.12 320.14C79.55 320.14 79.91 320.5 79.91 320.92ZM68.55 323.02C68.55 324.17 69.06 325.14 70.17 325.14C71.27 325.14 71.79 324.17 71.79 323.02C71.79 321.87 71.27 320.89 70.17 320.89C69.06 320.89 68.55 321.87 68.55 323.02ZM63.56 320.91C62.54 320.91 61.99 321.74 61.99 323C61.99 324.26 62.56 325.12 63.56 325.12C64.6 325.12 65.15 324.2 65.15 323C65.15 321.8 64.62 320.91 63.56 320.91ZM46.92 322.11L50.47 322.11L50.47 323.12L46.92 323.12L46.92 322.11ZM34.97 324.32C34.97 324.89 35.44 325.19 36.1 325.19C37.08 325.19 37.64 324.54 37.64 323.83L37.64 323.06C37.48 323.23 36.58 323.33 36.2 323.38C35.52 323.47 34.97 323.69 34.97 324.32ZM79.91 325.29C79.91 325.72 79.55 326.07 79.12 326.07C78.69 326.07 78.34 325.72 78.34 325.29C78.34 324.86 78.69 324.51 79.12 324.51C79.55 324.51 79.91 324.86 79.91 325.29Z" fill="#62ADFF" fill-opacity="1.000000" fill-rule="evenodd"/>
			<path id="Scan-x bot: Новый ATL: $0.2457 ADAUSDT" d="M152.66 326.99L152.02 326.99L152.02 326.12C150.41 326.02 149.42 325.15 149.35 323.79L150.56 323.79C150.62 324.56 151.24 324.97 152.02 325.05L152.02 322.4L151.64 322.3C150.36 321.95 149.56 321.29 149.56 320.18C149.56 318.91 150.61 318.04 152.02 317.9L152.02 317L152.66 317L152.66 317.89C154.14 317.99 155.15 318.89 155.19 320.1L154.03 320.1C153.95 319.44 153.42 319.03 152.66 318.95L152.66 321.45L153 321.53C154.02 321.78 155.3 322.34 155.3 323.79C155.3 325.06 154.34 326.01 152.66 326.12L152.66 326.99ZM162.35 322C162.35 324.62 161.27 326.13 159.42 326.13C157.57 326.12 156.48 324.62 156.48 322C156.49 319.39 157.58 317.89 159.42 317.89C161.25 317.89 162.35 319.4 162.35 322ZM171.82 326L166.56 326L166.56 325.12L169.26 322.32C170.12 321.41 170.54 320.9 170.54 320.19C170.54 319.39 169.93 318.89 169.11 318.89C168.25 318.89 167.69 319.46 167.7 320.32L166.55 320.32C166.55 318.85 167.64 317.89 169.14 317.89C170.64 317.89 171.69 318.87 171.69 320.15C171.69 321.05 171.27 321.76 169.81 323.24L168.22 324.9L168.22 324.96L171.82 324.96L171.82 326ZM233.11 320.1L231.95 320.1C231.86 319.36 231.21 318.93 230.29 318.93C229.31 318.93 228.69 319.43 228.69 320.11C228.68 320.88 229.52 321.17 230.14 321.33L230.92 321.53C231.94 321.78 233.22 322.34 233.22 323.79C233.22 325.14 232.14 326.13 230.26 326.13C228.47 326.13 227.35 325.23 227.27 323.79L228.48 323.79C228.55 324.66 229.32 325.07 230.25 325.07C231.28 325.07 232.03 324.55 232.03 323.77C232.03 323.06 231.37 322.78 230.51 322.56L229.57 322.3C228.28 321.95 227.48 321.29 227.48 320.18C227.48 318.8 228.72 317.89 230.32 317.89C231.95 317.89 233.08 318.82 233.11 320.1ZM116.42 318.71C116.97 318.71 117.19 318.36 117.19 317.96L118.15 317.96C118.15 318.84 117.48 319.45 116.42 319.45C115.37 319.45 114.7 318.84 114.7 317.96L115.66 317.96C115.66 318.35 115.87 318.71 116.42 318.71ZM85.68 326L84.47 326L84.47 318L85.68 318L85.68 321.47L89.67 321.47L89.67 318L90.88 318L90.88 326L89.67 326L89.67 322.51L85.68 322.51L85.68 326ZM124.93 323.88L124.2 326L122.92 326L125.8 318L127.19 318L130.07 326L128.79 326L128.06 323.88L124.93 323.88ZM132.37 319.03L129.87 319.03L129.87 318L136.07 318L136.07 319.03L133.57 319.03L133.57 326L132.37 326L132.37 319.03ZM142.26 326L137.43 326L137.43 318L138.64 318L138.64 324.96L142.26 324.96L142.26 326ZM176.75 324.43L172.96 324.43L172.96 323.46L176.42 318L177.9 318L177.9 323.41L178.97 323.41L178.97 324.43L177.9 324.43L177.9 326L176.75 326L176.75 324.43ZM185.72 323.41C185.72 324.97 184.57 326.1 182.96 326.1C181.5 326.1 180.39 325.18 180.34 323.91L181.51 323.91C181.58 324.6 182.19 325.09 182.96 325.09C183.88 325.09 184.55 324.39 184.55 323.43C184.55 322.46 183.86 321.74 182.91 321.74C182.43 321.74 181.89 321.92 181.59 322.19L180.48 322.03L180.93 318L185.33 318L185.33 319.03L181.94 319.03L181.68 321.27L181.73 321.27C182.04 320.97 182.59 320.74 183.19 320.74C184.64 320.74 185.72 321.86 185.72 323.41ZM188.68 326L187.41 326L190.9 319.09L190.9 319.03L186.87 319.03L186.87 318L192.16 318L192.16 319.07L188.68 326ZM197.94 323.88L197.21 326L195.93 326L198.81 318L200.2 318L203.08 326L201.8 326L201.07 323.88L197.94 323.88ZM210.67 321.98C210.67 324.48 209.26 326 206.82 326L204.23 326L204.23 318L206.91 318C209.26 318 210.67 319.5 210.67 321.98ZM213.18 323.88L212.45 326L211.17 326L214.05 318L215.44 318L218.32 326L217.04 326L216.31 323.88L213.18 323.88ZM224.62 323.16L224.62 318L225.83 318L225.83 323.26C225.83 324.94 224.57 326.13 222.65 326.13C220.73 326.13 219.47 324.94 219.47 323.26L219.47 318L220.68 318L220.68 323.16C220.68 324.24 221.43 325.03 222.65 325.03C223.87 325.03 224.62 324.24 224.62 323.16ZM241.1 321.98C241.1 324.48 239.69 326 237.25 326L234.66 326L234.66 318L237.33 318C239.69 318 241.1 319.5 241.1 321.98ZM244.36 319.03L241.87 319.03L241.87 318L248.06 318L248.06 319.03L245.56 319.03L245.56 326L244.36 326L244.36 319.03ZM157.68 322C157.68 324 158.34 325.09 159.42 325.09C160.5 325.09 161.15 324 161.15 322C161.15 320.01 160.49 318.91 159.42 318.91C158.34 318.91 157.69 320.01 157.68 322ZM150.76 320.11C150.76 320.8 151.43 321.11 152.02 321.28L152.02 318.95C151.24 319.06 150.76 319.51 150.76 320.11ZM205.44 319.05L205.44 324.94L206.76 324.94C208.58 324.94 209.48 323.88 209.48 321.98C209.48 320.1 208.58 319.05 206.83 319.05L205.44 319.05ZM235.87 319.05L235.87 324.94L237.19 324.94C239.01 324.94 239.91 323.88 239.91 321.98C239.91 320.1 239.01 319.05 237.26 319.05L235.87 319.05ZM174.23 323.41L176.76 323.41L176.76 319.43L176.7 319.43L174.23 323.35L174.23 323.41ZM145.09 320.21C145.09 320.65 144.74 321 144.31 321C143.88 321 143.53 320.65 143.53 320.21C143.53 319.79 143.88 319.44 144.31 319.44C144.74 319.44 145.09 319.79 145.09 320.21ZM126.47 319.45L125.28 322.86L127.71 322.86L126.53 319.45L126.47 319.45ZM199.48 319.45L198.3 322.86L200.72 322.86L199.54 319.45L199.48 319.45ZM214.72 319.45L213.53 322.86L215.96 322.86L214.78 319.45L214.72 319.45ZM97.87 323.02C97.87 324.88 96.76 326.12 95.07 326.12C93.38 326.12 92.28 324.88 92.28 323.02C92.28 321.16 93.38 319.92 95.07 319.92C96.76 319.92 97.87 321.16 97.87 323.02ZM102.04 326L99.17 326L99.17 320L101.66 320C103.01 320 103.86 320.61 103.86 321.6C103.86 322.3 103.37 322.71 102.64 322.85C103.44 322.94 104.12 323.49 104.12 324.38C104.12 325.33 103.35 326 102.04 326ZM106.54 320L106.54 322.06L108.02 322.06C109.49 322.06 110.31 322.86 110.31 324.02C110.31 325.14 109.49 326 108.02 326L105.4 326L105.4 320L106.54 320ZM112.33 326L111.16 326L111.16 320L112.33 320L112.33 326ZM115.04 320L115.04 324.36L117.69 320L118.95 320L118.95 326L117.8 326L117.8 321.63L115.17 326L113.9 326L113.9 320L115.04 320ZM93.46 323.02C93.46 324.17 93.97 325.14 95.08 325.14C96.18 325.14 96.69 324.17 96.69 323.02C96.69 321.87 96.18 320.89 95.08 320.89C93.97 320.89 93.46 321.87 93.46 323.02ZM100.27 320.98L100.27 322.5L101.67 322.5C102.33 322.5 102.73 322.2 102.73 321.72C102.73 321.26 102.32 320.98 101.66 320.98L100.27 320.98ZM152.66 322.57L152.66 325.05C153.51 324.95 154.1 324.47 154.1 323.77C154.1 323.08 153.48 322.8 152.66 322.57ZM108.02 323.07L106.54 323.07L106.54 324.99L108.02 324.99C108.69 324.99 109.17 324.6 109.17 324.05C109.17 323.47 108.69 323.07 108.02 323.07ZM100.27 323.35L100.27 325.02L102.04 325.02C102.62 325.02 102.96 324.73 102.96 324.25C102.96 323.69 102.62 323.35 102.04 323.35L100.27 323.35ZM145.09 324.22C145.09 324.66 144.74 325 144.31 325C143.88 325 143.53 324.66 143.53 324.22C143.53 323.8 143.88 323.44 144.31 323.44C144.74 323.44 145.09 323.8 145.09 324.22ZM165.01 325.29C165.01 325.72 164.65 326.07 164.23 326.07C163.8 326.07 163.44 325.72 163.44 325.29C163.44 324.86 163.8 324.51 164.23 324.51C164.65 324.51 165.01 324.86 165.01 325.29Z" fill="#FFFFFF" fill-opacity="1.000000" fill-rule="evenodd"/>
			<path id="ATL(Новый сигнал)" d="M59.75 300.98C58.76 299.59 58.23 297.96 58.23 296C58.23 294.04 58.76 292.41 59.75 291.01L60.82 291.01C60.05 292.05 59.44 294.14 59.44 296C59.44 297.85 60.05 299.95 60.82 300.98L59.75 300.98ZM139 291.69C140 293.09 140.52 294.72 140.52 296.68C140.52 298.64 140 300.27 139 301.66L137.93 301.66C138.7 300.63 139.31 298.53 139.31 296.68C139.31 294.82 138.7 292.73 137.93 291.69L139 291.69ZM94.09 292.71C94.64 292.71 94.85 292.36 94.85 291.96L95.82 291.96C95.82 292.84 95.15 293.45 94.09 293.45C93.04 293.45 92.37 292.84 92.37 291.96L93.33 291.96C93.33 292.35 93.53 292.71 94.09 292.71ZM39.28 297.88L38.55 300L37.27 300L40.15 292L41.54 292L44.42 300L43.14 300L42.41 297.88L39.28 297.88ZM46.72 293.03L44.22 293.03L44.22 292L50.42 292L50.42 293.03L47.92 293.03L47.92 300L46.72 300L46.72 293.03ZM56.61 300L51.78 300L51.78 292L52.99 292L52.99 298.96L56.61 298.96L56.61 300ZM63.35 300L62.14 300L62.14 292L63.35 292L63.35 295.47L67.34 295.47L67.34 292L68.55 292L68.55 300L67.34 300L67.34 296.51L63.35 296.51L63.35 300ZM40.82 293.45L39.63 296.86L42.06 296.86L40.88 293.45L40.82 293.45ZM75.54 297.02C75.54 298.88 74.43 300.12 72.74 300.12C71.05 300.12 69.94 298.88 69.94 297.02C69.94 295.16 71.05 293.92 72.74 293.92C74.43 293.92 75.54 295.16 75.54 297.02ZM106.09 298.1C105.96 299.26 105.04 300.12 103.62 300.12C101.88 300.12 100.83 298.83 100.83 297.02C100.83 295.19 101.92 293.92 103.61 293.92C104.98 293.92 105.96 294.72 106.09 295.93L104.95 295.93C104.83 295.37 104.38 294.9 103.63 294.9C102.66 294.9 102.01 295.71 102.01 297C102.01 298.3 102.64 299.13 103.63 299.13C104.3 299.13 104.8 298.75 104.95 298.1L106.09 298.1ZM128.99 299.18C128.77 299.62 128.21 300.13 127.22 300.13C126.08 300.13 125.19 299.48 125.19 298.3C125.19 296.94 126.35 296.64 127.49 296.51C128.57 296.38 129.01 296.39 129.01 295.96L129.01 295.94C129.01 295.26 128.62 294.86 127.87 294.86C127.08 294.86 126.64 295.27 126.47 295.7L125.37 295.45C125.76 294.35 126.77 293.92 127.85 293.92C128.8 293.92 130.18 294.26 130.18 296.01L130.18 300L129.04 300L129.04 299.18L128.99 299.18ZM79.71 300L76.84 300L76.84 294L79.33 294C80.68 294 81.53 294.61 81.53 295.6C81.53 296.3 81.04 296.71 80.3 296.85C81.11 296.94 81.79 297.49 81.79 298.38C81.79 299.33 81.02 300 79.71 300ZM84.21 294L84.21 296.06L85.69 296.06C87.15 296.06 87.98 296.86 87.98 298.02C87.98 299.14 87.15 300 85.69 300L83.06 300L83.06 294L84.21 294ZM90 300L88.83 300L88.83 294L90 294L90 300ZM92.71 294L92.71 298.36L95.35 294L96.61 294L96.61 300L95.47 300L95.47 295.63L92.83 300L91.56 300L91.56 294L92.71 294ZM108.49 294L108.49 298.36L111.13 294L112.39 294L112.39 300L111.24 300L111.24 295.63L108.61 300L107.34 300L107.34 294L108.49 294ZM113.96 294L117.8 294L117.8 295L115.11 295L115.11 300L113.96 300L113.96 294ZM119.03 294L120.18 294L120.18 296.49L122.77 296.49L122.77 294L123.91 294L123.91 300L122.77 300L122.77 297.5L120.18 297.5L120.18 300L119.03 300L119.03 294ZM131.64 300L131.26 300L131.26 298.98L131.47 298.98C132.14 298.98 132.35 298.5 132.42 296.65L132.53 294L136.72 294L136.72 300L135.57 300L135.57 295L133.61 295L133.52 297.04C133.42 299.03 132.94 300 131.64 300ZM71.12 297.02C71.12 298.17 71.64 299.14 72.75 299.14C73.84 299.14 74.36 298.17 74.36 297.02C74.36 295.87 73.84 294.89 72.75 294.89C71.64 294.89 71.12 295.87 71.12 297.02ZM77.94 294.98L77.94 296.5L79.34 296.5C80 296.5 80.39 296.2 80.39 295.72C80.39 295.26 79.99 294.98 79.33 294.98L77.94 294.98ZM126.34 298.32C126.34 298.89 126.81 299.19 127.47 299.19C128.44 299.19 129.01 298.54 129.01 297.83L129.01 297.06C128.84 297.23 127.94 297.33 127.57 297.38C126.89 297.47 126.34 297.69 126.34 298.32ZM85.69 297.07L84.21 297.07L84.21 298.99L85.69 298.99C86.36 298.99 86.84 298.6 86.84 298.05C86.84 297.47 86.36 297.07 85.69 297.07ZM77.94 297.35L77.94 299.02L79.71 299.02C80.28 299.02 80.63 298.73 80.63 298.25C80.63 297.69 80.28 297.35 79.71 297.35L77.94 297.35Z" fill="#FFFFFF" fill-opacity="1.000000" fill-rule="evenodd"/>
			<path id="21:10" d="M252.03 300L246.77 300L246.77 299.12L249.47 296.32C250.33 295.41 250.75 294.9 250.75 294.19C250.75 293.39 250.14 292.89 249.32 292.89C248.46 292.89 247.9 293.46 247.91 294.32L246.76 294.32C246.76 292.85 247.85 291.89 249.35 291.89C250.85 291.89 251.9 292.87 251.9 294.15C251.9 295.05 251.48 295.76 250.02 297.24L248.43 298.9L248.43 298.96L252.03 298.96L252.03 300ZM272.74 296C272.74 298.62 271.66 300.13 269.81 300.13C267.96 300.12 266.87 298.62 266.87 296C266.88 293.39 267.97 291.89 269.81 291.89C271.64 291.89 272.74 293.4 272.74 296ZM255.37 292L256.55 292L256.55 300L255.34 300L255.34 293.21L255.29 293.21L253.38 294.46L253.38 293.3L255.37 292ZM263.68 292L264.86 292L264.86 300L263.65 300L263.65 293.21L263.6 293.21L261.69 294.46L261.69 293.3L263.68 292ZM268.07 296C268.07 298 268.73 299.09 269.81 299.09C270.89 299.09 271.54 298 271.54 296C271.54 294.01 270.88 292.91 269.81 292.91C268.73 292.91 268.08 294.01 268.07 296ZM260.28 294.21C260.28 294.65 259.92 295 259.5 295C259.07 295 258.71 294.65 258.71 294.21C258.71 293.79 259.07 293.44 259.5 293.44C259.92 293.44 260.28 293.79 260.28 294.21ZM260.28 298.22C260.28 298.66 259.92 299 259.5 299C259.07 299 258.71 298.66 258.71 298.22C258.71 297.8 259.07 297.44 259.5 297.44C259.92 297.44 260.28 297.8 260.28 298.22Z" fill="#91A3B5" fill-opacity="1.000000" fill-rule="evenodd"/>
		</g>
		<rect id="Frame 98" rx="14.500000" width="273.000000" height="79.000000" transform="translate(10.500000 354.500000)" fill="#1E1E1E" fill-opacity="1.000000"/>
		<g clip-path="url(#clip369_2302)">
			<path id="Scan-x bot: Стенка: $0.52, $921.5К STRKUSDT" d="M26.4 406.1L25.24 406.1C25.15 405.36 24.5 404.93 23.58 404.93C22.6 404.93 21.97 405.43 21.97 406.11C21.97 406.88 22.8 407.17 23.43 407.33L24.21 407.53C25.23 407.78 26.51 408.34 26.51 409.79C26.51 411.14 25.43 412.13 23.55 412.13C21.76 412.13 20.64 411.23 20.56 409.79L21.77 409.79C21.84 410.66 22.61 411.07 23.54 411.07C24.57 411.07 25.32 410.55 25.32 409.77C25.32 409.06 24.65 408.78 23.8 408.56L22.86 408.3C21.57 407.95 20.77 407.3 20.77 406.18C20.77 404.8 22 403.89 23.61 403.89C25.23 403.89 26.37 404.82 26.4 406.1ZM61.99 412L60.85 412L60.85 404L62.02 404L62.02 406.97L62.09 406.97C62.29 406.6 62.7 405.92 63.81 405.92C65.26 405.92 66.33 407.06 66.33 409.01C66.33 410.95 65.28 412.11 63.82 412.11C62.73 412.11 62.3 411.44 62.09 411.06L61.99 411.06L61.99 412ZM75.83 406L77.06 406L77.06 406.93L75.83 406.93L75.83 410.23C75.83 410.91 76.18 411.03 76.55 411.03C76.74 411.03 76.88 411 76.96 410.98L77.17 411.95C77.04 412 76.79 412.07 76.42 412.07C75.5 412.09 74.66 411.57 74.67 410.48L74.67 406.93L73.79 406.93L73.79 406L74.67 406L74.67 404.56L75.83 404.56L75.83 406ZM32.85 410.1C32.72 411.27 31.8 412.12 30.38 412.12C28.64 412.12 27.59 410.83 27.59 409.02C27.59 407.19 28.68 405.92 30.37 405.92C31.74 405.92 32.73 406.72 32.85 407.93L31.71 407.93C31.59 407.37 31.14 406.9 30.39 406.9C29.42 406.9 28.77 407.71 28.77 409C28.77 410.3 29.4 411.13 30.39 411.13C31.06 411.13 31.57 410.75 31.71 410.1L32.85 410.1ZM37.62 411.18C37.4 411.62 36.84 412.13 35.85 412.13C34.71 412.13 33.82 411.48 33.82 410.3C33.82 408.94 34.99 408.64 36.12 408.51C37.2 408.38 37.64 408.39 37.64 407.96L37.64 407.94C37.64 407.26 37.25 406.86 36.5 406.86C35.71 406.86 35.28 407.27 35.11 407.7L34.01 407.45C34.4 406.36 35.4 405.92 36.48 405.92C37.44 405.92 38.81 406.26 38.81 408.01L38.81 412L37.67 412L37.67 411.18L37.62 411.18ZM42.93 406.93C42.12 406.93 41.53 407.48 41.53 408.43L41.53 412L40.37 412L40.37 406L41.49 406L41.49 406.97L41.56 406.97C41.84 406.33 42.43 405.92 43.33 405.92C44.56 405.92 45.37 406.69 45.37 408.18L45.37 412L44.21 412L44.21 408.32C44.21 407.45 43.72 406.93 42.93 406.93ZM72.96 409.02C72.96 410.88 71.86 412.12 70.17 412.12C68.48 412.12 67.37 410.88 67.37 409.02C67.37 407.16 68.48 405.92 70.17 405.92C71.86 405.92 72.96 407.16 72.96 409.02ZM51.42 406L52.7 406L54.03 408.33L55.36 406L56.64 406L54.77 409L56.66 412L55.38 412L54.03 409.75L52.68 412L51.4 412L53.26 409L51.42 406ZM79.91 406.92C79.91 407.35 79.55 407.7 79.12 407.7C78.69 407.7 78.34 407.35 78.34 406.92C78.34 406.5 78.69 406.14 79.12 406.14C79.55 406.14 79.91 406.5 79.91 406.92ZM68.55 409.02C68.55 410.17 69.06 411.14 70.17 411.14C71.27 411.14 71.79 410.17 71.79 409.02C71.79 407.87 71.27 406.89 70.17 406.89C69.06 406.89 68.55 407.87 68.55 409.02ZM63.56 406.91C62.54 406.91 61.99 407.74 61.99 409C61.99 410.26 62.56 411.12 63.56 411.12C64.6 411.12 65.15 410.2 65.15 409C65.15 407.8 64.62 406.91 63.56 406.91ZM46.92 408.11L50.47 408.11L50.47 409.12L46.92 409.12L46.92 408.11ZM34.97 410.32C34.97 410.89 35.44 411.19 36.1 411.19C37.08 411.19 37.64 410.54 37.64 409.83L37.64 409.06C37.48 409.23 36.58 409.33 36.2 409.38C35.52 409.47 34.97 409.69 34.97 410.32ZM79.91 411.29C79.91 411.72 79.55 412.07 79.12 412.07C78.69 412.07 78.34 411.72 78.34 411.29C78.34 410.86 78.69 410.51 79.12 410.51C79.55 410.51 79.91 410.86 79.91 411.29Z" fill="#62ADFF" fill-opacity="1.000000" fill-rule="evenodd"/>
			<path id="Scan-x bot: Стенка: $0.52, $921.5К STRKUSDT" d="M132.52 412.99L131.88 412.99L131.88 412.12C130.27 412.02 129.28 411.15 129.21 409.79L130.42 409.79C130.48 410.56 131.1 410.97 131.88 411.05L131.88 408.4L131.5 408.3C130.22 407.95 129.42 407.3 129.42 406.18C129.42 404.91 130.46 404.04 131.88 403.9L131.88 403L132.52 403L132.52 403.89C134 403.99 135.01 404.89 135.05 406.1L133.89 406.1C133.81 405.44 133.28 405.03 132.52 404.95L132.52 407.45L132.86 407.53C133.88 407.78 135.16 408.34 135.16 409.79C135.16 411.06 134.2 412.01 132.52 412.12L132.52 412.99ZM168.92 412.99L168.28 412.99L168.28 412.12C166.67 412.02 165.67 411.15 165.6 409.79L166.81 409.79C166.88 410.56 167.49 410.97 168.28 411.05L168.28 408.4L167.9 408.3C166.61 407.95 165.81 407.3 165.81 406.18C165.81 404.91 166.86 404.04 168.28 403.9L168.28 403L168.92 403L168.92 403.89C170.4 403.99 171.41 404.89 171.44 406.1L170.28 406.1C170.2 405.44 169.68 405.03 168.92 404.95L168.92 407.45L169.25 407.53C170.27 407.78 171.55 408.34 171.55 409.79C171.55 411.06 170.6 412.01 168.92 412.12L168.92 412.99ZM172.77 406.59C172.77 405.08 173.87 403.87 175.55 403.89C176.97 403.9 178.47 404.78 178.47 407.71C178.47 410.51 177.31 412.11 175.44 412.11C174.02 412.11 173.02 411.19 172.84 409.9L174.03 409.9C174.19 410.58 174.68 411.05 175.44 411.05C176.62 411.05 177.31 409.98 177.31 408.14L177.25 408.14C176.84 408.81 176.11 409.22 175.26 409.22C173.88 409.22 172.77 408.12 172.77 406.59ZM87.82 403.89C89.51 403.89 90.85 404.89 91.12 406.6L89.9 406.6C89.7 405.56 88.85 404.99 87.83 404.99C86.45 404.99 85.42 406.06 85.42 408C85.42 409.95 86.45 411 87.82 411C88.84 411 89.7 410.44 89.9 409.42L91.12 409.42C90.86 411 89.57 412.11 87.82 412.11C85.74 412.11 84.22 410.55 84.22 408C84.22 405.44 85.75 403.89 87.82 403.89ZM142.21 408C142.21 410.62 141.13 412.13 139.28 412.13C137.42 412.12 136.34 410.62 136.34 408C136.35 405.39 137.44 403.89 139.28 403.89C141.11 403.89 142.21 405.4 142.21 408ZM158.37 412L153.11 412L153.11 411.12L155.82 408.32C156.68 407.41 157.1 406.9 157.1 406.19C157.1 405.39 156.48 404.89 155.67 404.89C154.8 404.89 154.25 405.46 154.25 406.32L153.1 406.32C153.1 404.85 154.19 403.89 155.69 403.89C157.2 403.89 158.24 404.87 158.24 406.15C158.24 407.05 157.83 407.76 156.36 409.24L154.77 410.9L154.77 410.96L158.37 410.96L158.37 412ZM185.14 412L179.88 412L179.88 411.12L182.59 408.32C183.45 407.41 183.87 406.9 183.87 406.19C183.87 405.39 183.25 404.89 182.44 404.89C181.57 404.89 181.02 405.46 181.02 406.32L179.87 406.32C179.87 404.85 180.96 403.89 182.46 403.89C183.97 403.89 185.01 404.87 185.01 406.15C185.01 407.05 184.6 407.76 183.13 409.24L181.54 410.9L181.54 410.96L185.14 410.96L185.14 412ZM217.06 406.1L215.9 406.1C215.82 405.36 215.16 404.93 214.24 404.93C213.26 404.93 212.64 405.43 212.64 406.11C212.64 406.88 213.47 407.17 214.09 407.33L214.87 407.53C215.89 407.78 217.17 408.34 217.17 409.79C217.17 411.14 216.09 412.13 214.22 412.13C212.42 412.13 211.3 411.23 211.22 409.79L212.43 409.79C212.5 410.66 213.28 411.07 214.21 411.07C215.23 411.07 215.98 410.55 215.98 409.77C215.98 409.06 215.32 408.78 214.46 408.56L213.52 408.3C212.23 407.95 211.44 407.3 211.44 406.18C211.44 404.8 212.67 403.89 214.27 403.89C215.9 403.89 217.03 404.82 217.06 406.1ZM253.82 406.1L252.66 406.1C252.57 405.36 251.92 404.93 251 404.93C250.02 404.93 249.39 405.43 249.39 406.11C249.39 406.88 250.22 407.17 250.85 407.33L251.63 407.53C252.64 407.78 253.93 408.34 253.93 409.79C253.93 411.14 252.85 412.13 250.97 412.13C249.18 412.13 248.06 411.23 247.97 409.79L249.19 409.79C249.26 410.66 250.03 411.07 250.96 411.07C251.99 411.07 252.73 410.55 252.73 409.77C252.73 409.06 252.07 408.78 251.22 408.56L250.27 408.3C248.99 407.95 248.19 407.3 248.19 406.18C248.19 404.8 249.42 403.89 251.03 403.89C252.65 403.89 253.78 404.82 253.82 406.1ZM151.68 409.41C151.69 410.97 150.54 412.11 148.93 412.11C147.46 412.11 146.35 411.18 146.31 409.91L147.48 409.91C147.54 410.6 148.16 411.09 148.93 411.09C149.85 411.09 150.51 410.39 150.51 409.43C150.51 408.46 149.83 407.74 148.88 407.74C148.39 407.74 147.86 407.92 147.55 408.19L146.45 408.03L146.9 404L151.3 404L151.3 405.03L147.9 405.03L147.65 407.27L147.69 407.27C148.01 406.97 148.56 406.74 149.15 406.74C150.61 406.74 151.69 407.86 151.68 409.41ZM188.48 404L189.66 404L189.66 412L188.45 412L188.45 405.21L188.4 405.21L186.49 406.46L186.49 405.3L188.48 404ZM199.75 409.41C199.76 410.97 198.61 412.11 197 412.11C195.53 412.11 194.42 411.18 194.38 409.91L195.55 409.91C195.61 410.6 196.23 411.09 197 411.09C197.92 411.09 198.58 410.39 198.58 409.43C198.58 408.46 197.9 407.74 196.95 407.74C196.47 407.74 195.93 407.92 195.62 408.19L194.52 408.03L194.97 404L199.37 404L199.37 405.03L195.97 405.03L195.72 407.27L195.76 407.27C196.08 406.97 196.63 406.74 197.22 406.74C198.68 406.74 199.76 407.86 199.75 409.41ZM207.51 412L206.04 412L203.35 408.41L202.5 408.41L202.5 412L201.29 412L201.29 404L202.5 404L202.5 407.37L202.89 407.37L205.91 404L207.39 404L204.19 407.58L207.51 412ZM220.71 405.03L218.22 405.03L218.22 404L224.41 404L224.41 405.03L221.92 405.03L221.92 412L220.71 412L220.71 405.03ZM226.98 412L225.78 412L225.78 404L228.63 404C230.48 404 231.4 405.03 231.4 406.5C231.4 407.58 230.91 408.39 229.93 408.76L231.7 412L230.33 412L228.7 408.97L226.98 408.97L226.98 412ZM234.08 412L232.87 412L232.87 404L234.08 404L234.08 407.82L234.17 407.82L237.53 404L239.05 404L235.82 407.6L239.06 412L237.61 412L235.02 408.42L234.08 409.51L234.08 412ZM245.32 409.16L245.32 404L246.54 404L246.54 409.26C246.54 410.94 245.27 412.13 243.36 412.13C241.44 412.13 240.18 410.94 240.18 409.26L240.18 404L241.39 404L241.39 409.16C241.39 410.24 242.14 411.03 243.36 411.03C244.57 411.03 245.32 410.24 245.32 409.16ZM261.81 407.98C261.81 410.48 260.4 412 257.96 412L255.37 412L255.37 404L258.04 404C260.4 404 261.81 405.5 261.81 407.98ZM265.07 405.03L262.58 405.03L262.58 404L268.77 404L268.77 405.03L266.27 405.03L266.27 412L265.07 412L265.07 405.03ZM177.16 406.57C177.16 405.69 176.48 404.9 175.55 404.9C174.63 404.9 173.94 405.65 173.94 406.58C173.95 407.5 174.61 408.24 175.53 408.24C176.44 408.24 177.16 407.46 177.16 406.57ZM137.54 408C137.54 410 138.2 411.09 139.28 411.09C140.35 411.09 141.01 410 141.01 408C141.01 406.01 140.35 404.91 139.28 404.91C138.2 404.91 137.55 406.01 137.54 408ZM130.62 406.11C130.62 406.8 131.29 407.11 131.88 407.28L131.88 404.95C131.1 405.06 130.62 405.52 130.62 406.11ZM167.02 406.11C167.02 406.8 167.69 407.11 168.28 407.28L168.28 404.95C167.5 405.06 167.02 405.52 167.02 406.11ZM226.98 405.03L226.98 407.93L228.52 407.93C229.69 407.93 230.18 407.41 230.18 406.5C230.18 405.6 229.69 405.03 228.5 405.03L226.98 405.03ZM256.58 405.05L256.58 410.94L257.89 410.94C259.72 410.94 260.62 409.88 260.62 407.98C260.62 406.1 259.72 405.05 257.97 405.05L256.58 405.05ZM103.24 410.49C102.97 411.47 102.05 412.12 100.74 412.12C98.97 412.12 97.88 410.9 97.88 409.03C97.88 407.19 98.98 405.92 100.66 405.92C102.02 405.92 103.31 406.76 103.31 408.93L103.31 409.35L99.04 409.35C99.08 410.5 99.75 411.15 100.75 411.15C101.41 411.15 101.92 410.86 102.13 410.3L103.24 410.49ZM120.66 411.18C120.44 411.62 119.88 412.13 118.89 412.13C117.75 412.13 116.86 411.48 116.86 410.3C116.86 408.94 118.02 408.64 119.16 408.51C120.24 408.38 120.68 408.39 120.68 407.96L120.68 407.94C120.68 407.26 120.29 406.86 119.53 406.86C118.75 406.86 118.31 407.27 118.14 407.7L117.04 407.45C117.43 406.36 118.43 405.92 119.52 405.92C120.47 405.92 121.85 406.26 121.85 408.01L121.85 412L120.71 412L120.71 411.18L120.66 411.18ZM94.1 407L92.13 407L92.13 406L97.2 406L97.2 407L95.24 407L95.24 412L94.1 412L94.1 407ZM104.61 406L105.76 406L105.76 408.49L108.36 408.49L108.36 406L109.5 406L109.5 412L108.36 412L108.36 409.5L105.76 409.5L105.76 412L104.61 412L104.61 406ZM112.22 412L111.05 412L111.05 406L112.22 406L112.22 408.51L112.79 408.51L114.76 406L116.21 406L113.89 408.91L116.24 412L114.79 412L112.98 409.6L112.22 409.6L112.22 412ZM124.95 406.92C124.95 407.35 124.6 407.7 124.17 407.7C123.74 407.7 123.39 407.35 123.39 406.92C123.39 406.5 123.74 406.14 124.17 406.14C124.6 406.14 124.95 406.5 124.95 406.92ZM100.66 406.88C99.71 406.88 99.1 407.62 99.05 408.47L102.17 408.47C102.16 407.55 101.57 406.88 100.66 406.88ZM132.52 408.57L132.52 411.05C133.37 410.95 133.96 410.47 133.96 409.77C133.96 409.08 133.34 408.8 132.52 408.57ZM168.92 408.57L168.92 411.05C169.77 410.95 170.36 410.47 170.36 409.77C170.36 409.08 169.74 408.8 168.92 408.57ZM118 410.32C118 410.89 118.48 411.19 119.14 411.19C120.11 411.19 120.68 410.54 120.68 409.83L120.68 409.06C120.51 409.23 119.61 409.33 119.23 409.38C118.56 409.47 118 409.69 118 410.32ZM124.95 411.29C124.95 411.72 124.6 412.07 124.17 412.07C123.74 412.07 123.39 411.72 123.39 411.29C123.39 410.86 123.74 410.51 124.17 410.51C124.6 410.51 124.95 410.86 124.95 411.29ZM144.87 411.29C144.87 411.72 144.51 412.07 144.09 412.07C143.66 412.07 143.3 411.72 143.3 411.29C143.3 410.86 143.66 410.51 144.09 410.51C144.51 410.51 144.87 410.86 144.87 411.29ZM192.94 411.29C192.94 411.72 192.58 412.07 192.16 412.07C191.73 412.07 191.37 411.72 191.37 411.29C191.37 410.86 191.73 410.51 192.16 410.51C192.58 410.51 192.94 410.86 192.94 411.29ZM160.26 410.9L161.39 410.9L161.33 411.33C161.21 412.26 160.8 413.44 160.61 413.95L159.78 413.95C159.89 413.46 160.14 412.4 160.23 411.34L160.26 410.9Z" fill="#FFFFFF" fill-opacity="1.000000" fill-rule="evenodd"/>
			<path id="OrderBook стенки(Новый сигнал)" d="M136.56 387.66C135.57 386.27 135.05 384.64 135.05 382.68C135.05 380.72 135.57 379.09 136.56 377.69L137.63 377.69C136.86 378.73 136.26 380.82 136.26 382.68C136.26 384.53 136.86 386.63 137.63 387.66L136.56 387.66ZM215.81 377.69C216.81 379.09 217.33 380.72 217.33 382.68C217.33 384.64 216.81 386.27 215.81 387.66L214.75 387.66C215.51 386.63 216.12 384.53 216.12 382.68C216.12 380.82 215.51 378.73 214.75 377.69L215.81 377.69ZM41.22 377.89C43.29 377.89 44.82 379.44 44.82 382C44.82 384.55 43.29 386.11 41.22 386.11C39.14 386.11 37.62 384.55 37.62 382C37.62 379.44 39.14 377.89 41.22 377.89ZM170.9 378.71C171.45 378.71 171.67 378.36 171.67 377.96L172.63 377.96C172.63 378.84 171.96 379.45 170.9 379.45C169.85 379.45 169.18 378.84 169.18 377.96L170.14 377.96C170.14 378.36 170.35 378.71 170.9 378.71ZM54.22 385.06C54.01 385.44 53.58 386.11 52.48 386.11C51.03 386.11 49.98 384.95 49.98 383.01C49.98 381.06 51.04 379.92 52.49 379.92C53.61 379.92 54.01 380.6 54.22 380.97L54.29 380.97L54.29 378L55.46 378L55.46 386L54.32 386L54.32 385.06L54.22 385.06ZM70.97 386L67.9 386L67.9 378L70.83 378C72.53 378 73.35 378.91 73.35 380.1C73.35 381.1 72.74 381.6 72.01 381.78L72.01 381.86C72.8 381.91 73.67 382.6 73.67 383.84C73.67 385.07 72.83 386 70.97 386ZM89.42 386L88.25 386L88.25 378L89.42 378L89.42 382.53L89.52 382.53L91.91 380L93.31 380L90.88 382.57L93.48 386L92.04 386L90 383.29L89.42 383.87L89.42 386ZM140.16 386L138.96 386L138.96 378L140.16 378L140.16 381.47L144.15 381.47L144.15 378L145.36 378L145.36 386L144.15 386L144.15 382.51L140.16 382.51L140.16 386ZM41.22 385C42.6 385 43.63 383.94 43.63 382C43.63 380.05 42.6 378.99 41.22 378.99C39.84 378.99 38.82 380.05 38.82 382C38.82 383.94 39.84 385 41.22 385ZM69.11 379.02L69.11 381.46L70.73 381.46C71.54 381.46 72.17 380.97 72.17 380.19C72.17 379.53 71.71 379.02 70.76 379.02L69.11 379.02ZM47.4 386L46.23 386L46.23 380L47.36 380L47.36 380.95L47.42 380.95C47.64 380.3 48.24 379.9 48.94 379.9C49.09 379.9 49.32 379.92 49.44 379.93L49.44 381.05C49.35 381.02 49.07 380.98 48.83 380.98C48 380.98 47.4 381.55 47.4 382.33L47.4 386ZM64.75 386L63.58 386L63.58 380L64.71 380L64.71 380.95L64.77 380.95C64.99 380.3 65.59 379.9 66.3 379.9C66.45 379.9 66.67 379.92 66.79 379.93L66.79 381.05C66.7 381.02 66.42 380.98 66.18 380.98C65.36 380.98 64.75 381.55 64.75 382.33L64.75 386ZM62.21 384.49C61.94 385.47 61.02 386.12 59.71 386.12C57.94 386.12 56.85 384.9 56.85 383.03C56.85 381.19 57.95 379.92 59.62 379.92C60.98 379.92 62.28 380.76 62.28 382.93L62.28 383.35L58.01 383.35C58.05 384.5 58.72 385.15 59.72 385.15C60.38 385.15 60.89 384.86 61.1 384.3L62.21 384.49ZM80.33 383.02C80.33 384.88 79.22 386.12 77.53 386.12C75.84 386.12 74.73 384.88 74.73 383.02C74.73 381.16 75.84 379.92 77.53 379.92C79.22 379.92 80.33 381.16 80.33 383.02ZM86.95 383.02C86.95 384.88 85.85 386.12 84.15 386.12C82.46 386.12 81.36 384.88 81.36 383.02C81.36 381.16 82.46 379.92 84.15 379.92C85.85 379.92 86.95 381.16 86.95 383.02ZM102.28 384.1C102.15 385.27 101.23 386.12 99.81 386.12C98.07 386.12 97.02 384.83 97.02 383.02C97.02 381.19 98.11 379.92 99.8 379.92C101.17 379.92 102.16 380.72 102.28 381.93L101.14 381.93C101.02 381.37 100.57 380.9 99.82 380.9C98.85 380.9 98.2 381.71 98.2 383C98.2 384.3 98.83 385.13 99.82 385.13C100.49 385.13 101 384.75 101.14 384.1L102.28 384.1ZM114.19 384.49C113.92 385.47 113 386.12 111.69 386.12C109.92 386.12 108.83 384.9 108.83 383.03C108.83 381.19 109.93 379.92 111.61 379.92C112.96 379.92 114.26 380.76 114.26 382.93L114.26 383.35L109.99 383.35C110.03 384.5 110.7 385.15 111.7 385.15C112.36 385.15 112.87 384.86 113.08 384.3L114.19 384.49ZM152.35 383.02C152.35 384.88 151.24 386.12 149.55 386.12C147.86 386.12 146.76 384.88 146.76 383.02C146.76 381.16 147.86 379.92 149.55 379.92C151.24 379.92 152.35 381.16 152.35 383.02ZM182.9 384.1C182.77 385.27 181.85 386.12 180.44 386.12C178.7 386.12 177.64 384.83 177.64 383.02C177.64 381.19 178.73 379.92 180.42 379.92C181.79 379.92 182.78 380.72 182.9 381.93L181.77 381.93C181.64 381.37 181.19 380.9 180.44 380.9C179.47 380.9 178.82 381.71 178.82 383C178.82 384.3 179.46 385.13 180.44 385.13C181.11 385.13 181.62 384.75 181.77 384.1L182.9 384.1ZM205.8 385.18C205.58 385.62 205.02 386.13 204.03 386.13C202.89 386.13 202 385.48 202 384.3C202 382.94 203.17 382.64 204.3 382.51C205.38 382.38 205.82 382.39 205.82 381.96L205.82 381.94C205.82 381.26 205.43 380.86 204.68 380.86C203.89 380.86 203.46 381.27 203.29 381.7L202.19 381.45C202.58 380.36 203.58 379.92 204.66 379.92C205.62 379.92 206.99 380.26 206.99 382.01L206.99 386L205.85 386L205.85 385.18L205.8 385.18ZM105.05 381L103.08 381L103.08 380L108.15 380L108.15 381L106.19 381L106.19 386L105.05 386L105.05 381ZM115.56 380L116.71 380L116.71 382.49L119.3 382.49L119.3 380L120.45 380L120.45 386L119.3 386L119.3 383.5L116.71 383.5L116.71 386L115.56 386L115.56 380ZM123.17 386L122 386L122 380L123.17 380L123.17 382.51L123.73 382.51L125.71 380L127.16 380L124.84 382.91L127.19 386L125.74 386L123.93 383.6L123.17 383.6L123.17 386ZM129.24 380L129.24 384.36L131.88 380L133.14 380L133.14 386L131.99 386L131.99 381.63L129.36 386L128.09 386L128.09 380L129.24 380ZM156.52 386L153.65 386L153.65 380L156.14 380C157.49 380 158.34 380.61 158.34 381.6C158.34 382.3 157.85 382.71 157.12 382.85C157.92 382.94 158.6 383.49 158.6 384.38C158.6 385.33 157.83 386 156.52 386ZM161.02 380L161.02 382.06L162.5 382.06C163.97 382.06 164.79 382.86 164.79 384.02C164.79 385.14 163.97 386 162.5 386L159.88 386L159.88 380L161.02 380ZM166.81 386L165.64 386L165.64 380L166.81 380L166.81 386ZM169.52 380L169.52 384.36L172.17 380L173.43 380L173.43 386L172.28 386L172.28 381.63L169.65 386L168.38 386L168.38 380L169.52 380ZM185.3 380L185.3 384.36L187.94 380L189.2 380L189.2 386L188.06 386L188.06 381.63L185.42 386L184.15 386L184.15 380L185.3 380ZM190.77 380L194.61 380L194.61 381L191.92 381L191.92 386L190.77 386L190.77 380ZM195.84 380L196.99 380L196.99 382.49L199.59 382.49L199.59 380L200.73 380L200.73 386L199.59 386L199.59 383.5L196.99 383.5L196.99 386L195.84 386L195.84 380ZM208.45 386L208.07 386L208.07 384.98L208.28 384.98C208.95 384.98 209.16 384.5 209.24 382.65L209.34 380L213.53 380L213.53 386L212.39 386L212.39 381L210.43 381L210.33 383.04C210.24 385.03 209.76 386 208.45 386ZM59.63 380.88C58.68 380.88 58.06 381.62 58.02 382.47L61.14 382.47C61.13 381.55 60.54 380.88 59.63 380.88ZM111.61 380.88C110.66 380.88 110.05 381.62 110 382.47L113.12 382.47C113.11 381.55 112.52 380.88 111.61 380.88ZM75.91 383.02C75.91 384.17 76.43 385.14 77.53 385.14C78.63 385.14 79.15 384.17 79.15 383.02C79.15 381.87 78.63 380.89 77.53 380.89C76.43 380.89 75.91 381.87 75.91 383.02ZM82.54 383.02C82.54 384.17 83.05 385.14 84.16 385.14C85.26 385.14 85.77 384.17 85.77 383.02C85.77 381.87 85.26 380.89 84.16 380.89C83.05 380.89 82.54 381.87 82.54 383.02ZM147.94 383.02C147.94 384.17 148.45 385.14 149.56 385.14C150.66 385.14 151.17 384.17 151.17 383.02C151.17 381.87 150.66 380.89 149.56 380.89C148.45 380.89 147.94 381.87 147.94 383.02ZM51.15 383C51.15 384.2 51.7 385.12 52.74 385.12C53.75 385.12 54.31 384.26 54.31 383C54.31 381.74 53.76 380.91 52.74 380.91C51.69 380.91 51.15 381.8 51.15 383ZM154.75 380.98L154.75 382.5L156.15 382.5C156.81 382.5 157.21 382.2 157.21 381.72C157.21 381.26 156.8 380.98 156.14 380.98L154.75 380.98ZM69.11 382.4L69.11 384.96L70.85 384.96C72.01 384.96 72.47 384.46 72.47 383.79C72.47 383.02 71.86 382.4 70.89 382.4L69.11 382.4ZM203.15 384.32C203.15 384.89 203.62 385.19 204.28 385.19C205.26 385.19 205.82 384.54 205.82 383.83L205.82 383.06C205.66 383.23 204.76 383.33 204.38 383.38C203.7 383.47 203.15 383.69 203.15 384.32ZM162.5 383.07L161.02 383.07L161.02 384.99L162.5 384.99C163.17 384.99 163.65 384.6 163.65 384.05C163.65 383.47 163.17 383.07 162.5 383.07ZM154.75 383.35L154.75 385.02L156.52 385.02C157.1 385.02 157.45 384.73 157.45 384.25C157.45 383.69 157.1 383.35 156.52 383.35L154.75 383.35Z" fill="#FFFFFF" fill-opacity="1.000000" fill-rule="evenodd"/>
			<path id="21:10" d="M252.03 386L246.77 386L246.77 385.12L249.47 382.32C250.33 381.41 250.75 380.9 250.75 380.19C250.75 379.39 250.14 378.89 249.32 378.89C248.46 378.89 247.9 379.46 247.91 380.32L246.76 380.32C246.76 378.85 247.85 377.89 249.35 377.89C250.85 377.89 251.9 378.87 251.9 380.15C251.9 381.05 251.48 381.76 250.02 383.24L248.43 384.9L248.43 384.96L252.03 384.96L252.03 386ZM272.74 382C272.74 384.62 271.66 386.13 269.81 386.13C267.96 386.12 266.87 384.62 266.87 382C266.88 379.39 267.97 377.89 269.81 377.89C271.64 377.89 272.74 379.4 272.74 382ZM255.37 378L256.55 378L256.55 386L255.34 386L255.34 379.21L255.29 379.21L253.38 380.46L253.38 379.3L255.37 378ZM263.68 378L264.86 378L264.86 386L263.65 386L263.65 379.21L263.6 379.21L261.69 380.46L261.69 379.3L263.68 378ZM268.07 382C268.07 384 268.73 385.09 269.81 385.09C270.89 385.09 271.54 384 271.54 382C271.54 380.01 270.88 378.91 269.81 378.91C268.73 378.91 268.08 380.01 268.07 382ZM260.28 380.21C260.28 380.65 259.92 381 259.5 381C259.07 381 258.71 380.65 258.71 380.21C258.71 379.79 259.07 379.44 259.5 379.44C259.92 379.44 260.28 379.79 260.28 380.21ZM260.28 384.22C260.28 384.66 259.92 385 259.5 385C259.07 385 258.71 384.66 258.71 384.22C258.71 383.8 259.07 383.44 259.5 383.44C259.92 383.44 260.28 383.8 260.28 384.22Z" fill="#91A3B5" fill-opacity="1.000000" fill-rule="evenodd"/>
		</g>
	</g>
</svg>
