<svg width="294.000000" height="358.000000" viewBox="0 0 294 358" fill="none" xmlns="http://www.w3.org/2000/svg" xmlns:xlink="http://www.w3.org/1999/xlink">
	<desc>
			Created with Pixso.
	</desc>
	<defs>
		<clipPath id="clip369_2315">
			<rect id="Frame 94" rx="14.500000" width="273.000000" height="337.000000" transform="translate(10.500000 10.500000)" fill="white" fill-opacity="0"/>
		</clipPath>
		<clipPath id="clip369_2314">
			<rect id="Frame 93" rx="14.500000" width="293.000000" height="357.000000" transform="translate(0.500000 0.500000)" fill="white" fill-opacity="0"/>
		</clipPath>
	</defs>
	<rect id="Frame 93" rx="14.500000" width="293.000000" height="357.000000" transform="translate(0.500000 0.500000)" fill="#9EFF3C" fill-opacity="1.000000"/>
	<g clip-path="url(#clip369_2314)">
		<rect id="Frame 94" rx="14.500000" width="273.000000" height="337.000000" transform="translate(10.500000 10.500000)" fill="#1E1E1E" fill-opacity="1.000000"/>
		<g clip-path="url(#clip369_2315)">
			<path id="SLERFUSDT - Binance future" d="M26.4 62.1L25.24 62.1C25.15 61.36 24.5 60.93 23.58 60.93C22.6 60.93 21.97 61.43 21.97 62.11C21.97 62.88 22.8 63.17 23.43 63.33L24.21 63.53C25.23 63.78 26.51 64.34 26.51 65.78C26.51 67.14 25.43 68.13 23.55 68.13C21.76 68.13 20.64 67.23 20.56 65.78L21.77 65.78C21.84 66.65 22.61 67.07 23.54 67.07C24.57 67.07 25.32 66.55 25.32 65.77C25.32 65.06 24.65 64.78 23.8 64.55L22.86 64.3C21.57 63.95 20.77 63.3 20.77 62.18C20.77 60.8 22 59.88 23.61 59.88C25.23 59.88 26.37 60.82 26.4 62.1ZM67.97 62.1L66.81 62.1C66.72 61.36 66.07 60.93 65.15 60.93C64.17 60.93 63.54 61.43 63.54 62.11C63.54 62.88 64.37 63.17 65 63.33L65.78 63.53C66.8 63.78 68.08 64.34 68.08 65.78C68.08 67.14 67 68.13 65.12 68.13C63.33 68.13 62.21 67.23 62.13 65.78L63.34 65.78C63.41 66.65 64.18 67.07 65.11 67.07C66.14 67.07 66.89 66.55 66.89 65.77C66.89 65.06 66.22 64.78 65.37 64.55L64.43 64.3C63.14 63.95 62.34 63.3 62.34 62.18C62.34 60.8 63.57 59.88 65.18 59.88C66.8 59.88 67.94 60.82 67.97 62.1ZM32.79 68L27.95 68L27.95 59.99L29.16 59.99L29.16 66.96L32.79 66.96L32.79 68ZM39.22 68L34.16 68L34.16 59.99L39.17 59.99L39.17 61.03L35.37 61.03L35.37 63.47L38.91 63.47L38.91 64.51L35.37 64.51L35.37 66.96L39.22 66.96L39.22 68ZM42 68L40.79 68L40.79 59.99L43.64 59.99C45.5 59.99 46.41 61.03 46.41 62.5C46.41 63.58 45.93 64.39 44.94 64.76L46.72 68L45.34 68L43.72 64.97L42 64.97L42 68ZM49.09 68L47.88 68L47.88 59.99L52.85 59.99L52.85 61.03L49.09 61.03L49.09 63.47L52.49 63.47L52.49 64.51L49.09 64.51L49.09 68ZM59.48 65.16L59.48 59.99L60.69 59.99L60.69 65.26C60.69 66.94 59.42 68.13 57.51 68.13C55.59 68.13 54.33 66.94 54.33 65.26L54.33 59.99L55.54 59.99L55.54 65.16C55.54 66.24 56.29 67.03 57.51 67.03C58.73 67.03 59.48 66.24 59.48 65.16ZM75.96 63.98C75.96 66.48 74.55 68 72.11 68L69.52 68L69.52 59.99L72.19 59.99C74.55 59.99 75.96 61.5 75.96 63.98ZM79.22 61.03L76.73 61.03L76.73 59.99L82.92 59.99L82.92 61.03L80.42 61.03L80.42 68L79.22 68L79.22 61.03ZM42 61.03L42 63.93L43.53 63.93C44.71 63.93 45.2 63.41 45.2 62.5C45.2 61.6 44.71 61.03 43.51 61.03L42 61.03ZM70.73 61.05L70.73 66.94L72.05 66.94C73.87 66.94 74.77 65.88 74.77 63.98C74.77 62.1 73.87 61.05 72.12 61.05L70.73 61.05Z" fill="#62ADFF" fill-opacity="1.000000" fill-rule="evenodd"/>
			<path id="SLERFUSDT - Binance future" d="M141.63 62L142.93 62L142.93 62.93L141.63 62.93L141.63 68L140.46 68L140.46 62.93L139.53 62.93L139.53 62L140.46 62L140.46 61.3C140.46 60.17 141.29 59.62 142.24 59.62C142.71 59.62 143.06 59.72 143.22 59.78L142.94 60.73C142.83 60.69 142.66 60.64 142.42 60.64C141.85 60.64 141.63 60.92 141.63 61.46L141.63 62ZM103.64 60.37C103.64 60.76 103.3 61.07 102.9 61.07C102.49 61.07 102.16 60.76 102.16 60.37C102.16 59.99 102.49 59.68 102.9 59.68C103.3 59.68 103.64 59.99 103.64 60.37ZM98.27 68L95.21 68L95.21 59.99L98.14 59.99C99.84 59.99 100.66 60.91 100.66 62.1C100.66 63.1 100.05 63.6 99.31 63.78L99.31 63.86C100.1 63.9 100.97 64.6 100.97 65.84C100.97 67.07 100.13 68 98.27 68ZM152.24 62L153.47 62L153.47 62.93L152.24 62.93L152.24 66.23C152.24 66.91 152.58 67.03 152.96 67.03C153.14 67.03 153.29 67 153.37 66.98L153.58 67.95C153.44 68 153.19 68.07 152.82 68.07C151.9 68.09 151.07 67.57 151.07 66.48L151.07 62.93L150.19 62.93L150.19 62L151.07 62L151.07 60.56L152.24 60.56L152.24 62ZM96.41 61.02L96.41 63.46L98.03 63.46C98.84 63.46 99.48 62.97 99.48 62.19C99.48 61.53 99.02 61.02 98.06 61.02L96.41 61.02ZM162.46 68L161.3 68L161.3 62L162.42 62L162.42 62.95L162.49 62.95C162.71 62.3 163.31 61.9 164.01 61.9C164.16 61.9 164.39 61.92 164.51 61.93L164.51 63.05C164.41 63.02 164.14 62.98 163.9 62.98C163.07 62.98 162.46 63.55 162.46 64.33L162.46 68ZM107.61 62.93C106.8 62.93 106.21 63.48 106.21 64.43L106.21 68L105.05 68L105.05 62L106.17 62L106.17 62.97L106.24 62.97C106.52 62.33 107.11 61.92 108.01 61.92C109.24 61.92 110.05 62.69 110.05 64.18L110.05 68L108.89 68L108.89 64.32C108.89 63.45 108.4 62.93 107.61 62.93ZM115.14 67.18C114.91 67.62 114.35 68.13 113.36 68.13C112.22 68.13 111.34 67.48 111.34 66.3C111.34 64.94 112.5 64.64 113.64 64.51C114.71 64.38 115.15 64.39 115.15 63.96L115.15 63.94C115.15 63.26 114.77 62.86 114.01 62.86C113.23 62.86 112.79 63.27 112.62 63.7L111.52 63.45C111.91 62.36 112.91 61.92 114 61.92C114.95 61.92 116.32 62.26 116.32 64.01L116.32 68L115.18 68L115.18 67.18L115.14 67.18ZM120.44 62.93C119.63 62.93 119.05 63.48 119.05 64.43L119.05 68L117.88 68L117.88 62L119 62L119 62.97L119.07 62.97C119.35 62.33 119.94 61.92 120.84 61.92C122.07 61.92 122.89 62.69 122.89 64.18L122.89 68L121.72 68L121.72 64.32C121.72 63.45 121.24 62.93 120.44 62.93ZM129.44 66.1C129.31 67.26 128.39 68.12 126.97 68.12C125.23 68.12 124.18 66.83 124.18 65.02C124.18 63.19 125.27 61.92 126.96 61.92C128.33 61.92 129.32 62.72 129.44 63.93L128.3 63.93C128.18 63.37 127.73 62.9 126.98 62.9C126.01 62.9 125.36 63.71 125.36 65C125.36 66.3 125.99 67.13 126.98 67.13C127.65 67.13 128.16 66.75 128.3 66.1L129.44 66.1ZM135.78 66.49C135.51 67.47 134.59 68.12 133.28 68.12C131.51 68.12 130.42 66.9 130.42 65.03C130.42 63.19 131.53 61.92 133.2 61.92C134.56 61.92 135.86 62.76 135.86 64.93L135.86 65.35L131.59 65.35C131.62 66.5 132.29 67.15 133.29 67.15C133.96 67.15 134.46 66.86 134.68 66.3L135.78 66.49ZM170.39 66.49C170.12 67.47 169.2 68.12 167.89 68.12C166.12 68.12 165.03 66.9 165.03 65.03C165.03 63.19 166.14 61.92 167.81 61.92C169.17 61.92 170.46 62.76 170.46 64.93L170.46 65.35L166.2 65.35C166.23 66.5 166.9 67.15 167.9 67.15C168.57 67.15 169.07 66.86 169.29 66.3L170.39 66.49ZM103.48 68L102.31 68L102.31 62L103.48 62L103.48 68ZM146.52 67.01C147.17 67.01 147.93 66.53 147.93 65.51L147.93 62L149.1 62L149.1 68L147.95 68L147.95 66.96L147.89 66.96C147.61 67.6 147 68.07 146.1 68.07C144.94 68.07 144.13 67.3 144.13 65.81L144.13 62L145.3 62L145.3 65.67C145.3 66.49 145.8 67.01 146.52 67.01ZM157.15 67.01C157.8 67.01 158.56 66.53 158.56 65.51L158.56 62L159.73 62L159.73 68L158.58 68L158.58 66.96L158.52 66.96C158.24 67.6 157.63 68.07 156.72 68.07C155.57 68.07 154.76 67.3 154.76 65.81L154.76 62L155.92 62L155.92 65.67C155.92 66.49 156.42 67.01 157.15 67.01ZM133.21 62.88C132.26 62.88 131.64 63.62 131.59 64.47L134.71 64.47C134.71 63.55 134.11 62.88 133.21 62.88ZM167.82 62.88C166.87 62.88 166.25 63.62 166.2 64.47L169.32 64.47C169.32 63.55 168.72 62.88 167.82 62.88ZM87.09 63.49L90.64 63.49L90.64 64.5L87.09 64.5L87.09 63.49ZM96.41 64.4L96.41 66.96L98.15 66.96C99.31 66.96 99.77 66.46 99.77 65.78C99.77 65.02 99.17 64.4 98.2 64.4L96.41 64.4ZM112.48 66.32C112.48 66.89 112.96 67.19 113.62 67.19C114.59 67.19 115.16 66.54 115.16 65.83L115.16 65.06C114.99 65.23 114.09 65.33 113.71 65.38C113.03 65.47 112.48 65.69 112.48 66.32Z" fill="#FFFFFF" fill-opacity="1.000000" fill-rule="evenodd"/>
			<path id="Рекомендация к покупке  Изменение цены: ⬩ За последние 5M: 7.19% ⬩ За последние 1H: -4.31% ⬩ За последние 24H: -4.66%  Открытый интерес: ⬩ Изменился на 9.44% Изменение объёма за последние 24 часа: ⬩ Изменился на 23.23%  Ликвидации:  ⬩ Короткие позиции -1.162К" d="M22.38 91L20.69 91L20.69 82.99L23.85 82.99C25.66 82.99 26.71 84.12 26.71 85.71C26.71 87.3 25.64 88.4 23.8 88.4L22.38 88.4L22.38 91ZM22.38 84.38L22.38 87.04L23.53 87.04C24.5 87.04 24.97 86.5 24.97 85.71C24.97 84.91 24.5 84.38 23.52 84.38L22.38 84.38ZM33.14 89.28C32.9 90.39 31.9 91.11 30.42 91.11C28.57 91.11 27.44 89.92 27.44 88.02C27.44 86.17 28.58 84.92 30.35 84.92C31.94 84.92 33.17 85.92 33.17 87.96L33.17 88.42L29.08 88.42L29.08 88.42C29.08 89.32 29.61 89.87 30.45 89.87C31 89.87 31.43 89.63 31.6 89.17L33.14 89.28ZM46.11 88.02C46.11 89.87 44.98 91.11 43.16 91.11C41.34 91.11 40.21 89.87 40.21 88.02C40.21 86.16 41.34 84.92 43.16 84.92C44.98 84.92 46.11 86.16 46.11 88.02ZM61.1 89.28C60.86 90.39 59.86 91.11 58.38 91.11C56.53 91.11 55.4 89.92 55.4 88.02C55.4 86.17 56.55 84.92 58.31 84.92C59.9 84.92 61.13 85.92 61.13 87.96L61.13 88.42L57.04 88.42L57.04 88.42C57.04 89.32 57.57 89.87 58.41 89.87C58.96 89.87 59.39 89.63 59.56 89.17L61.1 89.28ZM79.56 90.16C79.27 90.72 78.7 91.11 77.81 91.11C76.67 91.11 75.82 90.51 75.82 89.32C75.82 87.98 76.89 87.58 78.07 87.47C79.12 87.37 79.53 87.32 79.53 86.93L79.53 86.91C79.53 86.42 79.2 86.13 78.63 86.13C78.04 86.13 77.68 86.42 77.57 86.82L76.03 86.7C76.26 85.61 77.21 84.92 78.64 84.92C79.98 84.92 81.19 85.52 81.19 86.95L81.19 91L79.61 91L79.61 90.16L79.56 90.16ZM126.57 88.02C126.57 89.87 125.44 91.11 123.62 91.11C121.8 91.11 120.67 89.87 120.67 88.02C120.67 86.16 121.8 84.92 123.62 84.92C125.44 84.92 126.57 86.16 126.57 88.02ZM158.86 89.28C158.63 90.39 157.62 91.11 156.14 91.11C154.29 91.11 153.16 89.92 153.16 88.02C153.16 86.17 154.31 84.92 156.07 84.92C157.66 84.92 158.89 85.92 158.89 87.96L158.89 88.42L154.81 88.42L154.81 88.42C154.81 89.32 155.34 89.87 156.17 89.87C156.72 89.87 157.15 89.63 157.32 89.17L158.86 89.28ZM35.92 91L34.26 91L34.26 85L35.92 85L35.92 87.32L36.39 87.32L38.02 85L39.98 85L37.85 87.97L40 91L38.02 91L36.54 88.87L35.92 88.87L35.92 91ZM49.17 85L50.75 89.16L52.37 85L54.35 85L54.35 91L52.78 91L52.78 87.18L51.3 91L50.19 91L48.79 87.31L48.79 91L47.2 91L47.2 85L49.17 85ZM62.22 85L63.81 85L63.81 87.33L65.86 87.33L65.86 85L67.44 85L67.44 91L65.86 91L65.86 88.64L63.81 88.64L63.81 91L62.22 91L62.22 85ZM69.88 92.75L68.26 92.75L68.26 89.67L68.72 89.67C69.24 89.34 69.35 88.13 69.45 86.96L69.61 85L74.21 85L74.21 89.67L75.14 89.67L75.14 92.75L73.55 92.75L73.55 91L69.88 91L69.88 92.75ZM86.16 85L87.73 85L87.73 89.85L88.69 89.85L88.69 92.93L87.07 92.93L87.07 91L82.48 91L82.48 85L84.07 85L84.07 89.69L86.16 89.69L86.16 85ZM91.3 85L91.3 88.8L93.46 85L95.1 85L95.1 91L93.51 91L93.51 87.18L91.36 91L89.71 91L89.71 85L91.3 85ZM101.5 91L99.95 91L99.95 88.83L98.88 88.83L97.73 91L96.14 91L97.43 88.58C96.71 88.26 96.3 87.69 96.31 86.96C96.3 85.79 97.27 85 98.82 85L101.5 85L101.5 91ZM107.01 91L105.34 91L105.34 85L107.01 85L107.01 87.32L107.47 87.32L109.11 85L111.06 85L108.94 87.97L111.08 91L109.11 91L107.63 88.87L107.01 88.87L107.01 91ZM115.91 91L114.33 91L114.33 85L119.58 85L119.58 91L117.99 91L117.99 86.3L115.91 86.3L115.91 91ZM129.32 91L127.66 91L127.66 85L129.32 85L129.32 87.32L129.79 87.32L131.42 85L133.38 85L131.26 87.97L133.4 91L131.42 91L129.94 88.87L129.32 88.87L129.32 91ZM137.46 91.64C137.12 92.61 136.46 93.25 135.22 93.25C134.8 93.25 134.41 93.18 134.17 93.07L134.55 91.83C135.14 92.01 135.55 91.98 135.77 91.42L135.87 91.17L133.72 85L135.47 85L136.71 89.4L136.77 89.4L138.03 85L139.79 85L137.46 91.64ZM142.21 91L140.64 91L140.64 85L145.89 85L145.89 91L144.3 91L144.3 86.3L142.21 86.3L142.21 91ZM148.88 91L147.21 91L147.21 85L148.88 85L148.88 87.32L149.35 87.32L150.98 85L152.93 85L150.81 87.97L152.96 91L150.98 91L149.5 88.87L148.88 88.87L148.88 91ZM30.38 86.16C29.64 86.16 29.12 86.71 29.08 87.39L31.61 87.39C31.6 86.67 31.1 86.16 30.38 86.16ZM58.34 86.16C57.6 86.16 57.08 86.71 57.04 87.39L59.57 87.39C59.56 86.67 59.06 86.16 58.34 86.16ZM156.1 86.16C155.36 86.16 154.84 86.71 154.81 87.39L157.33 87.39C157.32 86.67 156.82 86.16 156.1 86.16ZM41.9 88.01C41.9 89.05 42.33 89.82 43.17 89.82C43.99 89.82 44.42 89.05 44.42 88.01C44.42 86.96 43.99 86.19 43.17 86.19C42.33 86.19 41.9 86.96 41.9 88.01ZM122.36 88.01C122.36 89.05 122.79 89.82 123.63 89.82C124.45 89.82 124.88 89.05 124.88 88.01C124.88 86.96 124.45 86.19 123.63 86.19C122.79 86.19 122.36 86.96 122.36 88.01ZM70.96 86.96C70.87 88.24 70.73 89.12 70.37 89.67L72.63 89.67L72.63 86.28L71.02 86.28L70.96 86.96ZM98.81 87.71L99.95 87.71L99.95 86.3L98.82 86.3C98.21 86.3 97.88 86.63 97.89 87.01C97.88 87.4 98.2 87.71 98.81 87.71ZM77.41 89.27C77.41 89.72 77.78 89.96 78.29 89.96C79.02 89.96 79.54 89.48 79.54 88.85L79.54 88.21C79.34 88.35 78.75 88.43 78.38 88.48C77.8 88.56 77.41 88.8 77.41 89.27ZM20.87 117L20.87 109L22.07 109L22.07 114.87L22.14 114.87L26.21 109L27.33 109L27.33 117L26.12 117L26.12 111.13L26.05 111.13L21.99 117L20.87 117ZM30.99 117.12C29.65 117.12 28.67 116.46 28.64 115.41L29.83 115.41C29.87 115.9 30.32 116.18 30.98 116.18C31.65 116.18 32.19 115.9 32.19 115.28C32.19 114.74 31.77 114.37 31.1 114.37L30.12 114.37L30.12 113.46L31.1 113.46C31.76 113.46 32.09 113.12 32.09 112.66C32.09 112.17 31.72 111.85 31.09 111.85C30.46 111.85 29.99 112.16 29.97 112.61L28.79 112.61C28.81 111.6 29.75 110.92 31.04 110.92C32.37 110.92 33.21 111.61 33.21 112.6C33.21 113.26 32.78 113.68 32.15 113.86L32.15 113.92C32.85 113.97 33.34 114.55 33.34 115.33C33.34 116.43 32.35 117.12 30.99 117.12ZM47.95 115.49C47.69 116.47 46.76 117.12 45.45 117.12C43.68 117.12 42.6 115.9 42.6 114.03C42.6 112.19 43.7 110.92 45.37 110.92C46.73 110.92 48.03 111.76 48.03 113.93L48.03 114.35L43.76 114.35C43.79 115.5 44.46 116.15 45.46 116.15C46.13 116.15 46.64 115.86 46.85 115.3L47.95 115.49ZM60.85 115.49C60.59 116.47 59.66 117.12 58.35 117.12C56.58 117.12 55.5 115.9 55.5 114.03C55.5 112.19 56.6 110.92 58.27 110.92C59.63 110.92 60.93 111.76 60.93 113.93L60.93 114.35L56.66 114.35C56.69 115.5 57.37 116.15 58.37 116.15C59.03 116.15 59.54 115.86 59.75 115.3L60.85 115.49ZM80.37 115.49C80.11 116.47 79.18 117.12 77.87 117.12C76.1 117.12 75.02 115.9 75.02 114.03C75.02 112.19 76.12 110.92 77.79 110.92C79.15 110.92 80.45 111.76 80.45 113.93L80.45 114.35L76.18 114.35C76.21 115.5 76.88 116.15 77.89 116.15C78.55 116.15 79.06 115.86 79.27 115.3L80.37 115.49ZM96.75 115.49C96.49 116.47 95.56 117.12 94.25 117.12C92.48 117.12 91.4 115.9 91.4 114.03C91.4 112.19 92.5 110.92 94.17 110.92C95.53 110.92 96.83 111.76 96.83 113.93L96.83 114.35L92.56 114.35C92.59 115.5 93.26 116.15 94.27 116.15C94.93 116.15 95.44 115.86 95.65 115.3L96.75 115.49ZM36.02 111L37.92 115.55L39.86 111L41.31 111L41.31 117L40.17 117L40.17 112.65L38.35 117L37.48 117L35.7 112.63L35.7 117L34.55 117L34.55 111L36.02 111ZM49.33 111L50.47 111L50.47 113.49L53.07 113.49L53.07 111L54.21 111L54.21 117L53.07 117L53.07 114.5L50.47 114.5L50.47 117L49.33 117L49.33 111ZM62.23 111L63.38 111L63.38 113.49L65.97 113.49L65.97 111L67.11 111L67.11 117L65.97 117L65.97 114.5L63.38 114.5L63.38 117L62.23 117L62.23 111ZM69.82 111L69.82 115.36L72.46 111L73.72 111L73.72 117L72.57 117L72.57 112.63L69.94 117L68.67 117L68.67 111L69.82 111ZM88.42 111L89.55 111L89.55 116.04L90.44 116.04L90.44 118.93L89.28 118.93L89.28 117L84.66 117L84.66 111L85.8 111L85.8 115.99L88.42 115.99L88.42 111ZM98.13 111L99.27 111L99.27 113.49L101.87 113.49L101.87 111L103.01 111L103.01 117L101.87 117L101.87 114.5L99.27 114.5L99.27 117L98.13 117L98.13 111ZM105.72 111L105.72 113.06L107.19 113.06C108.66 113.06 109.48 113.86 109.48 115.02C109.48 116.14 108.66 117 107.19 117L104.57 117L104.57 111L105.72 111ZM111.5 117L110.33 117L110.33 111L111.5 111L111.5 117ZM114.62 111.92C114.62 112.35 114.26 112.7 113.84 112.7C113.41 112.7 113.06 112.35 113.06 111.92C113.06 111.5 113.41 111.14 113.84 111.14C114.26 111.14 114.62 111.5 114.62 111.92ZM45.38 111.88C44.43 111.88 43.81 112.62 43.76 113.47L46.88 113.47C46.88 112.55 46.28 111.88 45.38 111.88ZM58.28 111.88C57.33 111.88 56.71 112.62 56.67 113.47L59.79 113.47C59.78 112.55 59.19 111.88 58.28 111.88ZM77.8 111.88C76.85 111.88 76.23 112.62 76.19 113.47L79.3 113.47C79.3 112.55 78.71 111.88 77.8 111.88ZM94.18 111.88C93.23 111.88 92.61 112.62 92.57 113.47L95.68 113.47C95.68 112.55 95.08 111.88 94.18 111.88ZM107.19 114.07L105.72 114.07L105.72 115.99L107.19 115.99C107.86 115.99 108.34 115.6 108.34 115.05C108.34 114.47 107.86 114.07 107.19 114.07ZM114.62 116.29C114.62 116.72 114.26 117.07 113.84 117.07C113.41 117.07 113.06 116.72 113.06 116.29C113.06 115.86 113.41 115.51 113.84 115.51C114.26 115.51 114.62 115.86 114.62 116.29ZM29.96 134.5L20.96 134.5L20.96 132.5L29.96 132.5L29.96 134.5ZM147.04 137.56C147.04 136.09 148.09 134.87 149.71 134.89C151.03 134.9 152.49 135.73 152.49 138.67C152.49 141.51 151.39 143.11 149.59 143.11C148.25 143.11 147.29 142.25 147.1 140.98L148.06 140.98C148.23 141.71 148.75 142.25 149.59 142.25C150.82 142.25 151.59 141.12 151.59 139.15L151.53 139.15C151.09 139.81 150.39 140.21 149.56 140.21C148.18 140.21 147.04 139.1 147.04 137.56ZM40.26 140.82C40.26 142.13 39.11 143.11 37.56 143.11C36.01 143.11 34.9 142.25 34.84 140.99L35.82 140.99C35.88 141.77 36.62 142.25 37.54 142.25C38.57 142.25 39.31 141.67 39.31 140.82C39.31 139.94 38.63 139.32 37.42 139.32L36.78 139.32L36.78 138.46L37.42 138.46C38.37 138.46 39.03 137.92 39.03 137.07C39.03 136.27 38.45 135.73 37.57 135.73C36.74 135.73 35.98 136.2 35.95 137L35.01 137C35.06 135.74 36.21 134.89 37.59 134.89C39.07 134.89 39.96 135.89 39.96 137.03C39.96 137.93 39.46 138.59 38.65 138.84L38.65 138.9C39.66 139.07 40.26 139.81 40.26 140.82ZM155.68 138.53C154.67 138.53 154.12 137.79 154.12 136.92L154.12 136.5C154.12 135.62 154.68 134.89 155.68 134.89C156.7 134.89 157.23 135.62 157.23 136.5L157.23 136.92C157.23 137.79 156.68 138.53 155.68 138.53ZM117.62 140.45C117.62 141.98 116.5 143.11 114.98 143.11C113.6 143.11 112.55 142.21 112.5 140.99L113.43 140.99C113.51 141.72 114.16 142.25 114.98 142.25C115.96 142.25 116.68 141.49 116.68 140.46C116.68 139.42 115.94 138.64 114.92 138.64C114.43 138.63 113.86 138.8 113.53 139.04L112.62 138.93L113.1 135L117.26 135L117.26 135.85L113.92 135.85L113.64 138.22L113.68 138.22C114.01 137.95 114.53 137.76 115.07 137.76C116.54 137.76 117.62 138.9 117.62 140.45ZM119.31 143L119.31 135L120.46 135L123.18 141.64L123.28 141.64L126 135L127.15 135L127.15 143L126.25 143L126.25 136.92L126.17 136.92L123.67 143L122.79 143L120.29 136.92L120.21 136.92L120.21 143L119.31 143ZM136.34 143L135.32 143L138.9 135.92L138.9 135.85L134.78 135.85L134.78 135L139.9 135L139.9 135.9L136.34 143ZM143.9 135L144.87 135L144.87 143L143.9 143L143.9 136.01L143.85 136.01L141.9 137.31L141.9 136.32L143.9 135ZM155.31 143L154.42 143L159.92 135L160.81 135L155.31 143ZM29.96 137.25L20.96 137.25L20.96 135.25L29.96 135.25L29.96 137.25ZM155.68 135.56C155.13 135.56 154.92 136.01 154.92 136.5L154.92 136.92C154.92 137.4 155.12 137.86 155.68 137.86C156.23 137.86 156.43 137.4 156.43 136.92L156.43 136.5C156.43 136.01 156.25 135.56 155.68 135.56ZM151.45 137.54C151.45 136.6 150.71 135.74 149.71 135.74C148.73 135.74 147.98 136.56 147.98 137.56C147.98 138.56 148.7 139.35 149.68 139.35C150.67 139.35 151.45 138.49 151.45 137.54ZM130.34 137.22C130.34 137.61 130.02 137.92 129.64 137.92C129.25 137.92 128.93 137.61 128.93 137.22C128.93 136.83 129.25 136.52 129.64 136.52C130.02 136.52 130.34 136.83 130.34 137.22ZM45.42 142.18C45.23 142.57 44.68 143.14 43.64 143.14C42.5 143.14 41.59 142.46 41.59 141.29C41.59 139.92 42.8 139.67 43.92 139.53C45.01 139.39 45.46 139.43 45.46 138.98L45.46 138.95C45.46 138.18 45.05 137.73 44.2 137.73C43.32 137.73 42.84 138.2 42.63 138.64L41.76 138.32C42.23 137.23 43.26 136.92 44.17 136.92C44.93 136.92 46.39 137.14 46.39 139.04L46.39 143L45.46 143L45.46 142.18L45.42 142.18ZM62.73 140.03C62.73 141.89 61.64 143.12 60.01 143.12C58.39 143.12 57.29 141.89 57.29 140.03C57.29 138.15 58.39 136.92 60.01 136.92C61.64 136.92 62.73 138.15 62.73 140.03ZM68.93 141.24C68.78 142.31 67.9 143.12 66.57 143.12C64.88 143.12 63.85 141.82 63.85 140.03C63.85 138.2 64.93 136.92 66.56 136.92C67.82 136.92 68.78 137.67 68.93 138.79L68.01 138.79C67.87 138.24 67.38 137.75 66.57 137.75C65.49 137.75 64.78 138.64 64.78 140C64.78 141.39 65.48 142.29 66.57 142.29C67.29 142.29 67.84 141.9 68.01 141.24L68.93 141.24ZM81.67 141.6C81.38 142.51 80.5 143.12 79.28 143.12C77.54 143.12 76.48 141.89 76.48 140.04C76.48 138.2 77.56 136.92 79.18 136.92C80.43 136.92 81.76 137.68 81.76 139.92L81.76 140.31L77.4 140.31C77.45 141.59 78.19 142.29 79.28 142.29C80 142.29 80.54 141.98 80.78 141.35L81.67 141.6ZM107.9 141.6C107.62 142.51 106.73 143.12 105.51 143.12C103.78 143.12 102.71 141.89 102.71 140.04C102.71 138.2 103.79 136.92 105.42 136.92C106.67 136.92 108 137.68 108 139.92L108 140.31L103.64 140.31C103.68 141.59 104.43 142.29 105.51 142.29C106.23 142.29 106.78 141.98 107.01 141.35L107.9 141.6ZM52.09 143L51.17 143L51.17 137L55.88 137L55.88 143L54.96 143L54.96 137.86L52.09 137.86L52.09 143ZM70.06 143L69.74 143L69.74 142.14L69.96 142.14C70.68 142.14 70.89 141.67 70.96 139.65L71.07 137L75.07 137L75.07 143L74.15 143L74.15 137.86L71.95 137.86L71.85 140C71.77 141.96 71.38 143 70.06 143ZM83.45 144.71L82.53 144.71L82.53 142.14L83.03 142.14C83.51 141.63 83.73 141.05 83.87 139.37L84.07 137L87.88 137L87.88 142.14L88.81 142.14L88.81 144.71L87.88 144.71L87.88 143L83.45 143L83.45 144.71ZM90.03 137L90.95 137L90.95 139.57L93.82 139.57L93.82 137L94.74 137L94.74 143L93.82 143L93.82 140.43L90.95 140.43L90.95 143L90.03 143L90.03 137ZM97.35 137L97.35 141.64L100.25 137L101.31 137L101.31 143L100.39 143L100.39 138.35L97.51 143L96.43 143L96.43 137L97.35 137ZM58.21 140.03C58.21 141.23 58.78 142.29 60.01 142.29C61.24 142.29 61.81 141.23 61.81 140.03C61.81 138.82 61.24 137.75 60.01 137.75C58.78 137.75 58.21 138.82 58.21 140.03ZM79.18 137.75C78.13 137.75 77.47 138.58 77.4 139.51L80.82 139.51C80.82 138.49 80.18 137.75 79.18 137.75ZM105.42 137.75C104.36 137.75 103.7 138.58 103.64 139.51L107.06 139.51C107.06 138.49 106.42 137.75 105.42 137.75ZM84.78 139.37C84.65 140.62 84.5 141.58 84.07 142.14L86.96 142.14L86.96 137.86L84.93 137.86L84.78 139.37ZM29.96 140L20.96 140L20.96 138L29.96 138L29.96 140ZM159.67 143.11C158.65 143.11 158.11 142.37 158.11 141.49L158.11 141.07C158.11 140.2 158.67 139.46 159.67 139.46C160.68 139.46 161.21 140.2 161.21 141.07L161.21 141.49C161.21 142.37 160.67 143.11 159.67 143.11ZM42.51 141.34C42.51 141.98 43.04 142.31 43.78 142.31C44.87 142.31 45.46 141.57 45.46 140.82L45.46 139.98C45.31 140.17 44.26 140.28 43.87 140.32C43.15 140.42 42.51 140.63 42.51 141.34ZM159.67 140.14C159.12 140.14 158.9 140.59 158.9 141.07L158.9 141.49C158.9 141.98 159.1 142.43 159.67 142.43C160.21 142.43 160.42 141.98 160.42 141.49L160.42 141.07C160.42 140.59 160.23 140.14 159.67 140.14ZM130.34 141.27C130.34 141.66 130.02 141.97 129.64 141.97C129.25 141.97 128.93 141.66 128.93 141.27C128.93 140.88 129.25 140.57 129.64 140.57C130.02 140.57 130.34 140.88 130.34 141.27ZM29.96 142.75L20.96 142.75L20.96 140.75L29.96 140.75L29.96 142.75ZM141.37 142.35C141.37 142.74 141.05 143.06 140.67 143.06C140.28 143.06 139.97 142.74 139.97 142.35C139.97 141.97 140.28 141.65 140.67 141.65C141.05 141.65 141.37 141.97 141.37 142.35ZM20.96 145.5L20.96 143.5L29.96 143.5L29.96 147.5L20.96 147.5L20.96 145.5ZM40.26 153.82C40.26 155.13 39.11 156.11 37.56 156.11C36.01 156.11 34.9 155.25 34.84 153.99L35.82 153.99C35.88 154.77 36.62 155.25 37.54 155.25C38.57 155.25 39.31 154.67 39.31 153.82C39.31 152.94 38.63 152.32 37.42 152.32L36.78 152.32L36.78 151.46L37.42 151.46C38.37 151.46 39.03 150.92 39.03 150.07C39.03 149.27 38.45 148.73 37.57 148.73C36.74 148.73 35.98 149.2 35.95 150L35.01 150C35.06 148.74 36.21 147.89 37.59 147.89C39.07 147.89 39.96 148.89 39.96 150.03C39.96 150.93 39.46 151.59 38.65 151.84L38.65 151.9C39.66 152.07 40.26 152.81 40.26 153.82ZM151.74 153.82C151.74 155.13 150.59 156.11 149.04 156.11C147.49 156.11 146.38 155.25 146.32 153.99L147.31 153.99C147.37 154.77 148.1 155.25 149.03 155.25C150.06 155.25 150.79 154.67 150.79 153.82C150.79 152.94 150.12 152.32 148.9 152.32L148.26 152.32L148.26 151.46L148.9 151.46C149.85 151.46 150.51 150.92 150.51 150.07C150.51 149.27 149.94 148.73 149.06 148.73C148.23 148.73 147.47 149.2 147.43 150L146.5 150C146.54 148.74 147.69 147.89 149.07 147.89C150.55 147.89 151.45 148.89 151.45 150.03C151.45 150.93 150.94 151.59 150.14 151.84L150.14 151.9C151.14 152.07 151.74 152.81 151.74 153.82ZM160.1 151.53C159.09 151.53 158.54 150.79 158.54 149.92L158.54 149.5C158.54 148.62 159.11 147.89 160.1 147.89C161.12 147.89 161.65 148.62 161.65 149.5L161.65 149.92C161.65 150.79 161.1 151.53 160.1 151.53ZM114.32 148L115.29 148L115.29 156L114.32 156L114.32 149.01L114.28 149.01L112.32 150.31L112.32 149.32L114.32 148ZM118.7 156L117.73 156L117.73 148L118.7 148L118.7 151.56L122.96 151.56L122.96 148L123.93 148L123.93 156L122.96 156L122.96 152.42L118.7 152.42L118.7 156ZM140.5 154.35L136.73 154.35L136.73 153.56L140.25 148L141.42 148L141.42 153.5L142.51 153.5L142.51 154.35L141.42 154.35L141.42 156L140.5 156L140.5 154.35ZM155.18 148L156.15 148L156.15 156L155.18 156L155.18 149.01L155.13 149.01L153.18 150.31L153.18 149.32L155.18 148ZM159.73 156L158.84 156L164.34 148L165.23 148L159.73 156ZM29.96 150.25L20.96 150.25L20.96 148.25L29.96 148.25L29.96 150.25ZM160.1 148.56C159.56 148.56 159.34 149.01 159.34 149.5L159.34 149.92C159.34 150.4 159.54 150.86 160.1 150.86C160.65 150.86 160.85 150.4 160.85 149.92L160.85 149.5C160.85 149.01 160.67 148.56 160.1 148.56ZM137.78 153.5L140.5 153.5L140.5 149.23L140.43 149.23L137.78 153.43L137.78 153.5ZM127.12 150.22C127.12 150.61 126.8 150.92 126.42 150.92C126.03 150.92 125.72 150.61 125.72 150.22C125.72 149.83 126.03 149.52 126.42 149.52C126.8 149.52 127.12 149.83 127.12 150.22ZM45.42 155.18C45.23 155.57 44.68 156.14 43.64 156.14C42.5 156.14 41.59 155.46 41.59 154.29C41.59 152.92 42.8 152.67 43.92 152.53C45.01 152.39 45.46 152.43 45.46 151.98L45.46 151.95C45.46 151.18 45.05 150.73 44.2 150.73C43.32 150.73 42.84 151.2 42.63 151.64L41.76 151.32C42.23 150.23 43.26 149.92 44.17 149.92C44.93 149.92 46.39 150.14 46.39 152.04L46.39 156L45.46 156L45.46 155.18L45.42 155.18ZM62.73 153.03C62.73 154.89 61.64 156.12 60.01 156.12C58.39 156.12 57.29 154.89 57.29 153.03C57.29 151.15 58.39 149.92 60.01 149.92C61.64 149.92 62.73 151.15 62.73 153.03ZM68.93 154.24C68.78 155.31 67.9 156.12 66.57 156.12C64.88 156.12 63.85 154.82 63.85 153.03C63.85 151.2 64.93 149.92 66.56 149.92C67.82 149.92 68.78 150.67 68.93 151.79L68.01 151.79C67.87 151.24 67.38 150.75 66.57 150.75C65.49 150.75 64.78 151.64 64.78 153C64.78 154.39 65.48 155.29 66.57 155.29C67.29 155.29 67.84 154.9 68.01 154.24L68.93 154.24ZM81.67 154.6C81.38 155.51 80.5 156.12 79.28 156.12C77.54 156.12 76.48 154.89 76.48 153.04C76.48 151.2 77.56 149.92 79.18 149.92C80.43 149.92 81.76 150.68 81.76 152.92L81.76 153.31L77.4 153.31C77.45 154.59 78.19 155.29 79.28 155.29C80 155.29 80.54 154.98 80.78 154.35L81.67 154.6ZM107.9 154.6C107.62 155.51 106.73 156.12 105.51 156.12C103.78 156.12 102.71 154.89 102.71 153.04C102.71 151.2 103.79 149.92 105.42 149.92C106.67 149.92 108 150.68 108 152.92L108 153.31L103.64 153.31C103.68 154.59 104.43 155.29 105.51 155.29C106.23 155.29 106.78 154.98 107.01 154.35L107.9 154.6ZM52.09 156L51.17 156L51.17 150L55.88 150L55.88 156L54.96 156L54.96 150.86L52.09 150.86L52.09 156ZM70.06 156L69.74 156L69.74 155.14L69.96 155.14C70.68 155.14 70.89 154.67 70.96 152.65L71.07 150L75.07 150L75.07 156L74.15 156L74.15 150.86L71.95 150.86L71.85 153C71.77 154.96 71.38 156 70.06 156ZM83.45 157.71L82.53 157.71L82.53 155.14L83.03 155.14C83.51 154.63 83.73 154.05 83.87 152.37L84.07 150L87.88 150L87.88 155.14L88.81 155.14L88.81 157.71L87.88 157.71L87.88 156L83.45 156L83.45 157.71ZM90.03 150L90.95 150L90.95 152.57L93.82 152.57L93.82 150L94.74 150L94.74 156L93.82 156L93.82 153.43L90.95 153.43L90.95 156L90.03 156L90.03 150ZM97.35 150L97.35 154.64L100.25 150L101.31 150L101.31 156L100.39 156L100.39 151.35L97.51 156L96.43 156L96.43 150L97.35 150ZM58.21 153.03C58.21 154.23 58.78 155.29 60.01 155.29C61.24 155.29 61.81 154.23 61.81 153.03C61.81 151.82 61.24 150.75 60.01 150.75C58.78 150.75 58.21 151.82 58.21 153.03ZM79.18 150.75C78.13 150.75 77.47 151.58 77.4 152.51L80.82 152.51C80.82 151.49 80.18 150.75 79.18 150.75ZM105.42 150.75C104.36 150.75 103.7 151.58 103.64 152.51L107.06 152.51C107.06 151.49 106.42 150.75 105.42 150.75ZM84.78 152.37C84.65 153.62 84.5 154.58 84.07 155.14L86.96 155.14L86.96 150.86L84.93 150.86L84.78 152.37ZM29.96 153L20.96 153L20.96 151L29.96 151L29.96 153ZM131.81 151.57L135.31 151.57L135.31 152.43L131.81 152.43L131.81 151.57ZM164.09 156.11C163.07 156.11 162.53 155.37 162.53 154.49L162.53 154.07C162.53 153.2 163.09 152.46 164.09 152.46C165.11 152.46 165.64 153.2 165.64 154.07L165.64 154.49C165.64 155.37 165.09 156.11 164.09 156.11ZM42.51 154.34C42.51 154.98 43.04 155.31 43.78 155.31C44.87 155.31 45.46 154.57 45.46 153.82L45.46 152.98C45.31 153.17 44.26 153.28 43.87 153.32C43.15 153.42 42.51 153.63 42.51 154.34ZM164.09 153.14C163.54 153.14 163.32 153.59 163.32 154.07L163.32 154.49C163.32 154.98 163.53 155.43 164.09 155.43C164.64 155.43 164.84 154.98 164.84 154.49L164.84 154.07C164.84 153.59 164.65 153.14 164.09 153.14ZM127.12 154.27C127.12 154.66 126.8 154.97 126.42 154.97C126.03 154.97 125.72 154.66 125.72 154.27C125.72 153.88 126.03 153.57 126.42 153.57C126.8 153.57 127.12 153.88 127.12 154.27ZM29.96 155.75L20.96 155.75L20.96 153.75L29.96 153.75L29.96 155.75ZM145 155.35C145 155.74 144.68 156.06 144.29 156.06C143.9 156.06 143.59 155.74 143.59 155.35C143.59 154.97 143.9 154.65 144.29 154.65C144.68 154.65 145 154.97 145 155.35ZM20.96 158.5L20.96 156.5L29.96 156.5L29.96 160.5L20.96 160.5L20.96 158.5ZM40.26 166.82C40.26 168.13 39.11 169.11 37.56 169.11C36.01 169.11 34.9 168.25 34.84 166.99L35.82 166.99C35.88 167.77 36.62 168.25 37.54 168.25C38.57 168.25 39.31 167.67 39.31 166.82C39.31 165.94 38.63 165.32 37.42 165.32L36.78 165.32L36.78 164.46L37.42 164.46C38.37 164.46 39.03 163.92 39.03 163.07C39.03 162.27 38.45 161.73 37.57 161.73C36.74 161.73 35.98 162.2 35.95 163L35.01 163C35.06 161.74 36.21 160.89 37.59 160.89C39.07 160.89 39.96 161.89 39.96 163.03C39.96 163.93 39.46 164.59 38.65 164.84L38.65 164.9C39.66 165.07 40.26 165.81 40.26 166.82ZM117.53 169L112.48 169L112.48 168.29L115.12 165.4C116.05 164.39 116.48 163.84 116.48 163.11C116.48 162.26 115.82 161.73 114.95 161.73C114.02 161.73 113.43 162.34 113.43 163.25L112.51 163.25C112.51 161.84 113.58 160.89 114.98 160.89C116.39 160.89 117.39 161.87 117.39 163.11C117.39 163.99 116.98 164.68 115.6 166.15L113.81 168.07L113.81 168.14L117.53 168.14L117.53 169ZM160.12 166.42C160.12 167.91 159.07 169.12 157.45 169.11C156.14 169.09 154.67 168.27 154.67 165.31C154.67 162.48 155.77 160.89 157.57 160.89C158.92 160.89 159.86 161.75 160.06 163L159.1 163C158.92 162.28 158.42 161.74 157.57 161.74C156.34 161.74 155.58 162.88 155.57 164.82L155.64 164.82C156.07 164.16 156.78 163.76 157.61 163.76C158.98 163.76 160.12 164.87 160.12 166.42ZM166.98 166.42C166.98 167.91 165.93 169.12 164.31 169.11C163 169.09 161.53 168.27 161.53 165.31C161.53 162.48 162.63 160.89 164.43 160.89C165.78 160.89 166.72 161.75 166.92 163L165.96 163C165.78 162.28 165.28 161.74 164.43 161.74C163.19 161.74 162.44 162.88 162.43 164.82L162.5 164.82C162.93 164.16 163.64 163.76 164.47 163.76C165.83 163.76 166.98 164.87 166.98 166.42ZM170.17 164.53C169.15 164.53 168.6 163.79 168.6 162.92L168.6 162.5C168.6 161.62 169.17 160.89 170.17 160.89C171.18 160.89 171.71 161.62 171.71 162.5L171.71 162.92C171.71 163.79 171.17 164.53 170.17 164.53ZM122.54 167.35L118.78 167.35L118.78 166.56L122.29 161L123.46 161L123.46 166.5L124.56 166.5L124.56 167.35L123.46 167.35L123.46 169L122.54 169L122.54 167.35ZM127.13 169L126.17 169L126.17 161L127.13 161L127.13 164.56L131.4 164.56L131.4 161L132.37 161L132.37 169L131.4 169L131.4 165.42L127.13 165.42L127.13 169ZM148.93 167.35L145.17 167.35L145.17 166.56L148.68 161L149.85 161L149.85 166.5L150.95 166.5L150.95 167.35L149.85 167.35L149.85 169L148.93 169L148.93 167.35ZM169.79 169L168.9 169L174.4 161L175.29 161L169.79 169ZM29.96 163.25L20.96 163.25L20.96 161.25L29.96 161.25L29.96 163.25ZM170.17 161.56C169.62 161.56 169.4 162.01 169.4 162.5L169.4 162.92C169.4 163.4 169.61 163.86 170.17 163.86C170.71 163.86 170.92 163.4 170.92 162.92L170.92 162.5C170.92 162.01 170.73 161.56 170.17 161.56ZM119.82 166.5L122.54 166.5L122.54 162.23L122.48 162.23L119.82 166.43L119.82 166.5ZM146.21 166.5L148.93 166.5L148.93 162.23L148.87 162.23L146.21 166.43L146.21 166.5ZM135.56 163.22C135.56 163.61 135.24 163.93 134.85 163.93C134.47 163.93 134.15 163.61 134.15 163.22C134.15 162.83 134.47 162.52 134.85 162.52C135.24 162.52 135.56 162.83 135.56 163.22ZM45.42 168.18C45.23 168.57 44.68 169.14 43.64 169.14C42.5 169.14 41.59 168.46 41.59 167.29C41.59 165.92 42.8 165.67 43.92 165.53C45.01 165.39 45.46 165.43 45.46 164.98L45.46 164.95C45.46 164.18 45.05 163.73 44.2 163.73C43.32 163.73 42.84 164.2 42.63 164.64L41.76 164.32C42.23 163.23 43.26 162.92 44.17 162.92C44.93 162.92 46.39 163.14 46.39 165.04L46.39 169L45.46 169L45.46 168.18L45.42 168.18ZM62.73 166.03C62.73 167.89 61.64 169.12 60.01 169.12C58.39 169.12 57.29 167.89 57.29 166.03C57.29 164.15 58.39 162.92 60.01 162.92C61.64 162.92 62.73 164.15 62.73 166.03ZM68.93 167.24C68.78 168.31 67.9 169.12 66.57 169.12C64.88 169.12 63.85 167.82 63.85 166.03C63.85 164.2 64.93 162.92 66.56 162.92C67.82 162.92 68.78 163.67 68.93 164.79L68.01 164.79C67.87 164.24 67.38 163.75 66.57 163.75C65.49 163.75 64.78 164.64 64.78 166C64.78 167.39 65.48 168.29 66.57 168.29C67.29 168.29 67.84 167.9 68.01 167.24L68.93 167.24ZM81.67 167.6C81.38 168.51 80.5 169.12 79.28 169.12C77.54 169.12 76.48 167.89 76.48 166.04C76.48 164.2 77.56 162.92 79.18 162.92C80.43 162.92 81.76 163.68 81.76 165.92L81.76 166.31L77.4 166.31C77.45 167.59 78.19 168.29 79.28 168.29C80 168.29 80.54 167.98 80.78 167.35L81.67 167.6ZM107.9 167.6C107.62 168.51 106.73 169.12 105.51 169.12C103.78 169.12 102.71 167.89 102.71 166.04C102.71 164.2 103.79 162.92 105.42 162.92C106.67 162.92 108 163.68 108 165.92L108 166.31L103.64 166.31C103.68 167.59 104.43 168.29 105.51 168.29C106.23 168.29 106.78 167.98 107.01 167.35L107.9 167.6ZM52.09 169L51.17 169L51.17 163L55.88 163L55.88 169L54.96 169L54.96 163.86L52.09 163.86L52.09 169ZM70.06 169L69.74 169L69.74 168.14L69.96 168.14C70.68 168.14 70.89 167.67 70.96 165.65L71.07 163L75.07 163L75.07 169L74.15 169L74.15 163.86L71.95 163.86L71.85 166C71.77 167.96 71.38 169 70.06 169ZM83.45 170.71L82.53 170.71L82.53 168.14L83.03 168.14C83.51 167.63 83.73 167.05 83.87 165.37L84.07 163L87.88 163L87.88 168.14L88.81 168.14L88.81 170.71L87.88 170.71L87.88 169L83.45 169L83.45 170.71ZM90.03 163L90.95 163L90.95 165.57L93.82 165.57L93.82 163L94.74 163L94.74 169L93.82 169L93.82 166.43L90.95 166.43L90.95 169L90.03 169L90.03 163ZM97.35 163L97.35 167.64L100.25 163L101.31 163L101.31 169L100.39 169L100.39 164.35L97.51 169L96.43 169L96.43 163L97.35 163ZM58.21 166.03C58.21 167.23 58.78 168.29 60.01 168.29C61.24 168.29 61.81 167.23 61.81 166.03C61.81 164.82 61.24 163.75 60.01 163.75C58.78 163.75 58.21 164.82 58.21 166.03ZM79.18 163.75C78.13 163.75 77.47 164.58 77.4 165.51L80.82 165.51C80.82 164.49 80.18 163.75 79.18 163.75ZM105.42 163.75C104.36 163.75 103.7 164.58 103.64 165.51L107.06 165.51C107.06 164.49 106.42 163.75 105.42 163.75ZM84.78 165.37C84.65 166.62 84.5 167.58 84.07 168.14L86.96 168.14L86.96 163.86L84.93 163.86L84.78 165.37ZM29.96 166L20.96 166L20.96 164L29.96 164L29.96 166ZM140.25 164.57L143.75 164.57L143.75 165.43L140.25 165.43L140.25 164.57ZM155.72 166.43C155.71 167.39 156.45 168.25 157.45 168.25C158.43 168.25 159.18 167.43 159.18 166.42C159.18 165.43 158.46 164.62 157.48 164.62C156.49 164.62 155.72 165.47 155.72 166.43ZM162.57 166.43C162.57 167.39 163.31 168.25 164.31 168.25C165.29 168.25 166.04 167.43 166.04 166.42C166.04 165.43 165.32 164.62 164.34 164.62C163.35 164.62 162.58 165.47 162.57 166.43ZM174.15 169.11C173.14 169.11 172.59 168.37 172.59 167.49L172.59 167.07C172.59 166.2 173.15 165.46 174.15 165.46C175.17 165.46 175.7 166.2 175.7 167.07L175.7 167.49C175.7 168.37 175.15 169.11 174.15 169.11ZM42.51 167.34C42.51 167.98 43.04 168.31 43.78 168.31C44.87 168.31 45.46 167.57 45.46 166.82L45.46 165.98C45.31 166.17 44.26 166.28 43.87 166.32C43.15 166.42 42.51 166.63 42.51 167.34ZM174.15 166.14C173.6 166.14 173.39 166.59 173.39 167.07L173.39 167.49C173.39 167.98 173.59 168.43 174.15 168.43C174.7 168.43 174.9 167.98 174.9 167.49L174.9 167.07C174.9 166.59 174.71 166.14 174.15 166.14ZM135.56 167.27C135.56 167.66 135.24 167.97 134.85 167.97C134.47 167.97 134.15 167.66 134.15 167.27C134.15 166.88 134.47 166.57 134.85 166.57C135.24 166.57 135.56 166.88 135.56 167.27ZM29.96 168.75L20.96 168.75L20.96 166.75L29.96 166.75L29.96 168.75ZM153.43 168.35C153.43 168.74 153.12 169.06 152.73 169.06C152.34 169.06 152.03 168.74 152.03 168.35C152.03 167.97 152.34 167.65 152.73 167.65C153.12 167.65 153.43 167.97 153.43 168.35ZM29.96 171.5L20.96 171.5L20.96 169.5L29.96 169.5L29.96 171.5ZM24.22 186.89C26.29 186.89 27.82 188.44 27.82 191C27.82 193.55 26.29 195.11 24.22 195.11C22.14 195.11 20.62 193.55 20.62 191C20.62 188.44 22.14 186.89 24.22 186.89ZM73.55 187.71C74.1 187.71 74.32 187.36 74.32 186.96L75.28 186.96C75.28 187.84 74.61 188.45 73.55 188.45C72.5 188.45 71.83 187.84 71.83 186.96L72.79 186.96C72.79 187.36 72.99 187.71 73.55 187.71ZM24.22 194C25.6 194 26.63 192.94 26.63 191C26.63 189.05 25.6 187.99 24.22 187.99C22.84 187.99 21.82 189.05 21.82 191C21.82 192.94 22.84 194 24.22 194ZM42.44 197.25L41.28 197.25L41.28 189L42.42 189L42.42 189.97L42.51 189.97C42.72 189.6 43.12 188.92 44.24 188.92C45.69 188.92 46.76 190.06 46.76 192.01C46.76 193.95 45.7 195.11 44.25 195.11C43.16 195.11 42.73 194.44 42.51 194.06L42.44 194.06L42.44 197.25ZM103.98 193.49C103.71 194.47 102.79 195.12 101.48 195.12C99.71 195.12 98.62 193.9 98.62 192.03C98.62 190.19 99.72 188.92 101.39 188.92C102.75 188.92 104.05 189.76 104.05 191.93L104.05 192.35L99.78 192.35C99.82 193.5 100.49 194.15 101.49 194.15C102.15 194.15 102.66 193.86 102.87 193.3L103.98 193.49ZM106.52 197.25L105.35 197.25L105.35 189L106.49 189L106.49 189.97L106.59 189.97C106.8 189.6 107.2 188.92 108.31 188.92C109.76 188.92 110.83 190.06 110.83 192.01C110.83 193.95 109.78 195.11 108.32 195.11C107.23 195.11 106.8 194.44 106.59 194.06L106.52 194.06L106.52 197.25ZM117.23 193.49C116.96 194.47 116.04 195.12 114.73 195.12C112.96 195.12 111.87 193.9 111.87 192.03C111.87 190.19 112.97 188.92 114.64 188.92C116 188.92 117.3 189.76 117.3 191.93L117.3 192.35L113.03 192.35C113.07 193.5 113.74 194.15 114.74 194.15C115.4 194.15 115.91 193.86 116.12 193.3L117.23 193.49ZM123.59 193.1C123.46 194.27 122.55 195.12 121.13 195.12C119.39 195.12 118.33 193.83 118.33 192.02C118.33 190.19 119.42 188.92 121.12 188.92C122.48 188.92 123.47 189.72 123.59 190.93L122.46 190.93C122.33 190.37 121.88 189.9 121.14 189.9C120.16 189.9 119.51 190.71 119.51 192C119.51 193.3 120.15 194.13 121.14 194.13C121.8 194.13 122.31 193.75 122.46 193.1L123.59 193.1ZM30.86 190L28.89 190L28.89 189L33.96 189L33.96 190L32 190L32 195L30.86 195L30.86 190ZM36.36 195L35.19 195L35.19 189L36.36 189L36.36 191.51L36.92 191.51L38.9 189L40.35 189L38.02 191.91L40.38 195L38.92 195L37.11 192.6L36.36 192.6L36.36 195ZM49.21 189L49.21 191.06L50.69 191.06C52.15 191.06 52.98 191.86 52.98 193.02C52.98 194.14 52.15 195 50.69 195L48.06 195L48.06 189L49.21 189ZM55 195L53.83 195L53.83 189L55 189L55 195ZM58.19 190L56.23 190L56.23 189L61.29 189L61.29 190L59.34 190L59.34 195L58.19 195L58.19 190ZM63.67 189L63.67 191.06L65.15 191.06C66.62 191.06 67.44 191.86 67.44 193.02C67.44 194.14 66.62 195 65.15 195L62.53 195L62.53 189L63.67 189ZM69.46 195L68.29 195L68.29 189L69.46 189L69.46 195ZM72.17 189L72.17 193.36L74.81 189L76.07 189L76.07 195L74.93 195L74.93 190.63L72.3 195L71.03 195L71.03 189L72.17 189ZM81.7 189L81.7 193.36L84.35 189L85.61 189L85.61 195L84.46 195L84.46 190.63L81.83 195L80.56 195L80.56 189L81.7 189ZM87.17 189L88.32 189L88.32 191.49L90.92 191.49L90.92 189L92.06 189L92.06 195L90.92 195L90.92 192.5L88.32 192.5L88.32 195L87.17 195L87.17 189ZM94.84 190L92.87 190L92.87 189L97.94 189L97.94 190L95.98 190L95.98 195L94.84 195L94.84 190ZM126.4 189.92C126.4 190.35 126.04 190.7 125.62 190.7C125.19 190.7 124.84 190.35 124.84 189.92C124.84 189.5 125.19 189.14 125.62 189.14C126.04 189.14 126.4 189.5 126.4 189.92ZM101.4 189.88C100.45 189.88 99.83 190.62 99.79 191.47L102.91 191.47C102.9 190.55 102.31 189.88 101.4 189.88ZM114.65 189.88C113.7 189.88 113.08 190.62 113.04 191.47L116.16 191.47C116.15 190.55 115.56 189.88 114.65 189.88ZM43.99 189.91C42.97 189.91 42.42 190.74 42.42 192C42.42 193.26 42.98 194.12 43.99 194.12C45.03 194.12 45.58 193.2 45.58 192C45.58 190.8 45.05 189.91 43.99 189.91ZM108.06 189.91C107.04 189.91 106.5 190.74 106.5 192C106.5 193.26 107.06 194.12 108.06 194.12C109.1 194.12 109.65 193.2 109.65 192C109.65 190.8 109.12 189.91 108.06 189.91ZM50.69 192.07L49.21 192.07L49.21 193.99L50.69 193.99C51.36 193.99 51.84 193.6 51.84 193.05C51.84 192.47 51.36 192.07 50.69 192.07ZM65.15 192.07L63.67 192.07L63.67 193.99L65.15 193.99C65.82 193.99 66.3 193.6 66.3 193.05C66.3 192.47 65.82 192.07 65.15 192.07ZM126.4 194.29C126.4 194.72 126.04 195.07 125.62 195.07C125.19 195.07 124.84 194.72 124.84 194.29C124.84 193.86 125.19 193.51 125.62 193.51C126.04 193.51 126.4 193.86 126.4 194.29ZM29.96 212.5L20.96 212.5L20.96 210.5L29.96 210.5L29.96 212.5ZM113.67 215.56C113.67 214.09 114.72 212.87 116.34 212.89C117.65 212.9 119.12 213.73 119.12 216.67C119.12 219.51 118.01 221.11 116.21 221.11C114.87 221.11 113.92 220.25 113.73 218.98L114.68 218.98C114.85 219.71 115.37 220.25 116.21 220.25C117.45 220.25 118.21 219.12 118.21 217.15L118.15 217.15C117.71 217.81 117.01 218.21 116.18 218.21C114.81 218.21 113.67 217.1 113.67 215.56ZM139.18 216.53C138.17 216.53 137.62 215.79 137.62 214.92L137.62 214.5C137.62 213.62 138.18 212.89 139.18 212.89C140.2 212.89 140.73 213.62 140.73 214.5L140.73 214.92C140.73 215.79 140.18 216.53 139.18 216.53ZM35 221L35 213L35.95 213L35.95 219.29L36.03 219.29L40.4 213L41.34 213L41.34 221L40.37 221L40.37 214.71L40.29 214.71L35.93 221L35 221ZM126.98 219.35L123.22 219.35L123.22 218.56L126.73 213L127.9 213L127.9 218.5L128.99 218.5L128.99 219.35L127.9 219.35L127.9 221L126.98 221L126.98 219.35ZM134.04 219.35L130.28 219.35L130.28 218.56L133.79 213L134.96 213L134.96 218.5L136.06 218.5L136.06 219.35L134.96 219.35L134.96 221L134.04 221L134.04 219.35ZM138.81 221L137.92 221L143.42 213L144.31 213L138.81 221ZM29.96 215.25L20.96 215.25L20.96 213.25L29.96 213.25L29.96 215.25ZM139.18 213.56C138.63 213.56 138.42 214.01 138.42 214.5L138.42 214.92C138.42 215.4 138.62 215.86 139.18 215.86C139.73 215.86 139.93 215.4 139.93 214.92L139.93 214.5C139.93 214.01 139.75 213.56 139.18 213.56ZM118.07 215.54C118.07 214.6 117.34 213.74 116.34 213.74C115.35 213.74 114.61 214.56 114.61 215.56C114.61 216.56 115.32 217.35 116.31 217.35C117.29 217.35 118.07 216.49 118.07 215.54ZM124.26 218.5L126.98 218.5L126.98 214.23L126.92 214.23L124.26 218.43L124.26 218.5ZM131.32 218.5L134.04 218.5L134.04 214.23L133.98 214.23L131.32 218.43L131.32 218.5ZM45.03 221.12C43.75 221.12 42.81 220.45 42.78 219.46L43.76 219.46C43.8 220.01 44.29 220.29 45.01 220.29C45.75 220.29 46.35 220.01 46.35 219.32C46.35 218.73 45.88 218.32 45.15 218.32L44.12 218.32L44.12 217.5L45.15 217.5C45.88 217.5 46.23 217.12 46.23 216.62C46.23 216.09 45.83 215.73 45.14 215.73C44.43 215.73 43.91 216.08 43.89 216.57L42.92 216.57C42.95 215.61 43.84 214.92 45.09 214.92C46.35 214.92 47.17 215.64 47.17 216.59C47.17 217.27 46.74 217.68 46.17 217.86L46.17 217.92C46.84 217.96 47.29 218.57 47.29 219.32C47.29 220.42 46.34 221.12 45.03 221.12ZM61.74 219.6C61.46 220.51 60.57 221.12 59.35 221.12C57.62 221.12 56.56 219.89 56.56 218.04C56.56 216.2 57.64 214.92 59.26 214.92C60.51 214.92 61.84 215.68 61.84 217.92L61.84 218.31L57.48 218.31C57.53 219.59 58.27 220.29 59.35 220.29C60.08 220.29 60.62 219.98 60.85 219.35L61.74 219.6ZM87.49 219.24C87.34 220.31 86.46 221.12 85.14 221.12C83.45 221.12 82.42 219.82 82.42 218.03C82.42 216.2 83.5 214.92 85.12 214.92C86.38 214.92 87.34 215.67 87.49 216.79L86.57 216.79C86.43 216.24 85.95 215.75 85.14 215.75C84.06 215.75 83.34 216.64 83.34 218C83.34 219.39 84.04 220.29 85.14 220.29C85.85 220.29 86.4 219.9 86.57 219.24L87.49 219.24ZM108.06 220.18C107.87 220.57 107.32 221.14 106.28 221.14C105.14 221.14 104.23 220.46 104.23 219.29C104.23 217.92 105.45 217.67 106.56 217.53C107.65 217.39 108.1 217.43 108.1 216.98L108.1 216.95C108.1 216.18 107.69 215.73 106.84 215.73C105.96 215.73 105.48 216.2 105.28 216.64L104.4 216.32C104.87 215.23 105.9 214.92 106.81 214.92C107.57 214.92 109.03 215.14 109.03 217.04L109.03 221L108.1 221L108.1 220.18L108.06 220.18ZM49.81 215L51.87 219.75L53.96 215L55.15 215L55.15 221L54.23 221L54.23 216.41L52.25 221L51.49 221L49.51 216.32L49.51 221L48.59 221L48.59 215L49.81 215ZM63.24 215L64.17 215L64.17 217.57L67.04 217.57L67.04 215L67.96 215L67.96 221L67.04 221L67.04 218.43L64.17 218.43L64.17 221L63.24 221L63.24 215ZM70.57 215L70.57 219.64L73.46 215L74.53 215L74.53 221L73.6 221L73.6 216.35L70.73 221L69.65 221L69.65 215L70.57 215ZM76 221L75.68 221L75.68 220.14L75.9 220.14C76.62 220.14 76.82 219.67 76.9 217.65L77.01 215L81.01 215L81.01 221L80.09 221L80.09 215.86L77.89 215.86L77.79 218C77.71 219.96 77.32 221 76 221ZM93.32 221L92.45 221L92.45 218.56L90.84 218.56L89.45 221L88.45 221L89.91 218.43C89.19 218.19 88.78 217.6 88.78 216.78C88.78 215.67 89.56 215 90.86 215L93.32 215L93.32 221ZM98.1 215L99.03 215L99.03 217.57L101.9 217.57L101.9 215L102.82 215L102.82 221L101.9 221L101.9 218.43L99.03 218.43L99.03 221L98.1 221L98.1 215ZM59.26 215.75C58.21 215.75 57.54 216.58 57.48 217.51L60.9 217.51C60.9 216.49 60.26 215.75 59.26 215.75ZM90.75 217.7L92.45 217.7L92.45 215.84L90.86 215.84C90.14 215.84 89.7 216.19 89.7 216.78C89.7 217.35 90.09 217.7 90.75 217.7ZM29.96 218L20.96 218L20.96 216L29.96 216L29.96 218ZM143.17 221.11C142.15 221.11 141.61 220.37 141.61 219.49L141.61 219.07C141.61 218.2 142.17 217.46 143.17 217.46C144.18 217.46 144.71 218.2 144.71 219.07L144.71 219.49C144.71 220.37 144.17 221.11 143.17 221.11ZM105.15 219.34C105.15 219.98 105.68 220.31 106.42 220.31C107.51 220.31 108.1 219.57 108.1 218.82L108.1 217.98C107.95 218.17 106.9 218.28 106.51 218.32C105.79 218.42 105.15 218.63 105.15 219.34ZM143.17 218.14C142.62 218.14 142.4 218.59 142.4 219.07L142.4 219.49C142.4 219.98 142.6 220.43 143.17 220.43C143.71 220.43 143.92 219.98 143.92 219.49L143.92 219.07C143.92 218.59 143.73 218.14 143.17 218.14ZM29.96 220.75L20.96 220.75L20.96 218.75L29.96 218.75L29.96 220.75ZM121.76 220.35C121.76 220.74 121.44 221.06 121.06 221.06C120.67 221.06 120.36 220.74 120.36 220.35C120.36 219.97 120.67 219.65 121.06 219.65C121.44 219.65 121.76 219.97 121.76 220.35ZM29.96 223.5L20.96 223.5L20.96 221.5L29.96 221.5L29.96 223.5ZM106.87 239.37C106.87 239.74 106.58 240.05 106.19 240.05C105.82 240.05 105.5 239.74 105.5 239.37C105.5 238.99 105.82 238.69 106.19 238.69C106.58 238.69 106.87 238.99 106.87 239.37ZM109.17 239.37C109.17 239.74 108.87 240.05 108.48 240.05C108.12 240.05 107.79 239.74 107.79 239.37C107.79 238.99 108.12 238.69 108.48 238.69C108.87 238.69 109.17 238.99 109.17 239.37ZM94.56 238.99C95.18 239 95.62 239 95.92 238.76L96.4 239.5C95.87 239.99 95.14 239.99 93.98 240.02C92.69 240.06 92.12 240.82 91.98 242.34L92.06 242.34C92.45 241.59 93.17 241.22 94.05 241.22C95.49 241.22 96.56 242.24 96.56 244.08C96.56 245.95 95.47 247.12 93.8 247.12C92.12 247.12 91.03 245.96 91.03 243.75L91.03 243.16C91.03 240.42 92.01 239.04 93.96 239C94.17 238.99 94.37 238.99 94.56 238.99ZM210.6 247L205.34 247L205.34 246.12L208.05 243.32C208.91 242.41 209.33 241.9 209.33 241.19C209.33 240.39 208.71 239.89 207.9 239.89C207.04 239.89 206.48 240.46 206.48 241.32L205.33 241.32C205.33 239.85 206.43 238.89 207.92 238.89C209.43 238.89 210.48 239.87 210.48 241.15C210.48 242.05 210.06 242.76 208.59 244.24L207 245.9L207 245.96L210.6 245.96L210.6 247ZM20.87 247L20.87 239L22.07 239L22.07 244.87L22.14 244.87L26.21 239L27.33 239L27.33 247L26.12 247L26.12 241.13L26.05 241.13L21.99 247L20.87 247ZM215.54 245.43L211.75 245.43L211.75 244.46L215.2 239L216.69 239L216.69 244.41L217.75 244.41L217.75 245.43L216.69 245.43L216.69 247L215.54 247L215.54 245.43ZM213.01 244.41L215.55 244.41L215.55 240.43L215.48 240.43L213.01 244.35L213.01 244.41ZM30.99 247.12C29.65 247.12 28.67 246.46 28.64 245.41L29.83 245.41C29.87 245.9 30.32 246.18 30.98 246.18C31.65 246.18 32.19 245.9 32.19 245.28C32.19 244.74 31.77 244.37 31.1 244.37L30.12 244.37L30.12 243.46L31.1 243.46C31.76 243.46 32.09 243.12 32.09 242.66C32.09 242.17 31.72 241.85 31.09 241.85C30.46 241.85 29.99 242.16 29.97 242.61L28.79 242.61C28.81 241.6 29.75 240.92 31.04 240.92C32.37 240.92 33.21 241.61 33.21 242.6C33.21 243.26 32.78 243.68 32.15 243.86L32.15 243.92C32.85 243.97 33.34 244.55 33.34 245.33C33.34 246.43 32.35 247.12 30.99 247.12ZM47.95 245.49C47.69 246.47 46.76 247.12 45.45 247.12C43.68 247.12 42.6 245.9 42.6 244.03C42.6 242.19 43.7 240.92 45.37 240.92C46.73 240.92 48.03 241.76 48.03 243.93L48.03 244.35L43.76 244.35C43.79 245.5 44.46 246.15 45.46 246.15C46.13 246.15 46.64 245.86 46.85 245.3L47.95 245.49ZM60.85 245.49C60.59 246.47 59.66 247.12 58.35 247.12C56.58 247.12 55.5 245.9 55.5 244.03C55.5 242.19 56.6 240.92 58.27 240.92C59.63 240.92 60.93 241.76 60.93 243.93L60.93 244.35L56.66 244.35C56.69 245.5 57.37 246.15 58.37 246.15C59.03 246.15 59.54 245.86 59.75 245.3L60.85 245.49ZM80.37 245.49C80.11 246.47 79.18 247.12 77.87 247.12C76.1 247.12 75.02 245.9 75.02 244.03C75.02 242.19 76.12 240.92 77.79 240.92C79.15 240.92 80.45 241.76 80.45 243.93L80.45 244.35L76.18 244.35C76.21 245.5 76.88 246.15 77.89 246.15C78.55 246.15 79.06 245.86 79.27 245.3L80.37 245.49ZM89.99 244.02C89.99 245.88 88.88 247.12 87.19 247.12C85.5 247.12 84.39 245.88 84.39 244.02C84.39 242.16 85.5 240.92 87.19 240.92C88.88 240.92 89.99 242.16 89.99 244.02ZM109.96 245.49C109.69 246.47 108.77 247.12 107.46 247.12C105.69 247.12 104.6 245.9 104.6 244.03C104.6 242.19 105.71 240.92 107.38 240.92C108.74 240.92 110.04 241.76 110.04 243.93L110.04 244.35L105.77 244.35C105.8 245.5 106.47 246.15 107.47 246.15C108.14 246.15 108.64 245.86 108.86 245.3L109.96 245.49ZM123.17 246.18C122.95 246.62 122.39 247.13 121.4 247.13C120.26 247.13 119.37 246.48 119.37 245.3C119.37 243.94 120.53 243.64 121.67 243.51C122.75 243.38 123.19 243.39 123.19 242.96L123.19 242.94C123.19 242.26 122.8 241.86 122.05 241.86C121.26 241.86 120.82 242.27 120.65 242.7L119.55 242.45C119.94 241.36 120.95 240.92 122.03 240.92C122.98 240.92 124.36 241.26 124.36 243.01L124.36 247L123.22 247L123.22 246.18L123.17 246.18ZM130.82 247.12C129.49 247.12 128.51 246.46 128.47 245.41L129.67 245.41C129.7 245.9 130.15 246.18 130.81 246.18C131.48 246.18 132.02 245.9 132.02 245.28C132.02 244.74 131.6 244.37 130.93 244.37L129.96 244.37L129.96 243.46L130.93 243.46C131.59 243.46 131.92 243.12 131.92 242.66C131.92 242.17 131.56 241.85 130.92 241.85C130.29 241.85 129.82 242.16 129.8 242.61L128.62 242.61C128.64 241.6 129.59 240.92 130.87 240.92C132.2 240.92 133.05 241.61 133.05 242.6C133.05 243.26 132.61 243.68 131.98 243.86L131.98 243.92C132.68 243.97 133.17 244.55 133.17 245.33C133.17 246.43 132.19 247.12 130.82 247.12ZM137.9 246.18C137.68 246.62 137.12 247.13 136.13 247.13C134.99 247.13 134.1 246.48 134.1 245.3C134.1 243.94 135.26 243.64 136.4 243.51C137.48 243.38 137.92 243.39 137.92 242.96L137.92 242.94C137.92 242.26 137.53 241.86 136.78 241.86C135.99 241.86 135.55 242.27 135.38 242.7L134.28 242.45C134.67 241.36 135.67 240.92 136.76 240.92C137.71 240.92 139.09 241.26 139.09 243.01L139.09 247L137.95 247L137.95 246.18L137.9 246.18ZM155.34 244.02C155.34 245.88 154.24 247.12 152.55 247.12C150.86 247.12 149.75 245.88 149.75 244.02C149.75 242.16 150.86 240.92 152.55 240.92C154.24 240.92 155.34 242.16 155.34 244.02ZM161.64 245.1C161.51 246.27 160.59 247.12 159.17 247.12C157.43 247.12 156.37 245.83 156.37 244.02C156.37 242.19 157.47 240.92 159.16 240.92C160.52 240.92 161.51 241.72 161.64 242.93L160.5 242.93C160.37 242.37 159.92 241.9 159.18 241.9C158.2 241.9 157.55 242.71 157.55 244C157.55 245.3 158.19 246.13 159.18 246.13C159.85 246.13 160.35 245.75 160.5 245.1L161.64 245.1ZM174.51 245.49C174.25 246.47 173.32 247.12 172.01 247.12C170.24 247.12 169.16 245.9 169.16 244.03C169.16 242.19 170.26 240.92 171.93 240.92C173.29 240.92 174.59 241.76 174.59 243.93L174.59 244.35L170.32 244.35C170.35 245.5 171.03 246.15 172.03 246.15C172.69 246.15 173.2 245.86 173.41 245.3L174.51 245.49ZM201.07 245.49C200.8 246.47 199.88 247.12 198.57 247.12C196.8 247.12 195.71 245.9 195.71 244.03C195.71 242.19 196.81 240.92 198.48 240.92C199.84 240.92 201.14 241.76 201.14 243.93L201.14 244.35L196.87 244.35C196.91 245.5 197.58 246.15 198.58 246.15C199.24 246.15 199.75 245.86 199.96 245.3L201.07 245.49ZM231.93 246.18C231.71 246.62 231.15 247.13 230.16 247.13C229.02 247.13 228.13 246.48 228.13 245.3C228.13 243.94 229.3 243.64 230.43 243.51C231.51 243.38 231.95 243.39 231.95 242.96L231.95 242.94C231.95 242.26 231.56 241.86 230.81 241.86C230.02 241.86 229.59 242.27 229.41 242.7L228.32 242.45C228.71 241.36 229.71 240.92 230.79 240.92C231.75 240.92 233.12 241.26 233.12 243.01L233.12 247L231.98 247L231.98 246.18L231.93 246.18ZM239.67 245.1C239.54 246.27 238.62 247.12 237.2 247.12C235.46 247.12 234.41 245.83 234.41 244.02C234.41 242.19 235.5 240.92 237.19 240.92C238.55 240.92 239.54 241.72 239.67 242.93L238.53 242.93C238.4 242.37 237.95 241.9 237.21 241.9C236.23 241.9 235.58 242.71 235.58 244C235.58 245.3 236.22 246.13 237.21 246.13C237.88 246.13 238.38 245.75 238.53 245.1L239.67 245.1ZM244.44 246.18C244.22 246.62 243.66 247.13 242.67 247.13C241.53 247.13 240.64 246.48 240.64 245.3C240.64 243.94 241.8 243.64 242.94 243.51C244.02 243.38 244.46 243.39 244.46 242.96L244.46 242.94C244.46 242.26 244.07 241.86 243.32 241.86C242.53 241.86 242.09 242.27 241.92 242.7L240.82 242.45C241.21 241.36 242.21 240.92 243.3 240.92C244.25 240.92 245.63 241.26 245.63 243.01L245.63 247L244.49 247L244.49 246.18L244.44 246.18ZM225.71 241L226.86 241L226.86 247L225.71 247L225.71 245C225.33 245.1 224.92 245.16 224.47 245.16C222.98 245.16 222.04 244.44 222.04 242.95L222.04 240.98L223.18 240.98L223.18 242.95C223.18 243.79 223.67 244.15 224.47 244.15C224.92 244.15 225.32 244.09 225.71 243.99L225.71 241ZM36.02 241L37.92 245.55L39.86 241L41.31 241L41.31 247L40.17 247L40.17 242.65L38.35 247L37.48 247L35.7 242.63L35.7 247L34.55 247L34.55 241L36.02 241ZM49.33 241L50.47 241L50.47 243.49L53.07 243.49L53.07 241L54.21 241L54.21 247L53.07 247L53.07 244.5L50.47 244.5L50.47 247L49.33 247L49.33 241ZM62.23 241L63.38 241L63.38 243.49L65.97 243.49L65.97 241L67.11 241L67.11 247L65.97 247L65.97 244.5L63.38 244.5L63.38 247L62.23 247L62.23 241ZM69.82 241L69.82 245.36L72.46 241L73.72 241L73.72 247L72.57 247L72.57 242.63L69.94 247L68.67 247L68.67 241L69.82 241ZM99.8 241L99.8 243.06L101.28 243.06C102.75 243.06 103.57 243.86 103.57 245.02C103.57 246.14 102.75 247 101.28 247L98.65 247L98.65 242.01L97.03 242.01L97.03 241L99.8 241ZM112.8 241L114.7 245.55L116.64 241L118.09 241L118.09 247L116.96 247L116.96 242.65L115.14 247L114.27 247L112.48 242.63L112.48 247L111.33 247L111.33 241L112.8 241ZM144.7 247L143.56 247L143.56 241L148.45 241L148.45 247L147.31 247L147.31 242L144.7 242L144.7 247ZM162.79 247L162.42 247L162.41 245.98L162.63 245.98C163.3 245.98 163.51 245.5 163.58 243.65L163.69 241L167.87 241L167.87 247L166.73 247L166.73 242L164.77 242L164.67 244.04C164.58 246.03 164.1 247 162.79 247ZM176.46 248.72L175.3 248.72L175.3 245.98L175.79 245.98C176.29 245.53 176.47 244.75 176.6 243.23L176.78 241L180.86 241L180.86 245.98L181.78 245.98L181.78 248.72L180.65 248.72L180.65 247L176.46 247L176.46 248.72ZM182.92 241L184.07 241L184.07 243.49L186.66 243.49L186.66 241L187.81 241L187.81 247L186.66 247L186.66 244.5L184.07 244.5L184.07 247L182.92 247L182.92 241ZM190.51 241L190.51 245.36L193.15 241L194.41 241L194.41 247L193.26 247L193.26 242.63L190.63 247L189.36 247L189.36 241L190.51 241ZM248.73 241.92C248.73 242.35 248.38 242.7 247.95 242.7C247.52 242.7 247.17 242.35 247.17 241.92C247.17 241.5 247.52 241.14 247.95 241.14C248.38 241.14 248.73 241.5 248.73 241.92ZM45.38 241.88C44.43 241.88 43.81 242.62 43.76 243.47L46.88 243.47C46.88 242.55 46.28 241.88 45.38 241.88ZM58.28 241.88C57.33 241.88 56.71 242.62 56.67 243.47L59.79 243.47C59.78 242.55 59.19 241.88 58.28 241.88ZM77.8 241.88C76.85 241.88 76.23 242.62 76.19 243.47L79.3 243.47C79.3 242.55 78.71 241.88 77.8 241.88ZM107.39 241.88C106.44 241.88 105.82 242.62 105.77 243.47L108.89 243.47C108.89 242.55 108.29 241.88 107.39 241.88ZM171.94 241.88C170.99 241.88 170.37 242.62 170.33 243.47L173.45 243.47C173.44 242.55 172.85 241.88 171.94 241.88ZM198.49 241.88C197.54 241.88 196.92 242.62 196.88 243.47L200 243.47C199.99 242.55 199.4 241.88 198.49 241.88ZM85.57 244.02C85.57 245.17 86.09 246.14 87.19 246.14C88.29 246.14 88.81 245.17 88.81 244.02C88.81 242.87 88.29 241.89 87.19 241.89C86.09 241.89 85.57 242.87 85.57 244.02ZM150.93 244.02C150.93 245.17 151.44 246.14 152.55 246.14C153.65 246.14 154.16 245.17 154.16 244.02C154.16 242.87 153.65 241.89 152.55 241.89C151.44 241.89 150.93 242.87 150.93 244.02ZM177.71 243.23C177.59 244.5 177.44 245.42 177.04 245.98L179.72 245.98L179.72 242L177.83 242L177.71 243.23ZM92.2 244.11C92.2 245.34 92.81 246.14 93.8 246.14C94.78 246.14 95.38 245.35 95.38 244.11C95.38 242.89 94.78 242.19 93.79 242.19C92.82 242.19 92.22 242.89 92.2 244.11ZM120.52 245.32C120.52 245.89 120.99 246.19 121.65 246.19C122.62 246.19 123.19 245.54 123.19 244.83L123.19 244.06C123.02 244.23 122.12 244.33 121.75 244.38C121.07 244.47 120.52 244.69 120.52 245.32ZM135.25 245.32C135.25 245.89 135.72 246.19 136.38 246.19C137.35 246.19 137.92 245.54 137.92 244.83L137.92 244.06C137.75 244.23 136.85 244.33 136.48 244.38C135.8 244.47 135.25 244.69 135.25 245.32ZM229.28 245.32C229.28 245.89 229.75 246.19 230.41 246.19C231.39 246.19 231.95 245.54 231.95 244.83L231.95 244.06C231.79 244.23 230.89 244.33 230.51 244.38C229.83 244.47 229.28 244.69 229.28 245.32ZM241.79 245.32C241.79 245.89 242.26 246.19 242.92 246.19C243.89 246.19 244.46 245.54 244.46 244.83L244.46 244.06C244.29 244.23 243.39 244.33 243.02 244.38C242.34 244.47 241.79 244.69 241.79 245.32ZM101.28 244.07L99.8 244.07L99.8 245.99L101.28 245.99C101.95 245.99 102.43 245.6 102.43 245.05C102.43 244.47 101.95 244.07 101.28 244.07ZM248.73 246.29C248.73 246.72 248.38 247.07 247.95 247.07C247.52 247.07 247.17 246.72 247.17 246.29C247.17 245.86 247.52 245.51 247.95 245.51C248.38 245.51 248.73 245.86 248.73 246.29ZM30.11 264.5L21.02 264.5L21.02 262.5L30.11 262.5L30.11 264.5ZM119.04 273L113.99 273L113.99 272.29L116.64 269.4C117.56 268.39 118 267.84 118 267.11C118 266.26 117.33 265.73 116.47 265.73C115.54 265.73 114.95 266.34 114.95 267.25L114.03 267.25C114.03 265.84 115.09 264.89 116.49 264.89C117.9 264.89 118.9 265.87 118.9 267.11C118.9 267.99 118.5 268.68 117.12 270.15L115.32 272.07L115.32 272.14L119.04 272.14L119.04 273ZM126.06 270.82C126.06 272.13 124.9 273.1 123.36 273.1C121.8 273.1 120.69 272.25 120.64 270.99L121.62 270.99C121.68 271.77 122.41 272.25 123.34 272.25C124.37 272.25 125.11 271.67 125.11 270.82C125.11 269.94 124.43 269.32 123.22 269.32L122.57 269.32L122.57 268.46L123.22 268.46C124.16 268.46 124.82 267.92 124.82 267.07C124.82 266.26 124.25 265.73 123.37 265.73C122.54 265.73 121.78 266.2 121.75 267L120.81 267C120.85 265.74 122 264.89 123.39 264.89C124.87 264.89 125.76 265.89 125.76 267.03C125.76 267.93 125.26 268.59 124.45 268.84L124.45 268.9C125.46 269.07 126.06 269.81 126.06 270.82ZM135.48 273L130.43 273L130.43 272.29L133.07 269.4C134 268.39 134.43 267.84 134.43 267.11C134.43 266.26 133.77 265.73 132.9 265.73C131.98 265.73 131.39 266.34 131.39 267.25L130.46 267.25C130.46 265.84 131.53 264.89 132.93 264.89C134.34 264.89 135.34 265.87 135.34 267.11C135.34 267.99 134.93 268.68 133.56 270.15L131.76 272.07L131.76 272.14L135.48 272.14L135.48 273ZM142.49 270.82C142.49 272.13 141.34 273.1 139.79 273.1C138.24 273.1 137.13 272.25 137.07 270.99L138.06 270.99C138.12 271.77 138.85 272.25 139.78 272.25C140.81 272.25 141.54 271.67 141.54 270.82C141.54 269.94 140.87 269.32 139.65 269.32L139.01 269.32L139.01 268.46L139.65 268.46C140.6 268.46 141.26 267.92 141.26 267.07C141.26 266.26 140.69 265.73 139.81 265.73C138.98 265.73 138.22 266.2 138.18 267L137.25 267C137.29 265.74 138.44 264.89 139.82 264.89C141.3 264.89 142.2 265.89 142.2 267.03C142.2 267.93 141.69 268.59 140.89 268.84L140.89 268.9C141.89 269.07 142.49 269.81 142.49 270.82ZM145.75 268.53C144.73 268.53 144.18 267.79 144.18 266.92L144.18 266.5C144.18 265.62 144.75 264.89 145.75 264.89C146.76 264.89 147.29 265.62 147.29 266.5L147.29 266.92C147.29 267.79 146.74 268.53 145.75 268.53ZM35.2 273L35.2 265L36.15 265L36.15 271.29L36.23 271.29L40.6 265L41.54 265L41.54 273L40.57 273L40.57 266.71L40.49 266.71L36.14 273L35.2 273ZM145.37 273L144.48 273L149.98 265L150.87 265L145.37 273ZM30.11 267.25L21.02 267.25L21.02 265.25L30.11 265.25L30.11 267.25ZM145.75 265.56C145.2 265.56 144.98 266.01 144.98 266.5L144.98 266.92C144.98 267.4 145.18 267.85 145.75 267.85C146.29 267.85 146.49 267.4 146.49 266.92L146.49 266.5C146.49 266.01 146.31 265.56 145.75 265.56ZM45.23 273.12C43.95 273.12 43.01 272.45 42.98 271.46L43.96 271.46C44.01 272.01 44.49 272.29 45.22 272.29C45.95 272.29 46.56 272.01 46.56 271.32C46.56 270.73 46.09 270.32 45.35 270.32L44.32 270.32L44.32 269.5L45.35 269.5C46.09 269.5 46.43 269.12 46.43 268.62C46.43 268.09 46.04 267.73 45.34 267.73C44.63 267.73 44.12 268.08 44.09 268.57L43.12 268.57C43.15 267.6 44.04 266.92 45.29 266.92C46.56 266.92 47.37 267.64 47.37 268.59C47.37 269.26 46.94 269.68 46.37 269.86L46.37 269.92C47.05 269.96 47.5 270.57 47.5 271.32C47.5 272.42 46.54 273.12 45.23 273.12ZM61.95 271.6C61.67 272.51 60.78 273.12 59.56 273.12C57.82 273.12 56.76 271.89 56.76 270.04C56.76 268.2 57.84 266.92 59.46 266.92C60.71 266.92 62.04 267.68 62.04 269.92L62.04 270.31L57.69 270.31C57.73 271.59 58.48 272.29 59.56 272.29C60.28 272.29 60.82 271.98 61.06 271.35L61.95 271.6ZM87.7 271.24C87.54 272.31 86.67 273.12 85.34 273.12C83.65 273.12 82.62 271.82 82.62 270.03C82.62 268.2 83.7 266.92 85.32 266.92C86.59 266.92 87.54 267.67 87.7 268.79L86.78 268.79C86.64 268.24 86.15 267.75 85.34 267.75C84.26 267.75 83.54 268.64 83.54 270C83.54 271.39 84.25 272.29 85.34 272.29C86.06 272.29 86.6 271.9 86.78 271.24L87.7 271.24ZM108.26 272.18C108.07 272.57 107.53 273.14 106.48 273.14C105.34 273.14 104.43 272.46 104.43 271.29C104.43 269.92 105.65 269.67 106.76 269.53C107.86 269.39 108.31 269.43 108.31 268.98L108.31 268.95C108.31 268.18 107.89 267.73 107.04 267.73C106.16 267.73 105.68 268.2 105.48 268.64L104.6 268.32C105.07 267.23 106.1 266.92 107.01 266.92C107.78 266.92 109.23 267.14 109.23 269.04L109.23 273L108.31 273L108.31 272.18L108.26 272.18ZM50.01 267L52.07 271.75L54.17 267L55.35 267L55.35 273L54.43 273L54.43 268.41L52.45 273L51.7 273L49.71 268.32L49.71 273L48.79 273L48.79 267L50.01 267ZM63.45 267L64.37 267L64.37 269.57L67.25 269.57L67.25 267L68.17 267L68.17 273L67.25 273L67.25 270.43L64.37 270.43L64.37 273L63.45 273L63.45 267ZM70.78 267L70.78 271.64L73.67 267L74.73 267L74.73 273L73.81 273L73.81 268.35L70.93 273L69.85 273L69.85 267L70.78 267ZM76.2 273L75.88 273L75.88 272.14L76.1 272.14C76.82 272.14 77.03 271.67 77.1 269.65L77.21 267L81.21 267L81.21 273L80.29 273L80.29 267.85L78.09 267.85L78 270C77.91 271.96 77.53 273 76.2 273ZM93.53 273L92.65 273L92.65 270.56L91.04 270.56L89.65 273L88.65 273L90.12 270.43C89.39 270.19 88.98 269.6 88.98 268.78C88.98 267.67 89.76 267 91.06 267L93.53 267L93.53 273ZM98.31 267L99.23 267L99.23 269.57L102.1 269.57L102.1 267L103.03 267L103.03 273L102.1 273L102.1 270.43L99.23 270.43L99.23 273L98.31 273L98.31 267ZM59.46 267.75C58.41 267.75 57.75 268.58 57.69 269.51L61.1 269.51C61.1 268.49 60.46 267.75 59.46 267.75ZM90.95 269.7L92.65 269.7L92.65 267.84L91.06 267.84C90.34 267.84 89.9 268.19 89.9 268.78C89.9 269.35 90.3 269.7 90.95 269.7ZM30.11 270L21.02 270L21.02 268L30.11 268L30.11 270ZM149.73 273.1C148.72 273.1 148.17 272.37 148.17 271.49L148.17 271.07C148.17 270.2 148.73 269.46 149.73 269.46C150.75 269.46 151.28 270.2 151.28 271.07L151.28 271.49C151.28 272.37 150.73 273.1 149.73 273.1ZM105.36 271.34C105.36 271.98 105.89 272.31 106.62 272.31C107.71 272.31 108.31 271.57 108.31 270.82L108.31 269.98C108.15 270.17 107.1 270.28 106.71 270.32C105.99 270.42 105.36 270.63 105.36 271.34ZM149.73 270.14C149.18 270.14 148.97 270.59 148.97 271.07L148.97 271.49C148.97 271.98 149.17 272.43 149.73 272.43C150.28 272.43 150.48 271.98 150.48 271.49L150.48 271.07C150.48 270.59 150.29 270.14 149.73 270.14ZM30.11 272.75L21.02 272.75L21.02 270.75L30.11 270.75L30.11 272.75ZM128.79 272.35C128.79 272.74 128.47 273.06 128.09 273.06C127.7 273.06 127.39 272.74 127.39 272.35C127.39 271.97 127.7 271.65 128.09 271.65C128.47 271.65 128.79 271.97 128.79 272.35ZM30.11 275.5L21.02 275.5L21.02 273.5L30.11 273.5L30.11 275.5ZM20.57 299L20.28 299L20.28 298.1L20.51 298.1C21.51 298.1 21.77 297.21 21.85 294.85L22 291L26.87 291L26.87 299L25.9 299L25.9 291.85L22.92 291.85L22.79 295.04C22.69 297.56 22.34 299 20.57 299ZM64.29 298.18C64.1 298.57 63.56 299.14 62.51 299.14C61.37 299.14 60.46 298.46 60.46 297.29C60.46 295.92 61.68 295.67 62.79 295.53C63.89 295.39 64.34 295.43 64.34 294.98L64.34 294.95C64.34 294.18 63.92 293.73 63.07 293.73C62.19 293.73 61.71 294.2 61.51 294.64L60.63 294.32C61.1 293.23 62.14 292.92 63.04 292.92C63.81 292.92 65.26 293.14 65.26 295.04L65.26 299L64.34 299L64.34 298.18L64.29 298.18ZM29.6 293L29.6 297.64L32.5 293L33.56 293L33.56 299L32.64 299L32.64 294.35L29.76 299L28.68 299L28.68 293L29.6 293ZM36.17 299L35.24 299L35.24 293L36.17 293L36.17 295.6L36.78 295.6L38.93 293L40.12 293L37.7 295.89L40.15 299L38.96 299L37 296.46L36.17 296.46L36.17 299ZM43.98 299L41.15 299L41.15 293L43.61 293C44.89 293 45.71 293.63 45.71 294.59C45.71 295.32 45.23 295.7 44.56 295.84C45.22 295.94 45.93 296.44 45.93 297.39C45.93 298.31 45.2 299 43.98 299ZM48.24 293L48.24 297.64L51.14 293L52.2 293L52.2 299L51.28 299L51.28 294.35L48.4 299L47.32 299L47.32 293L48.24 293ZM54.17 300.71L53.25 300.71L53.25 298.14L53.75 298.14C54.23 297.63 54.44 297.05 54.59 295.37L54.79 293L58.6 293L58.6 298.14L59.53 298.14L59.53 300.71L58.6 300.71L58.6 299L54.17 299L54.17 300.71ZM70.75 293L71.67 293L71.67 298.14L72.51 298.14L72.51 300.93L71.59 300.93L71.59 299L66.95 299L66.95 293L67.87 293L67.87 298.14L70.75 298.14L70.75 293ZM74.85 293L74.85 297.64L77.75 293L78.81 293L78.81 299L77.89 299L77.89 294.35L75.01 299L73.93 299L73.93 293L74.85 293ZM81.42 293L81.42 297.64L84.31 293L85.37 293L85.37 299L84.45 299L84.45 294.35L81.57 299L80.49 299L80.49 293L81.42 293ZM88.43 293.9C88.43 294.29 88.12 294.6 87.73 294.6C87.34 294.6 87.03 294.29 87.03 293.9C87.03 293.51 87.34 293.2 87.73 293.2C88.12 293.2 88.43 293.51 88.43 293.9ZM42.03 293.84L42.03 295.51L43.61 295.51C44.34 295.51 44.79 295.19 44.79 294.65C44.79 294.15 44.34 293.84 43.61 293.84L42.03 293.84ZM55.49 295.37C55.36 296.62 55.21 297.58 54.79 298.14L57.68 298.14L57.68 293.85L55.65 293.85L55.49 295.37ZM61.39 297.34C61.39 297.98 61.92 298.31 62.65 298.31C63.74 298.31 64.34 297.57 64.34 296.82L64.34 295.98C64.18 296.17 63.13 296.28 62.75 296.32C62.03 296.42 61.39 296.63 61.39 297.34ZM42.03 296.31L42.03 298.15L43.98 298.15C44.61 298.15 44.99 297.83 44.99 297.31C44.99 296.69 44.61 296.31 43.98 296.31L42.03 296.31ZM88.43 298.35C88.43 298.74 88.12 299.06 87.73 299.06C87.34 299.06 87.03 298.74 87.03 298.35C87.03 297.97 87.34 297.65 87.73 297.65C88.12 297.65 88.43 297.97 88.43 298.35ZM30.11 316.5L21.02 316.5L21.02 314.5L30.11 314.5L30.11 316.5ZM159.35 322.42C159.35 323.91 158.3 325.12 156.68 325.1C155.37 325.09 153.9 324.26 153.9 321.31C153.9 318.48 155 316.89 156.81 316.89C158.15 316.89 159.1 317.75 159.29 319L158.34 319C158.16 318.28 157.65 317.74 156.81 317.74C155.57 317.74 154.81 318.88 154.81 320.82L154.87 320.82C155.31 320.16 156.02 319.76 156.84 319.76C158.21 319.76 159.35 320.87 159.35 322.42ZM165.93 325L160.89 325L160.89 324.29L163.53 321.4C164.45 320.39 164.89 319.84 164.89 319.11C164.89 318.26 164.22 317.73 163.36 317.73C162.43 317.73 161.84 318.34 161.84 319.25L160.92 319.25C160.92 317.84 161.98 316.89 163.39 316.89C164.79 316.89 165.79 317.87 165.79 319.11C165.79 319.99 165.39 320.68 164.01 322.15L162.21 324.07L162.21 324.14L165.93 324.14L165.93 325ZM41.06 325L39.9 325L37.15 321.32L36.17 321.32L36.17 325L35.2 325L35.2 317L36.17 317L36.17 320.46L36.59 320.46L39.79 317L40.95 317L37.71 320.51L41.06 325ZM144.04 317L145.01 317L145.01 325L144.04 325L144.04 318.01L143.99 318.01L142.04 319.31L142.04 318.32L144.04 317ZM150.76 317L151.73 317L151.73 325L150.76 325L150.76 318.01L150.71 318.01L148.76 319.31L148.76 318.32L150.76 317ZM173.54 325L172.39 325L169.64 321.32L168.65 321.32L168.65 325L167.68 325L167.68 317L168.65 317L168.65 320.46L169.07 320.46L172.28 317L173.43 317L170.2 320.51L173.54 325ZM30.11 319.25L21.02 319.25L21.02 317.25L30.11 317.25L30.11 319.25ZM46.9 322.03C46.9 323.89 45.81 325.12 44.18 325.12C42.56 325.12 41.46 323.89 41.46 322.03C41.46 320.15 42.56 318.92 44.18 318.92C45.81 318.92 46.9 320.15 46.9 322.03ZM49.23 327.25L48.31 327.25L48.31 319L49.2 319L49.2 319.95L49.31 319.95C49.51 319.64 49.87 318.92 51.04 318.92C52.56 318.92 53.61 320.12 53.61 322.01C53.61 323.92 52.56 325.12 51.06 325.12C49.9 325.12 49.51 324.4 49.31 324.07L49.23 324.07L49.23 327.25ZM60.17 322.03C60.17 323.89 59.07 325.12 57.45 325.12C55.82 325.12 54.73 323.89 54.73 322.03C54.73 320.15 55.82 318.92 57.45 318.92C59.07 318.92 60.17 320.15 60.17 322.03ZM84.39 323.6C84.1 324.51 83.21 325.12 82 325.12C80.26 325.12 79.2 323.89 79.2 322.04C79.2 320.2 80.28 318.92 81.9 318.92C83.15 318.92 84.48 319.68 84.48 321.92L84.48 322.31L80.12 322.31C80.17 323.59 80.91 324.29 82 324.29C82.72 324.29 83.26 323.98 83.49 323.35L84.39 323.6ZM100.54 322.03C100.54 323.89 99.45 325.12 97.82 325.12C96.2 325.12 95.1 323.89 95.1 322.03C95.1 320.15 96.2 318.92 97.82 318.92C99.45 318.92 100.54 320.15 100.54 322.03ZM103.82 325.12C102.55 325.12 101.6 324.45 101.57 323.46L102.56 323.46C102.6 324.01 103.08 324.29 103.81 324.29C104.55 324.29 105.15 324.01 105.15 323.32C105.15 322.73 104.68 322.32 103.95 322.32L102.92 322.32L102.92 321.5L103.95 321.5C104.68 321.5 105.03 321.12 105.03 320.62C105.03 320.09 104.63 319.73 103.93 319.73C103.23 319.73 102.71 320.08 102.68 320.57L101.71 320.57C101.75 319.6 102.64 318.92 103.89 318.92C105.15 318.92 105.96 319.64 105.96 320.59C105.96 321.26 105.53 321.68 104.96 321.86L104.96 321.92C105.64 321.96 106.09 322.57 106.09 323.32C106.09 324.42 105.14 325.12 103.82 325.12ZM62.78 319.85L60.79 319.85L60.79 319L65.67 319L65.67 319.85L63.7 319.85L63.7 325L62.78 325L62.78 319.85ZM67.93 325L67.01 325L67.01 319L67.93 319L67.93 321.6L68.54 321.6L70.7 319L71.88 319L69.46 321.89L71.92 325L70.73 325L68.76 322.46L67.93 322.46L67.93 325ZM73.84 319L73.84 323.64L76.73 319L77.79 319L77.79 325L76.87 325L76.87 320.35L74 325L72.92 325L72.92 319L73.84 319ZM89.9 325L88.98 325L88.98 319L93.7 319L93.7 325L92.78 325L92.78 319.85L89.9 319.85L89.9 325ZM108.31 319L108.31 323.64L111.2 319L112.26 319L112.26 325L111.34 325L111.34 320.35L108.47 325L107.39 325L107.39 319L108.31 319ZM117.75 319L118.67 319L118.67 324.14L119.51 324.14L119.51 326.93L118.59 326.93L118.59 325L113.95 325L113.95 319L114.87 319L114.87 324.14L117.75 324.14L117.75 319ZM121.85 319L121.85 323.64L124.75 319L125.81 319L125.81 325L124.89 325L124.89 320.35L122.01 325L120.93 325L120.93 319L121.85 319ZM128.42 319L128.42 323.64L131.31 319L132.37 319L132.37 325L131.45 325L131.45 320.35L128.57 325L127.5 325L127.5 319L128.42 319ZM42.39 322.03C42.39 323.23 42.95 324.29 44.18 324.29C45.42 324.29 45.98 323.23 45.98 322.03C45.98 320.82 45.42 319.75 44.18 319.75C42.95 319.75 42.39 320.82 42.39 322.03ZM50.93 319.75C49.81 319.75 49.21 320.65 49.21 322C49.21 323.35 49.82 324.29 50.93 324.29C52.09 324.29 52.68 323.28 52.68 322C52.68 320.73 52.1 319.75 50.93 319.75ZM55.65 322.03C55.65 323.23 56.21 324.29 57.45 324.29C58.68 324.29 59.25 323.23 59.25 322.03C59.25 320.82 58.68 319.75 57.45 319.75C56.21 319.75 55.65 320.82 55.65 322.03ZM81.9 319.75C80.85 319.75 80.19 320.58 80.12 321.51L83.54 321.51C83.54 320.49 82.9 319.75 81.9 319.75ZM96.03 322.03C96.03 323.23 96.59 324.29 97.82 324.29C99.06 324.29 99.62 323.23 99.62 322.03C99.62 320.82 99.06 319.75 97.82 319.75C96.59 319.75 96.03 320.82 96.03 322.03ZM30.11 322L21.02 322L21.02 320L30.11 320L30.11 322ZM137.09 320.57L140.59 320.57L140.59 321.43L137.09 321.43L137.09 320.57ZM154.95 322.43C154.94 323.39 155.68 324.25 156.68 324.25C157.66 324.25 158.42 323.43 158.42 322.42C158.42 321.43 157.69 320.62 156.71 320.62C155.72 320.62 154.95 321.47 154.95 322.43ZM30.11 324.75L21.02 324.75L21.02 322.75L30.11 322.75L30.11 324.75ZM148.23 324.35C148.23 324.74 147.91 325.06 147.53 325.06C147.14 325.06 146.82 324.74 146.82 324.35C146.82 323.97 147.14 323.65 147.53 323.65C147.91 323.65 148.23 323.97 148.23 324.35ZM30.11 327.5L21.02 327.5L21.02 325.5L30.11 325.5L30.11 327.5Z" fill="#FFFFFF" fill-opacity="1.000000" fill-rule="evenodd"/>
			<path id="Рекомендация (Новый сигнал)" d="M122.86 42.98C121.87 41.59 121.34 39.96 121.34 38C121.34 36.04 121.87 34.41 122.86 33.01L123.93 33.01C123.16 34.05 122.55 36.14 122.55 38C122.55 39.85 123.16 41.95 123.93 42.98L122.86 42.98ZM202.11 33.69C203.11 35.09 203.63 36.72 203.63 38.68C203.63 40.64 203.11 42.27 202.11 43.66L201.04 43.66C201.81 42.63 202.42 40.53 202.42 38.68C202.42 36.82 201.81 34.73 201.04 33.69L202.11 33.69ZM157.2 34.71C157.75 34.71 157.96 34.36 157.96 33.96L158.92 33.96C158.92 34.84 158.26 35.45 157.2 35.45C156.15 35.45 155.48 34.84 155.48 33.96L156.44 33.96C156.44 34.35 156.64 34.71 157.2 34.71ZM39.08 42L37.87 42L37.87 33.99L40.73 33.99C42.58 33.99 43.49 35.11 43.49 36.58C43.49 38.06 42.58 39.18 40.72 39.18L39.08 39.18L39.08 42ZM126.46 42L125.25 42L125.25 33.99L126.46 33.99L126.46 37.47L130.45 37.47L130.45 33.99L131.66 33.99L131.66 42L130.45 42L130.45 38.51L126.46 38.51L126.46 42ZM39.08 35.03L39.08 38.16L40.61 38.16C41.79 38.16 42.28 37.49 42.28 36.58C42.28 35.68 41.79 35.03 40.6 35.03L39.08 35.03ZM49.82 40.49C49.56 41.47 48.63 42.12 47.32 42.12C45.55 42.12 44.47 40.9 44.47 39.03C44.47 37.19 45.57 35.92 47.24 35.92C48.6 35.92 49.9 36.76 49.9 38.93L49.9 39.35L45.63 39.35C45.66 40.5 46.33 41.15 47.34 41.15C48 41.15 48.51 40.86 48.72 40.3L49.82 40.49ZM62.36 39.02C62.36 40.88 61.25 42.12 59.56 42.12C57.87 42.12 56.76 40.88 56.76 39.02C56.76 37.16 57.87 35.92 59.56 35.92C61.25 35.92 62.36 37.16 62.36 39.02ZM77.06 40.49C76.8 41.47 75.87 42.12 74.56 42.12C72.79 42.12 71.71 40.9 71.71 39.03C71.71 37.19 72.81 35.92 74.48 35.92C75.84 35.92 77.14 36.76 77.14 38.93L77.14 39.35L72.87 39.35C72.9 40.5 73.57 41.15 74.57 41.15C75.24 41.15 75.75 40.86 75.96 40.3L77.06 40.49ZM95.43 41.18C95.21 41.62 94.65 42.13 93.66 42.13C92.52 42.13 91.63 41.48 91.63 40.3C91.63 38.94 92.79 38.64 93.93 38.51C95.01 38.38 95.45 38.39 95.45 37.96L95.45 37.94C95.45 37.26 95.06 36.86 94.3 36.86C93.52 36.86 93.08 37.27 92.91 37.7L91.81 37.45C92.2 36.36 93.2 35.92 94.29 35.92C95.24 35.92 96.62 36.26 96.62 38.01L96.62 42L95.47 42L95.47 41.18L95.43 41.18ZM138.65 39.02C138.65 40.88 137.54 42.12 135.85 42.12C134.16 42.12 133.05 40.88 133.05 39.02C133.05 37.16 134.16 35.92 135.85 35.92C137.54 35.92 138.65 37.16 138.65 39.02ZM169.2 40.1C169.07 41.26 168.15 42.12 166.73 42.12C164.99 42.12 163.94 40.83 163.94 39.02C163.94 37.19 165.03 35.92 166.72 35.92C168.09 35.92 169.07 36.72 169.2 37.93L168.06 37.93C167.94 37.37 167.48 36.9 166.74 36.9C165.77 36.9 165.12 37.71 165.12 39C165.12 40.3 165.75 41.13 166.74 41.13C167.41 41.13 167.91 40.75 168.06 40.1L169.2 40.1ZM192.1 41.18C191.88 41.62 191.32 42.13 190.33 42.13C189.19 42.13 188.3 41.48 188.3 40.3C188.3 38.94 189.46 38.64 190.6 38.51C191.68 38.38 192.12 38.39 192.12 37.96L192.12 37.94C192.12 37.26 191.73 36.86 190.98 36.86C190.19 36.86 189.75 37.27 189.58 37.7L188.48 37.45C188.87 36.36 189.87 35.92 190.96 35.92C191.91 35.92 193.29 36.26 193.29 38.01L193.29 42L192.15 42L192.15 41.18L192.1 41.18ZM52.37 42L51.2 42L51.2 36L52.37 36L52.37 38.51L52.93 38.51L54.91 36L56.35 36L54.03 38.91L56.38 42L54.93 42L53.12 39.6L52.37 39.6L52.37 42ZM65.13 36L67.03 40.55L68.96 36L70.42 36L70.42 42L69.28 42L69.28 37.65L67.46 42L66.59 42L64.8 37.63L64.8 42L63.66 42L63.66 36L65.13 36ZM78.44 36L79.58 36L79.58 38.49L82.18 38.49L82.18 36L83.32 36L83.32 42L82.18 42L82.18 39.5L79.58 39.5L79.58 42L78.44 42L78.44 36ZM85.45 43.72L84.29 43.72L84.29 40.98L84.78 40.98C85.28 40.53 85.46 39.74 85.59 38.23L85.77 36L89.85 36L89.85 40.98L90.77 40.98L90.77 43.72L89.63 43.72L89.63 42L85.45 42L85.45 43.72ZM101.92 36L103.06 36L103.06 41.04L103.95 41.04L103.95 43.93L102.79 43.93L102.79 42L98.17 42L98.17 36L99.31 36L99.31 40.99L101.92 40.99L101.92 36ZM106.38 36L106.38 40.36L109.03 36L110.29 36L110.29 42L109.14 42L109.14 37.63L106.51 42L105.24 42L105.24 36L106.38 36ZM116.53 42L115.43 42L115.43 39.65L114 39.65L112.69 42L111.5 42L112.9 39.48C112.18 39.21 111.77 38.63 111.77 37.84C111.77 36.71 112.61 36 113.99 36L116.53 36L116.53 42ZM142.82 42L139.95 42L139.95 36L142.44 36C143.79 36 144.64 36.61 144.64 37.6C144.64 38.3 144.15 38.71 143.41 38.85C144.21 38.94 144.9 39.49 144.9 40.38C144.9 41.33 144.13 42 142.82 42ZM147.32 36L147.32 38.06L148.8 38.06C150.26 38.06 151.09 38.86 151.09 40.02C151.09 41.14 150.26 42 148.8 42L146.17 42L146.17 36L147.32 36ZM153.11 42L151.94 42L151.94 36L153.11 36L153.11 42ZM155.82 36L155.82 40.36L158.46 36L159.72 36L159.72 42L158.58 42L158.58 37.63L155.94 42L154.67 42L154.67 36L155.82 36ZM171.6 36L171.6 40.36L174.24 36L175.5 36L175.5 42L174.35 42L174.35 37.63L171.72 42L170.45 42L170.45 36L171.6 36ZM177.07 36L180.91 36L180.91 37L178.22 37L178.22 42L177.07 42L177.07 36ZM182.14 36L183.29 36L183.29 38.49L185.88 38.49L185.88 36L187.02 36L187.02 42L185.88 42L185.88 39.5L183.29 39.5L183.29 42L182.14 42L182.14 36ZM194.75 42L194.37 42L194.37 40.98L194.58 40.98C195.25 40.98 195.46 40.5 195.54 38.65L195.64 36L199.83 36L199.83 42L198.68 42L198.68 37L196.72 37L196.63 39.04C196.53 41.03 196.05 42 194.75 42ZM47.25 36.88C46.3 36.88 45.68 37.62 45.64 38.47L48.75 38.47C48.75 37.55 48.15 36.88 47.25 36.88ZM74.49 36.88C73.54 36.88 72.92 37.62 72.87 38.47L75.99 38.47C75.99 37.55 75.39 36.88 74.49 36.88ZM57.94 39.02C57.94 40.17 58.46 41.14 59.57 41.14C60.66 41.14 61.18 40.17 61.18 39.02C61.18 37.87 60.66 36.89 59.57 36.89C58.46 36.89 57.94 37.87 57.94 39.02ZM134.23 39.02C134.23 40.17 134.75 41.14 135.86 41.14C136.95 41.14 137.47 40.17 137.47 39.02C137.47 37.87 136.95 36.89 135.86 36.89C134.75 36.89 134.23 37.87 134.23 39.02ZM141.05 36.98L141.05 38.5L142.45 38.5C143.11 38.5 143.5 38.2 143.5 37.72C143.5 37.26 143.1 36.98 142.44 36.98L141.05 36.98ZM113.92 38.7L115.43 38.7L115.43 36.99L113.99 36.99C113.31 36.99 112.91 37.34 112.91 37.85C112.91 38.37 113.28 38.7 113.92 38.7ZM86.7 38.23C86.58 39.49 86.43 40.42 86.03 40.98L88.71 40.98L88.71 36.99L86.82 36.99L86.7 38.23ZM92.77 40.32C92.77 40.89 93.25 41.19 93.91 41.19C94.88 41.19 95.45 40.54 95.45 39.83L95.45 39.06C95.28 39.23 94.38 39.33 94 39.38C93.33 39.47 92.77 39.69 92.77 40.32ZM189.45 40.32C189.45 40.89 189.92 41.19 190.58 41.19C191.55 41.19 192.12 40.54 192.12 39.83L192.12 39.06C191.95 39.23 191.05 39.33 190.68 39.38C190 39.47 189.45 39.69 189.45 40.32ZM148.8 39.07L147.32 39.07L147.32 40.99L148.8 40.99C149.47 40.99 149.95 40.6 149.95 40.05C149.95 39.47 149.47 39.07 148.8 39.07ZM141.05 39.35L141.05 41.02L142.82 41.02C143.39 41.02 143.74 40.72 143.74 40.25C143.74 39.69 143.39 39.35 142.82 39.35L141.05 39.35Z" fill="#FFFFFF" fill-opacity="1.000000" fill-rule="evenodd"/>
			<path id="04:12" d="M250.48 38C250.48 40.62 249.4 42.13 247.55 42.13C245.7 42.12 244.62 40.62 244.62 38C244.62 35.39 245.71 33.88 247.55 33.88C249.38 33.88 250.48 35.4 250.48 38ZM272.64 42L267.38 42L267.38 41.12L270.09 38.32C270.95 37.41 271.37 36.9 271.37 36.19C271.37 35.39 270.75 34.89 269.94 34.89C269.07 34.89 268.52 35.46 268.52 36.32L267.37 36.32C267.37 34.85 268.46 33.88 269.96 33.88C271.47 33.88 272.51 34.87 272.51 36.15C272.51 37.05 272.1 37.76 270.63 39.24L269.04 40.9L269.04 40.96L272.64 40.96L272.64 42ZM255.49 40.43L251.7 40.43L251.7 39.46L255.16 33.99L256.65 33.99L256.65 39.41L257.71 39.41L257.71 40.43L256.65 40.43L256.65 42L255.49 42L255.49 40.43ZM264.04 33.99L265.21 33.99L265.21 42L264 42L264 35.21L263.96 35.21L262.04 36.45L262.04 35.3L264.04 33.99ZM245.82 38C245.82 40 246.47 41.08 247.55 41.08C248.63 41.08 249.28 40 249.28 38C249.28 36.01 248.63 34.91 247.55 34.91C246.47 34.91 245.82 36.01 245.82 38ZM252.97 39.41L255.5 39.41L255.5 35.43L255.44 35.43L252.97 39.35L252.97 39.41ZM260.63 36.21C260.63 36.65 260.28 36.99 259.85 36.99C259.42 36.99 259.07 36.65 259.07 36.21C259.07 35.79 259.42 35.44 259.85 35.44C260.28 35.44 260.63 35.79 260.63 36.21ZM260.63 40.22C260.63 40.65 260.28 41 259.85 41C259.42 41 259.07 40.65 259.07 40.22C259.07 39.8 259.42 39.44 259.85 39.44C260.28 39.44 260.63 39.8 260.63 40.22Z" fill="#91A3B5" fill-opacity="1.000000" fill-rule="evenodd"/>
		</g>
	</g>
</svg>
