<svg width="28" height="28" viewBox="0 0 28 28" fill="none" xmlns="http://www.w3.org/2000/svg">
<path d="M25.1727 12.8079L22.9961 4.48443C22.9269 4.2141 22.7728 3.97307 22.5566 3.79666C22.3404 3.62025 22.0733 3.51775 21.7946 3.50417C21.5159 3.4906 21.2401 3.56666 21.0078 3.72122C20.7754 3.87578 20.5987 4.1007 20.5035 4.36302L18.5697 9.62505H9.43034L7.49659 4.36083C7.40118 4.09856 7.22426 3.87374 6.99176 3.71936C6.75926 3.56497 6.48341 3.48912 6.20466 3.50295C5.92591 3.51677 5.65892 3.61953 5.44284 3.79616C5.22675 3.97279 5.07293 4.214 5.00393 4.48443L2.82737 12.8079C2.50591 14.0328 2.56383 15.3265 2.99349 16.5178C3.42314 17.7091 4.20429 18.742 5.23362 19.4797L13.2475 25.141C13.4673 25.2962 13.7298 25.3795 13.9989 25.3795C14.268 25.3795 14.5305 25.2962 14.7503 25.141L22.7642 19.4797C23.794 18.7422 24.5756 17.7095 25.0056 16.5182C25.4357 15.3269 25.4939 14.033 25.1727 12.8079ZM21.7558 18.0469L14 23.5255L6.24425 18.0469C5.50565 17.5158 4.94557 16.7732 4.63799 15.917C4.33042 15.0609 4.28983 14.1316 4.52159 13.2519L6.34378 6.28911L7.99862 10.8019C8.06042 10.97 8.17232 11.1151 8.31921 11.2176C8.4661 11.3201 8.64091 11.3751 8.82003 11.3751H14H19.18C19.3591 11.3751 19.534 11.3201 19.6808 11.2176C19.8277 11.1151 19.9396 10.97 20.0014 10.8019L21.6563 6.28911L23.4752 13.2508C23.7075 14.1304 23.6676 15.0597 23.3606 15.916C23.0536 16.7723 22.494 17.5153 21.7558 18.0469Z" fill="#9EFF3C"/>
<path d="M14 11.375V23.625" stroke="#9EFF3C"/>
</svg>
